<?xml version="1.0" encoding="UTF-8" standalone="no"?>
<!DOCTYPE svg PUBLIC "-//W3C//DTD SVG 1.1//EN" "http://www.w3.org/Graphics/SVG/1.1/DTD/svg11.dtd">
<svg version="1.1" xmlns="http://www.w3.org/2000/svg" width="250.000 mm" height="170.000 mm">

<path style="stroke:black; fill:none; stroke-linecap:round; stroke-linejoin:round"
d="M 16.31 161.33
L 16.31 160.05
"/>
<path style="stroke:black; fill:none; stroke-linecap:round; stroke-linejoin:round"
d="M 16.31 161.33
L 242.86 161.33
"/>
<text x="20.67" y="165.67" style="font-size:3.82; fill:black; text-anchor:middle
">900</text>
<path style="stroke:black; fill:none; stroke-linecap:round; stroke-linejoin:round"
d="M 20.67 161.33
L 20.67 158.78
"/>
<path style="stroke:black; fill:none; stroke-linecap:round; stroke-linejoin:round"
d="M 25.02 161.33
L 25.02 160.05
"/>
<path style="stroke:black; fill:none; stroke-linecap:round; stroke-linejoin:round"
d="M 29.38 161.33
L 29.38 160.05
"/>
<path style="stroke:black; fill:none; stroke-linecap:round; stroke-linejoin:round"
d="M 33.73 161.33
L 33.73 160.05
"/>
<path style="stroke:black; fill:none; stroke-linecap:round; stroke-linejoin:round"
d="M 38.09 161.33
L 38.09 160.05
"/>
<text x="42.44" y="165.67" style="font-size:3.82; fill:black; text-anchor:middle
">920</text>
<path style="stroke:black; fill:none; stroke-linecap:round; stroke-linejoin:round"
d="M 42.44 161.33
L 42.44 158.78
"/>
<path style="stroke:black; fill:none; stroke-linecap:round; stroke-linejoin:round"
d="M 46.80 161.33
L 46.80 160.05
"/>
<path style="stroke:black; fill:none; stroke-linecap:round; stroke-linejoin:round"
d="M 51.15 161.33
L 51.15 160.05
"/>
<path style="stroke:black; fill:none; stroke-linecap:round; stroke-linejoin:round"
d="M 55.51 161.33
L 55.51 160.05
"/>
<path style="stroke:black; fill:none; stroke-linecap:round; stroke-linejoin:round"
d="M 59.86 161.33
L 59.86 160.05
"/>
<text x="64.22" y="165.67" style="font-size:3.82; fill:black; text-anchor:middle
">940</text>
<path style="stroke:black; fill:none; stroke-linecap:round; stroke-linejoin:round"
d="M 64.22 161.33
L 64.22 158.78
"/>
<path style="stroke:black; fill:none; stroke-linecap:round; stroke-linejoin:round"
d="M 68.57 161.33
L 68.57 160.05
"/>
<path style="stroke:black; fill:none; stroke-linecap:round; stroke-linejoin:round"
d="M 72.93 161.33
L 72.93 160.05
"/>
<path style="stroke:black; fill:none; stroke-linecap:round; stroke-linejoin:round"
d="M 77.28 161.33
L 77.28 160.05
"/>
<path style="stroke:black; fill:none; stroke-linecap:round; stroke-linejoin:round"
d="M 81.64 161.33
L 81.64 160.05
"/>
<text x="85.99" y="165.67" style="font-size:3.82; fill:black; text-anchor:middle
">960</text>
<path style="stroke:black; fill:none; stroke-linecap:round; stroke-linejoin:round"
d="M 85.99 161.33
L 85.99 158.78
"/>
<path style="stroke:black; fill:none; stroke-linecap:round; stroke-linejoin:round"
d="M 90.35 161.33
L 90.35 160.05
"/>
<path style="stroke:black; fill:none; stroke-linecap:round; stroke-linejoin:round"
d="M 94.70 161.33
L 94.70 160.05
"/>
<path style="stroke:black; fill:none; stroke-linecap:round; stroke-linejoin:round"
d="M 99.06 161.33
L 99.06 160.05
"/>
<path style="stroke:black; fill:none; stroke-linecap:round; stroke-linejoin:round"
d="M 103.41 161.33
L 103.41 160.05
"/>
<text x="107.77" y="165.67" style="font-size:3.82; fill:black; text-anchor:middle
">980</text>
<path style="stroke:black; fill:none; stroke-linecap:round; stroke-linejoin:round"
d="M 107.77 161.33
L 107.77 158.78
"/>
<path style="stroke:black; fill:none; stroke-linecap:round; stroke-linejoin:round"
d="M 112.12 161.33
L 112.12 160.05
"/>
<path style="stroke:black; fill:none; stroke-linecap:round; stroke-linejoin:round"
d="M 116.48 161.33
L 116.48 160.05
"/>
<path style="stroke:black; fill:none; stroke-linecap:round; stroke-linejoin:round"
d="M 120.83 161.33
L 120.83 160.05
"/>
<path style="stroke:black; fill:none; stroke-linecap:round; stroke-linejoin:round"
d="M 125.19 161.33
L 125.19 160.05
"/>
<text x="129.54" y="165.67" style="font-size:3.82; fill:black; text-anchor:middle
">1000</text>
<path style="stroke:black; fill:none; stroke-linecap:round; stroke-linejoin:round"
d="M 129.54 161.33
L 129.54 158.78
"/>
<path style="stroke:black; fill:none; stroke-linecap:round; stroke-linejoin:round"
d="M 133.90 161.33
L 133.90 160.05
"/>
<path style="stroke:black; fill:none; stroke-linecap:round; stroke-linejoin:round"
d="M 138.25 161.33
L 138.25 160.05
"/>
<path style="stroke:black; fill:none; stroke-linecap:round; stroke-linejoin:round"
d="M 142.61 161.33
L 142.61 160.05
"/>
<path style="stroke:black; fill:none; stroke-linecap:round; stroke-linejoin:round"
d="M 146.96 161.33
L 146.96 160.05
"/>
<text x="151.32" y="165.67" style="font-size:3.82; fill:black; text-anchor:middle
">1020</text>
<path style="stroke:black; fill:none; stroke-linecap:round; stroke-linejoin:round"
d="M 151.32 161.33
L 151.32 158.78
"/>
<path style="stroke:black; fill:none; stroke-linecap:round; stroke-linejoin:round"
d="M 155.67 161.33
L 155.67 160.05
"/>
<path style="stroke:black; fill:none; stroke-linecap:round; stroke-linejoin:round"
d="M 160.03 161.33
L 160.03 160.05
"/>
<path style="stroke:black; fill:none; stroke-linecap:round; stroke-linejoin:round"
d="M 164.38 161.33
L 164.38 160.05
"/>
<path style="stroke:black; fill:none; stroke-linecap:round; stroke-linejoin:round"
d="M 168.74 161.33
L 168.74 160.05
"/>
<text x="173.10" y="165.67" style="font-size:3.82; fill:black; text-anchor:middle
">1040</text>
<path style="stroke:black; fill:none; stroke-linecap:round; stroke-linejoin:round"
d="M 173.10 161.33
L 173.10 158.78
"/>
<path style="stroke:black; fill:none; stroke-linecap:round; stroke-linejoin:round"
d="M 177.45 161.33
L 177.45 160.05
"/>
<path style="stroke:black; fill:none; stroke-linecap:round; stroke-linejoin:round"
d="M 181.81 161.33
L 181.81 160.05
"/>
<path style="stroke:black; fill:none; stroke-linecap:round; stroke-linejoin:round"
d="M 186.16 161.33
L 186.16 160.05
"/>
<path style="stroke:black; fill:none; stroke-linecap:round; stroke-linejoin:round"
d="M 190.52 161.33
L 190.52 160.05
"/>
<text x="194.87" y="165.67" style="font-size:3.82; fill:black; text-anchor:middle
">1060</text>
<path style="stroke:black; fill:none; stroke-linecap:round; stroke-linejoin:round"
d="M 194.87 161.33
L 194.87 158.78
"/>
<path style="stroke:black; fill:none; stroke-linecap:round; stroke-linejoin:round"
d="M 199.23 161.33
L 199.23 160.05
"/>
<path style="stroke:black; fill:none; stroke-linecap:round; stroke-linejoin:round"
d="M 203.58 161.33
L 203.58 160.05
"/>
<path style="stroke:black; fill:none; stroke-linecap:round; stroke-linejoin:round"
d="M 207.94 161.33
L 207.94 160.05
"/>
<path style="stroke:black; fill:none; stroke-linecap:round; stroke-linejoin:round"
d="M 212.29 161.33
L 212.29 160.05
"/>
<text x="216.65" y="165.67" style="font-size:3.82; fill:black; text-anchor:middle
">1080</text>
<path style="stroke:black; fill:none; stroke-linecap:round; stroke-linejoin:round"
d="M 216.65 161.33
L 216.65 158.78
"/>
<path style="stroke:black; fill:none; stroke-linecap:round; stroke-linejoin:round"
d="M 221.00 161.33
L 221.00 160.05
"/>
<path style="stroke:black; fill:none; stroke-linecap:round; stroke-linejoin:round"
d="M 225.36 161.33
L 225.36 160.05
"/>
<path style="stroke:black; fill:none; stroke-linecap:round; stroke-linejoin:round"
d="M 229.71 161.33
L 229.71 160.05
"/>
<path style="stroke:black; fill:none; stroke-linecap:round; stroke-linejoin:round"
d="M 234.07 161.33
L 234.07 160.05
"/>
<text x="238.42" y="165.67" style="font-size:3.82; fill:black; text-anchor:middle
">1100</text>
<path style="stroke:black; fill:none; stroke-linecap:round; stroke-linejoin:round"
d="M 238.42 161.33
L 238.42 158.78
"/>
<path style="stroke:black; fill:none; stroke-linecap:round; stroke-linejoin:round"
d="M 242.78 161.33
L 242.78 160.05
"/>
<text x="129.59" y="169.57" style="font-size:3.82; fill:black; text-anchor:middle
">Wavenumber/cm-1</text>
<path style="stroke:black; fill:none; stroke-linecap:round; stroke-linejoin:round"
d="M 16.31 154.20
L 92.13 154.20
L 92.13 148.38
L 92.13 154.20
L 92.24 154.20
L 92.24 147.93
L 92.24 154.20
L 92.36 154.20
L 92.36 152.87
L 92.36 154.20
L 92.47 154.20
L 92.47 147.39
L 92.47 154.20
L 92.58 154.20
L 92.58 146.58
L 92.58 154.20
L 92.70 154.20
L 92.70 153.52
L 92.70 154.20
L 92.92 154.20
L 92.92 144.38
L 92.92 154.20
L 93.04 154.20
L 93.04 153.72
L 93.04 154.20
L 93.26 154.20
L 93.26 141.68
L 93.26 154.20
L 93.38 154.20
L 93.38 153.86
L 93.38 154.20
L 93.72 154.20
L 93.72 138.40
L 93.72 154.20
L 93.83 154.20
L 93.83 153.97
L 93.83 154.20
L 94.17 154.20
L 94.17 134.49
L 94.17 154.20
L 94.28 154.20
L 94.28 154.04
L 94.28 154.20
L 94.74 154.20
L 94.74 129.88
L 94.74 154.20
L 94.85 154.20
L 94.85 154.09
L 94.85 154.20
L 95.30 154.20
L 95.30 124.53
L 95.30 154.20
L 95.53 154.20
L 95.53 154.13
L 95.53 154.20
L 95.98 154.20
L 95.98 118.41
L 95.98 154.20
L 96.21 154.20
L 96.21 154.15
L 96.21 154.20
L 96.78 154.20
L 96.78 111.51
L 96.78 154.20
L 97.00 154.20
L 97.00 154.17
L 97.00 154.20
L 97.57 154.20
L 97.57 103.88
L 97.57 154.20
L 97.80 154.20
L 97.80 154.18
L 97.80 154.20
L 98.36 154.20
L 98.36 95.58
L 98.36 154.20
L 98.70 154.20
L 98.70 154.19
L 98.70 154.20
L 99.38 154.20
L 99.38 86.73
L 99.38 154.20
L 99.72 154.20
L 99.72 154.19
L 99.72 154.20
L 100.29 154.20
L 100.29 77.51
L 100.29 154.20
L 100.74 154.20
L 100.74 154.19
L 100.74 154.20
L 101.42 154.20
L 101.42 68.12
L 101.42 154.20
L 102.56 154.20
L 102.56 58.83
L 102.56 154.20
L 103.69 154.20
L 103.69 49.96
L 103.69 154.20
L 105.05 154.20
L 105.05 41.86
L 105.05 154.20
L 106.30 154.20
L 106.30 34.89
L 106.30 154.20
L 107.77 154.20
L 107.77 29.44
L 107.77 154.20
L 109.13 154.20
L 109.13 25.88
L 109.13 154.20
L 110.72 154.20
L 110.72 24.57
L 110.72 154.20
L 112.30 154.20
L 112.30 25.79
L 112.30 154.20
L 114.00 154.20
L 114.00 29.76
L 114.00 154.20
L 115.70 154.20
L 115.70 36.63
L 115.70 154.20
L 117.40 154.20
L 117.40 46.43
L 117.40 154.20
L 119.33 154.20
L 119.33 59.07
L 119.33 154.20
L 121.26 154.20
L 121.26 74.36
L 121.26 154.20
L 123.18 154.20
L 123.18 91.98
L 123.18 154.20
L 125.22 154.20
L 125.22 111.51
L 125.22 154.20
L 127.38 154.20
L 127.38 132.44
L 127.38 154.20
L 131.80 154.20
L 131.80 132.23
L 131.80 154.20
L 134.06 154.20
L 134.06 110.68
L 134.06 154.20
L 136.44 154.20
L 136.44 90.16
L 136.44 154.20
L 138.94 154.20
L 138.94 71.24
L 138.94 154.20
L 141.43 154.20
L 141.43 54.40
L 141.43 154.20
L 144.04 154.20
L 144.04 40.05
L 144.04 154.20
L 146.64 154.20
L 146.64 28.47
L 146.64 154.20
L 149.36 154.20
L 149.36 19.84
L 149.36 154.20
L 152.08 154.20
L 152.08 14.21
L 152.08 154.20
L 154.92 154.20
L 154.92 11.52
L 154.92 154.20
L 157.86 154.20
L 157.86 11.61
L 157.86 154.20
L 160.81 154.20
L 160.81 14.22
L 160.81 154.20
L 163.76 154.20
L 163.76 19.04
L 163.76 154.20
L 166.93 154.20
L 166.93 25.71
L 166.93 154.20
L 169.99 154.20
L 169.99 33.83
L 169.99 154.20
L 173.28 154.20
L 173.28 43.01
L 173.28 154.20
L 176.56 154.20
L 176.56 52.87
L 176.56 154.20
L 179.96 154.20
L 179.96 63.05
L 179.96 154.20
L 183.36 154.20
L 183.36 73.25
L 183.36 154.20
L 186.76 154.20
"/>
<path style="stroke:black; fill:none; stroke-linecap:round; stroke-linejoin:round"
d="M 186.76 154.20
L 186.76 83.18
L 186.76 154.20
L 190.39 154.20
L 190.39 92.65
L 190.39 154.20
L 194.02 154.20
L 194.02 101.48
L 194.02 154.20
L 197.64 154.20
L 197.64 109.57
L 197.64 154.20
L 201.38 154.20
L 201.38 116.85
L 201.38 154.20
L 205.24 154.20
L 205.24 123.29
L 205.24 154.20
L 209.09 154.20
L 209.09 128.91
L 209.09 154.20
L 213.06 154.20
L 213.06 133.73
L 213.06 154.20
L 217.02 154.20
L 217.02 137.82
L 217.02 154.20
L 221.10 154.20
L 221.10 141.23
L 221.10 154.20
L 225.30 154.20
L 225.30 144.04
L 225.30 154.20
L 229.49 154.20
L 229.49 146.33
L 229.49 154.20
L 233.68 154.20
L 233.68 148.16
L 233.68 154.20
L 238.10 154.20
L 238.10 149.62
L 238.10 154.20
L 242.41 154.20
L 242.41 150.76
L 242.41 154.20
L 242.86 154.20
"/>
<path style="stroke:black; fill:none; stroke-linecap:round; stroke-linejoin:round"
d="M 16.31 154.20
L 16.31 11.52
"/>
<text x="15.97" y="155.64" style="font-size:3.82; fill:black; text-anchor:end
">0.000</text>
<path style="stroke:black; fill:none; stroke-linecap:round; stroke-linejoin:round"
d="M 16.31 154.20
L 18.86 154.20
"/>
<path style="stroke:black; fill:none; stroke-linecap:round; stroke-linejoin:round"
d="M 16.31 148.69
L 17.59 148.69
"/>
<path style="stroke:black; fill:none; stroke-linecap:round; stroke-linejoin:round"
d="M 16.31 143.19
L 17.59 143.19
"/>
<path style="stroke:black; fill:none; stroke-linecap:round; stroke-linejoin:round"
d="M 16.31 137.68
L 17.59 137.68
"/>
<path style="stroke:black; fill:none; stroke-linecap:round; stroke-linejoin:round"
d="M 16.31 132.18
L 17.59 132.18
"/>
<text x="15.97" y="128.12" style="font-size:3.82; fill:black; text-anchor:end
">0.002</text>
<path style="stroke:black; fill:none; stroke-linecap:round; stroke-linejoin:round"
d="M 16.31 126.67
L 18.86 126.67
"/>
<path style="stroke:black; fill:none; stroke-linecap:round; stroke-linejoin:round"
d="M 16.31 121.17
L 17.59 121.17
"/>
<path style="stroke:black; fill:none; stroke-linecap:round; stroke-linejoin:round"
d="M 16.31 115.66
L 17.59 115.66
"/>
<path style="stroke:black; fill:none; stroke-linecap:round; stroke-linejoin:round"
d="M 16.31 110.15
L 17.59 110.15
"/>
<path style="stroke:black; fill:none; stroke-linecap:round; stroke-linejoin:round"
d="M 16.31 104.65
L 17.59 104.65
"/>
<text x="15.97" y="100.59" style="font-size:3.82; fill:black; text-anchor:end
">0.004</text>
<path style="stroke:black; fill:none; stroke-linecap:round; stroke-linejoin:round"
d="M 16.31 99.14
L 18.86 99.14
"/>
<path style="stroke:black; fill:none; stroke-linecap:round; stroke-linejoin:round"
d="M 16.31 93.64
L 17.59 93.64
"/>
<path style="stroke:black; fill:none; stroke-linecap:round; stroke-linejoin:round"
d="M 16.31 88.13
L 17.59 88.13
"/>
<path style="stroke:black; fill:none; stroke-linecap:round; stroke-linejoin:round"
d="M 16.31 82.62
L 17.59 82.62
"/>
<path style="stroke:black; fill:none; stroke-linecap:round; stroke-linejoin:round"
d="M 16.31 77.12
L 17.59 77.12
"/>
<text x="15.97" y="73.06" style="font-size:3.82; fill:black; text-anchor:end
">0.006</text>
<path style="stroke:black; fill:none; stroke-linecap:round; stroke-linejoin:round"
d="M 16.31 71.61
L 18.86 71.61
"/>
<path style="stroke:black; fill:none; stroke-linecap:round; stroke-linejoin:round"
d="M 16.31 66.11
L 17.59 66.11
"/>
<path style="stroke:black; fill:none; stroke-linecap:round; stroke-linejoin:round"
d="M 16.31 60.60
L 17.59 60.60
"/>
<path style="stroke:black; fill:none; stroke-linecap:round; stroke-linejoin:round"
d="M 16.31 55.09
L 17.59 55.09
"/>
<path style="stroke:black; fill:none; stroke-linecap:round; stroke-linejoin:round"
d="M 16.31 49.59
L 17.59 49.59
"/>
<text x="15.97" y="45.53" style="font-size:3.82; fill:black; text-anchor:end
">0.008</text>
<path style="stroke:black; fill:none; stroke-linecap:round; stroke-linejoin:round"
d="M 16.31 44.08
L 18.86 44.08
"/>
<path style="stroke:black; fill:none; stroke-linecap:round; stroke-linejoin:round"
d="M 16.31 38.58
L 17.59 38.58
"/>
<path style="stroke:black; fill:none; stroke-linecap:round; stroke-linejoin:round"
d="M 16.31 33.07
L 17.59 33.07
"/>
<path style="stroke:black; fill:none; stroke-linecap:round; stroke-linejoin:round"
d="M 16.31 27.57
L 17.59 27.57
"/>
<path style="stroke:black; fill:none; stroke-linecap:round; stroke-linejoin:round"
d="M 16.31 22.06
L 17.59 22.06
"/>
<text x="15.97" y="18.00" style="font-size:3.82; fill:black; text-anchor:end
">0.010</text>
<path style="stroke:black; fill:none; stroke-linecap:round; stroke-linejoin:round"
d="M 16.31 16.55
L 18.86 16.55
"/>
<g transform="translate(4.10,82.86) rotate(270.0)">
<text x="0.00" y="0.00" style="font-size:3.82; fill:black; text-anchor:middle
">Normalized Intensity</text>
</g>
</svg>
