<?xml version="1.0" encoding="UTF-8" standalone="no"?>
<!DOCTYPE svg PUBLIC "-//W3C//DTD SVG 1.1//EN" "http://www.w3.org/Graphics/SVG/1.1/DTD/svg11.dtd">
<svg version="1.1" xmlns="http://www.w3.org/2000/svg" width="250.000 mm" height="170.000 mm">

<path style="stroke:black; fill:none; stroke-linecap:round; stroke-linejoin:round"
d="M 16.31 161.33
L 16.31 160.05
"/>
<path style="stroke:black; fill:none; stroke-linecap:round; stroke-linejoin:round"
d="M 16.31 161.33
L 242.86 161.33
"/>
<text x="20.67" y="165.67" style="font-size:3.82; fill:black; text-anchor:middle
">900</text>
<path style="stroke:black; fill:none; stroke-linecap:round; stroke-linejoin:round"
d="M 20.67 161.33
L 20.67 158.78
"/>
<path style="stroke:black; fill:none; stroke-linecap:round; stroke-linejoin:round"
d="M 25.02 161.33
L 25.02 160.05
"/>
<path style="stroke:black; fill:none; stroke-linecap:round; stroke-linejoin:round"
d="M 29.38 161.33
L 29.38 160.05
"/>
<path style="stroke:black; fill:none; stroke-linecap:round; stroke-linejoin:round"
d="M 33.73 161.33
L 33.73 160.05
"/>
<path style="stroke:black; fill:none; stroke-linecap:round; stroke-linejoin:round"
d="M 38.09 161.33
L 38.09 160.05
"/>
<text x="42.44" y="165.67" style="font-size:3.82; fill:black; text-anchor:middle
">920</text>
<path style="stroke:black; fill:none; stroke-linecap:round; stroke-linejoin:round"
d="M 42.44 161.33
L 42.44 158.78
"/>
<path style="stroke:black; fill:none; stroke-linecap:round; stroke-linejoin:round"
d="M 46.80 161.33
L 46.80 160.05
"/>
<path style="stroke:black; fill:none; stroke-linecap:round; stroke-linejoin:round"
d="M 51.15 161.33
L 51.15 160.05
"/>
<path style="stroke:black; fill:none; stroke-linecap:round; stroke-linejoin:round"
d="M 55.51 161.33
L 55.51 160.05
"/>
<path style="stroke:black; fill:none; stroke-linecap:round; stroke-linejoin:round"
d="M 59.86 161.33
L 59.86 160.05
"/>
<text x="64.22" y="165.67" style="font-size:3.82; fill:black; text-anchor:middle
">940</text>
<path style="stroke:black; fill:none; stroke-linecap:round; stroke-linejoin:round"
d="M 64.22 161.33
L 64.22 158.78
"/>
<path style="stroke:black; fill:none; stroke-linecap:round; stroke-linejoin:round"
d="M 68.57 161.33
L 68.57 160.05
"/>
<path style="stroke:black; fill:none; stroke-linecap:round; stroke-linejoin:round"
d="M 72.93 161.33
L 72.93 160.05
"/>
<path style="stroke:black; fill:none; stroke-linecap:round; stroke-linejoin:round"
d="M 77.28 161.33
L 77.28 160.05
"/>
<path style="stroke:black; fill:none; stroke-linecap:round; stroke-linejoin:round"
d="M 81.64 161.33
L 81.64 160.05
"/>
<text x="85.99" y="165.67" style="font-size:3.82; fill:black; text-anchor:middle
">960</text>
<path style="stroke:black; fill:none; stroke-linecap:round; stroke-linejoin:round"
d="M 85.99 161.33
L 85.99 158.78
"/>
<path style="stroke:black; fill:none; stroke-linecap:round; stroke-linejoin:round"
d="M 90.35 161.33
L 90.35 160.05
"/>
<path style="stroke:black; fill:none; stroke-linecap:round; stroke-linejoin:round"
d="M 94.70 161.33
L 94.70 160.05
"/>
<path style="stroke:black; fill:none; stroke-linecap:round; stroke-linejoin:round"
d="M 99.06 161.33
L 99.06 160.05
"/>
<path style="stroke:black; fill:none; stroke-linecap:round; stroke-linejoin:round"
d="M 103.41 161.33
L 103.41 160.05
"/>
<text x="107.77" y="165.67" style="font-size:3.82; fill:black; text-anchor:middle
">980</text>
<path style="stroke:black; fill:none; stroke-linecap:round; stroke-linejoin:round"
d="M 107.77 161.33
L 107.77 158.78
"/>
<path style="stroke:black; fill:none; stroke-linecap:round; stroke-linejoin:round"
d="M 112.12 161.33
L 112.12 160.05
"/>
<path style="stroke:black; fill:none; stroke-linecap:round; stroke-linejoin:round"
d="M 116.48 161.33
L 116.48 160.05
"/>
<path style="stroke:black; fill:none; stroke-linecap:round; stroke-linejoin:round"
d="M 120.83 161.33
L 120.83 160.05
"/>
<path style="stroke:black; fill:none; stroke-linecap:round; stroke-linejoin:round"
d="M 125.19 161.33
L 125.19 160.05
"/>
<text x="129.54" y="165.67" style="font-size:3.82; fill:black; text-anchor:middle
">1000</text>
<path style="stroke:black; fill:none; stroke-linecap:round; stroke-linejoin:round"
d="M 129.54 161.33
L 129.54 158.78
"/>
<path style="stroke:black; fill:none; stroke-linecap:round; stroke-linejoin:round"
d="M 133.90 161.33
L 133.90 160.05
"/>
<path style="stroke:black; fill:none; stroke-linecap:round; stroke-linejoin:round"
d="M 138.25 161.33
L 138.25 160.05
"/>
<path style="stroke:black; fill:none; stroke-linecap:round; stroke-linejoin:round"
d="M 142.61 161.33
L 142.61 160.05
"/>
<path style="stroke:black; fill:none; stroke-linecap:round; stroke-linejoin:round"
d="M 146.96 161.33
L 146.96 160.05
"/>
<text x="151.32" y="165.67" style="font-size:3.82; fill:black; text-anchor:middle
">1020</text>
<path style="stroke:black; fill:none; stroke-linecap:round; stroke-linejoin:round"
d="M 151.32 161.33
L 151.32 158.78
"/>
<path style="stroke:black; fill:none; stroke-linecap:round; stroke-linejoin:round"
d="M 155.67 161.33
L 155.67 160.05
"/>
<path style="stroke:black; fill:none; stroke-linecap:round; stroke-linejoin:round"
d="M 160.03 161.33
L 160.03 160.05
"/>
<path style="stroke:black; fill:none; stroke-linecap:round; stroke-linejoin:round"
d="M 164.38 161.33
L 164.38 160.05
"/>
<path style="stroke:black; fill:none; stroke-linecap:round; stroke-linejoin:round"
d="M 168.74 161.33
L 168.74 160.05
"/>
<text x="173.10" y="165.67" style="font-size:3.82; fill:black; text-anchor:middle
">1040</text>
<path style="stroke:black; fill:none; stroke-linecap:round; stroke-linejoin:round"
d="M 173.10 161.33
L 173.10 158.78
"/>
<path style="stroke:black; fill:none; stroke-linecap:round; stroke-linejoin:round"
d="M 177.45 161.33
L 177.45 160.05
"/>
<path style="stroke:black; fill:none; stroke-linecap:round; stroke-linejoin:round"
d="M 181.81 161.33
L 181.81 160.05
"/>
<path style="stroke:black; fill:none; stroke-linecap:round; stroke-linejoin:round"
d="M 186.16 161.33
L 186.16 160.05
"/>
<path style="stroke:black; fill:none; stroke-linecap:round; stroke-linejoin:round"
d="M 190.52 161.33
L 190.52 160.05
"/>
<text x="194.87" y="165.67" style="font-size:3.82; fill:black; text-anchor:middle
">1060</text>
<path style="stroke:black; fill:none; stroke-linecap:round; stroke-linejoin:round"
d="M 194.87 161.33
L 194.87 158.78
"/>
<path style="stroke:black; fill:none; stroke-linecap:round; stroke-linejoin:round"
d="M 199.23 161.33
L 199.23 160.05
"/>
<path style="stroke:black; fill:none; stroke-linecap:round; stroke-linejoin:round"
d="M 203.58 161.33
L 203.58 160.05
"/>
<path style="stroke:black; fill:none; stroke-linecap:round; stroke-linejoin:round"
d="M 207.94 161.33
L 207.94 160.05
"/>
<path style="stroke:black; fill:none; stroke-linecap:round; stroke-linejoin:round"
d="M 212.29 161.33
L 212.29 160.05
"/>
<text x="216.65" y="165.67" style="font-size:3.82; fill:black; text-anchor:middle
">1080</text>
<path style="stroke:black; fill:none; stroke-linecap:round; stroke-linejoin:round"
d="M 216.65 161.33
L 216.65 158.78
"/>
<path style="stroke:black; fill:none; stroke-linecap:round; stroke-linejoin:round"
d="M 221.00 161.33
L 221.00 160.05
"/>
<path style="stroke:black; fill:none; stroke-linecap:round; stroke-linejoin:round"
d="M 225.36 161.33
L 225.36 160.05
"/>
<path style="stroke:black; fill:none; stroke-linecap:round; stroke-linejoin:round"
d="M 229.71 161.33
L 229.71 160.05
"/>
<path style="stroke:black; fill:none; stroke-linecap:round; stroke-linejoin:round"
d="M 234.07 161.33
L 234.07 160.05
"/>
<text x="238.42" y="165.67" style="font-size:3.82; fill:black; text-anchor:middle
">1100</text>
<path style="stroke:black; fill:none; stroke-linecap:round; stroke-linejoin:round"
d="M 238.42 161.33
L 238.42 158.78
"/>
<path style="stroke:black; fill:none; stroke-linecap:round; stroke-linejoin:round"
d="M 242.78 161.33
L 242.78 160.05
"/>
<text x="129.59" y="169.57" style="font-size:3.82; fill:black; text-anchor:middle
">Wavenumber/cm-1</text>
<path style="stroke:black; fill:none; stroke-linecap:round; stroke-linejoin:round"
d="M 16.31 154.20
L 74.00 154.20
L 74.00 154.19
L 74.00 154.20
L 74.11 154.20
L 74.11 154.18
L 74.11 154.20
L 74.22 154.20
L 74.22 154.18
L 74.22 154.20
L 74.45 154.20
L 74.45 154.17
L 74.45 154.20
L 74.68 154.20
L 74.68 154.15
L 74.68 154.20
L 74.90 154.20
L 74.90 154.13
L 74.90 154.20
L 75.24 154.20
L 75.24 154.09
L 75.24 154.20
L 75.58 154.20
L 75.58 154.04
L 75.58 154.20
L 75.92 154.20
L 75.92 153.97
L 75.92 154.20
L 76.38 154.20
L 76.38 153.86
L 76.38 154.20
L 76.94 154.20
L 76.94 153.72
L 76.94 154.20
L 77.40 154.20
L 77.40 153.52
L 77.40 154.20
L 77.96 154.20
L 77.96 153.24
L 77.96 154.20
L 78.64 154.20
L 78.64 152.87
L 78.64 154.20
L 79.21 154.20
L 79.21 152.37
L 79.21 154.20
L 79.89 154.20
L 79.89 151.72
L 79.89 154.20
L 80.68 154.20
L 80.68 150.86
L 80.68 154.20
L 81.48 154.20
L 81.48 149.76
L 81.48 154.20
L 82.27 154.20
L 82.27 148.35
L 82.27 154.20
L 83.18 154.20
L 83.18 146.58
L 83.18 154.20
L 84.08 154.20
L 84.08 144.38
L 84.08 154.20
L 84.99 154.20
L 84.99 141.68
L 84.99 154.20
L 86.01 154.20
L 86.01 138.40
L 86.01 154.20
L 87.03 154.20
L 87.03 134.49
L 87.03 154.20
L 88.16 154.20
L 88.16 129.88
L 88.16 154.20
L 89.30 154.20
L 89.30 124.53
L 89.30 154.20
L 90.43 154.20
L 90.43 118.41
L 90.43 154.20
L 91.68 154.20
L 91.68 111.51
L 91.68 154.20
L 92.92 154.20
L 92.92 103.88
L 92.92 154.20
L 94.28 154.20
L 94.28 95.58
L 94.28 154.20
L 95.64 154.20
L 95.64 86.73
L 95.64 154.20
L 97.00 154.20
L 97.00 77.51
L 97.00 154.20
L 98.48 154.20
L 98.48 68.12
L 98.48 154.20
L 99.95 154.20
L 99.95 58.83
L 99.95 154.20
L 101.42 154.20
L 101.42 49.96
L 101.42 154.20
L 103.01 154.20
L 103.01 41.86
L 103.01 154.20
L 104.60 154.20
L 104.60 34.89
L 104.60 154.20
L 106.30 154.20
L 106.30 29.44
L 106.30 154.20
L 108.00 154.20
L 108.00 25.88
L 108.00 154.20
L 109.70 154.20
L 109.70 24.57
L 109.70 154.20
L 111.51 154.20
L 111.51 25.79
L 111.51 154.20
L 113.32 154.20
L 113.32 29.76
L 113.32 154.20
L 115.25 154.20
L 115.25 36.63
L 115.25 154.20
L 117.18 154.20
L 117.18 46.43
L 117.18 154.20
L 119.10 154.20
L 119.10 59.07
L 119.10 154.20
L 121.14 154.20
L 121.14 74.36
L 121.14 154.20
L 123.18 154.20
L 123.18 91.98
L 123.18 154.20
L 125.22 154.20
L 125.22 111.51
L 125.22 154.20
L 127.38 154.20
L 127.38 132.44
L 127.38 154.20
L 131.80 154.20
L 131.80 132.23
L 131.80 154.20
L 134.06 154.20
L 134.06 110.68
L 134.06 154.20
L 136.33 154.20
L 136.33 90.16
L 136.33 154.20
L 138.71 154.20
L 138.71 71.24
L 138.71 154.20
L 141.09 154.20
L 141.09 54.40
L 141.09 154.20
L 143.47 154.20
L 143.47 40.05
L 143.47 154.20
L 145.96 154.20
L 145.96 28.47
L 145.96 154.20
L 148.57 154.20
L 148.57 19.84
L 148.57 154.20
L 151.06 154.20
L 151.06 14.21
L 151.06 154.20
L 153.67 154.20
L 153.67 11.52
L 153.67 154.20
L 156.39 154.20
L 156.39 11.61
L 156.39 154.20
L 159.11 154.20
L 159.11 14.22
L 159.11 154.20
L 161.83 154.20
L 161.83 19.04
L 161.83 154.20
L 164.55 154.20
L 164.55 25.71
L 164.55 154.20
L 167.38 154.20
L 167.38 33.83
L 167.38 154.20
L 170.33 154.20
L 170.33 43.01
L 170.33 154.20
L 173.28 154.20
L 173.28 52.87
L 173.28 154.20
L 176.22 154.20
"/>
<path style="stroke:black; fill:none; stroke-linecap:round; stroke-linejoin:round"
d="M 176.22 154.20
L 176.22 63.05
L 176.22 154.20
L 179.17 154.20
L 179.17 73.25
L 179.17 154.20
L 182.23 154.20
L 182.23 83.18
L 182.23 154.20
L 185.29 154.20
L 185.29 92.65
L 185.29 154.20
L 188.46 154.20
L 188.46 101.48
L 188.46 154.20
L 191.64 154.20
L 191.64 109.57
L 191.64 154.20
L 194.92 154.20
L 194.92 116.85
L 194.92 154.20
L 198.10 154.20
L 198.10 123.29
L 198.10 154.20
L 201.50 154.20
L 201.50 128.91
L 201.50 154.20
L 204.78 154.20
L 204.78 133.73
L 204.78 154.20
L 208.18 154.20
L 208.18 137.82
L 208.18 154.20
L 211.58 154.20
L 211.58 141.23
L 211.58 154.20
L 215.10 154.20
L 215.10 144.04
L 215.10 154.20
L 218.61 154.20
L 218.61 146.33
L 218.61 154.20
L 222.24 154.20
L 222.24 148.16
L 222.24 154.20
L 225.86 154.20
L 225.86 149.62
L 225.86 154.20
L 229.49 154.20
L 229.49 150.76
L 229.49 154.20
L 233.23 154.20
L 233.23 151.65
L 233.23 154.20
L 236.97 154.20
L 236.97 152.32
L 236.97 154.20
L 240.71 154.20
L 240.71 152.83
L 240.71 154.20
L 242.86 154.20
"/>
<path style="stroke:black; fill:none; stroke-linecap:round; stroke-linejoin:round"
d="M 16.31 154.20
L 16.31 11.52
"/>
<text x="15.97" y="155.64" style="font-size:3.82; fill:black; text-anchor:end
">0.000</text>
<path style="stroke:black; fill:none; stroke-linecap:round; stroke-linejoin:round"
d="M 16.31 154.20
L 18.86 154.20
"/>
<path style="stroke:black; fill:none; stroke-linecap:round; stroke-linejoin:round"
d="M 16.31 148.69
L 17.59 148.69
"/>
<path style="stroke:black; fill:none; stroke-linecap:round; stroke-linejoin:round"
d="M 16.31 143.19
L 17.59 143.19
"/>
<path style="stroke:black; fill:none; stroke-linecap:round; stroke-linejoin:round"
d="M 16.31 137.68
L 17.59 137.68
"/>
<path style="stroke:black; fill:none; stroke-linecap:round; stroke-linejoin:round"
d="M 16.31 132.18
L 17.59 132.18
"/>
<text x="15.97" y="128.12" style="font-size:3.82; fill:black; text-anchor:end
">0.002</text>
<path style="stroke:black; fill:none; stroke-linecap:round; stroke-linejoin:round"
d="M 16.31 126.67
L 18.86 126.67
"/>
<path style="stroke:black; fill:none; stroke-linecap:round; stroke-linejoin:round"
d="M 16.31 121.17
L 17.59 121.17
"/>
<path style="stroke:black; fill:none; stroke-linecap:round; stroke-linejoin:round"
d="M 16.31 115.66
L 17.59 115.66
"/>
<path style="stroke:black; fill:none; stroke-linecap:round; stroke-linejoin:round"
d="M 16.31 110.15
L 17.59 110.15
"/>
<path style="stroke:black; fill:none; stroke-linecap:round; stroke-linejoin:round"
d="M 16.31 104.65
L 17.59 104.65
"/>
<text x="15.97" y="100.59" style="font-size:3.82; fill:black; text-anchor:end
">0.004</text>
<path style="stroke:black; fill:none; stroke-linecap:round; stroke-linejoin:round"
d="M 16.31 99.14
L 18.86 99.14
"/>
<path style="stroke:black; fill:none; stroke-linecap:round; stroke-linejoin:round"
d="M 16.31 93.64
L 17.59 93.64
"/>
<path style="stroke:black; fill:none; stroke-linecap:round; stroke-linejoin:round"
d="M 16.31 88.13
L 17.59 88.13
"/>
<path style="stroke:black; fill:none; stroke-linecap:round; stroke-linejoin:round"
d="M 16.31 82.62
L 17.59 82.62
"/>
<path style="stroke:black; fill:none; stroke-linecap:round; stroke-linejoin:round"
d="M 16.31 77.12
L 17.59 77.12
"/>
<text x="15.97" y="73.06" style="font-size:3.82; fill:black; text-anchor:end
">0.006</text>
<path style="stroke:black; fill:none; stroke-linecap:round; stroke-linejoin:round"
d="M 16.31 71.61
L 18.86 71.61
"/>
<path style="stroke:black; fill:none; stroke-linecap:round; stroke-linejoin:round"
d="M 16.31 66.11
L 17.59 66.11
"/>
<path style="stroke:black; fill:none; stroke-linecap:round; stroke-linejoin:round"
d="M 16.31 60.60
L 17.59 60.60
"/>
<path style="stroke:black; fill:none; stroke-linecap:round; stroke-linejoin:round"
d="M 16.31 55.09
L 17.59 55.09
"/>
<path style="stroke:black; fill:none; stroke-linecap:round; stroke-linejoin:round"
d="M 16.31 49.59
L 17.59 49.59
"/>
<text x="15.97" y="45.53" style="font-size:3.82; fill:black; text-anchor:end
">0.008</text>
<path style="stroke:black; fill:none; stroke-linecap:round; stroke-linejoin:round"
d="M 16.31 44.08
L 18.86 44.08
"/>
<path style="stroke:black; fill:none; stroke-linecap:round; stroke-linejoin:round"
d="M 16.31 38.58
L 17.59 38.58
"/>
<path style="stroke:black; fill:none; stroke-linecap:round; stroke-linejoin:round"
d="M 16.31 33.07
L 17.59 33.07
"/>
<path style="stroke:black; fill:none; stroke-linecap:round; stroke-linejoin:round"
d="M 16.31 27.57
L 17.59 27.57
"/>
<path style="stroke:black; fill:none; stroke-linecap:round; stroke-linejoin:round"
d="M 16.31 22.06
L 17.59 22.06
"/>
<text x="15.97" y="18.00" style="font-size:3.82; fill:black; text-anchor:end
">0.010</text>
<path style="stroke:black; fill:none; stroke-linecap:round; stroke-linejoin:round"
d="M 16.31 16.55
L 18.86 16.55
"/>
<g transform="translate(4.10,82.86) rotate(270.0)">
<text x="0.00" y="0.00" style="font-size:3.82; fill:black; text-anchor:middle
">Normalized Intensity</text>
</g>
</svg>
