<?xml version="1.0" encoding="UTF-8" standalone="no"?>
<!DOCTYPE svg PUBLIC "-//W3C//DTD SVG 1.1//EN" "http://www.w3.org/Graphics/SVG/1.1/DTD/svg11.dtd">
<svg version="1.1" xmlns="http://www.w3.org/2000/svg" width="250.000 mm" height="170.000 mm">

<path style="stroke:black; fill:none; stroke-linecap:round; stroke-linejoin:round"
d="M 11.31 163.99
L 11.31 163.10
"/>
<path style="stroke:black; fill:none; stroke-linecap:round; stroke-linejoin:round"
d="M 11.31 163.99
L 245.05 163.99
"/>
<text x="15.80" y="167.00" style="font-size:2.65; fill:black; text-anchor:middle
">900</text>
<path style="stroke:black; fill:none; stroke-linecap:round; stroke-linejoin:round"
d="M 15.80 163.99
L 15.80 162.22
"/>
<path style="stroke:black; fill:none; stroke-linecap:round; stroke-linejoin:round"
d="M 20.30 163.99
L 20.30 163.10
"/>
<path style="stroke:black; fill:none; stroke-linecap:round; stroke-linejoin:round"
d="M 24.79 163.99
L 24.79 163.10
"/>
<path style="stroke:black; fill:none; stroke-linecap:round; stroke-linejoin:round"
d="M 29.28 163.99
L 29.28 163.10
"/>
<path style="stroke:black; fill:none; stroke-linecap:round; stroke-linejoin:round"
d="M 33.78 163.99
L 33.78 163.10
"/>
<text x="38.27" y="167.00" style="font-size:2.65; fill:black; text-anchor:middle
">920</text>
<path style="stroke:black; fill:none; stroke-linecap:round; stroke-linejoin:round"
d="M 38.27 163.99
L 38.27 162.22
"/>
<path style="stroke:black; fill:none; stroke-linecap:round; stroke-linejoin:round"
d="M 42.76 163.99
L 42.76 163.10
"/>
<path style="stroke:black; fill:none; stroke-linecap:round; stroke-linejoin:round"
d="M 47.26 163.99
L 47.26 163.10
"/>
<path style="stroke:black; fill:none; stroke-linecap:round; stroke-linejoin:round"
d="M 51.75 163.99
L 51.75 163.10
"/>
<path style="stroke:black; fill:none; stroke-linecap:round; stroke-linejoin:round"
d="M 56.24 163.99
L 56.24 163.10
"/>
<text x="60.74" y="167.00" style="font-size:2.65; fill:black; text-anchor:middle
">940</text>
<path style="stroke:black; fill:none; stroke-linecap:round; stroke-linejoin:round"
d="M 60.74 163.99
L 60.74 162.22
"/>
<path style="stroke:black; fill:none; stroke-linecap:round; stroke-linejoin:round"
d="M 65.23 163.99
L 65.23 163.10
"/>
<path style="stroke:black; fill:none; stroke-linecap:round; stroke-linejoin:round"
d="M 69.72 163.99
L 69.72 163.10
"/>
<path style="stroke:black; fill:none; stroke-linecap:round; stroke-linejoin:round"
d="M 74.22 163.99
L 74.22 163.10
"/>
<path style="stroke:black; fill:none; stroke-linecap:round; stroke-linejoin:round"
d="M 78.71 163.99
L 78.71 163.10
"/>
<text x="83.20" y="167.00" style="font-size:2.65; fill:black; text-anchor:middle
">960</text>
<path style="stroke:black; fill:none; stroke-linecap:round; stroke-linejoin:round"
d="M 83.20 163.99
L 83.20 162.22
"/>
<path style="stroke:black; fill:none; stroke-linecap:round; stroke-linejoin:round"
d="M 87.70 163.99
L 87.70 163.10
"/>
<path style="stroke:black; fill:none; stroke-linecap:round; stroke-linejoin:round"
d="M 92.19 163.99
L 92.19 163.10
"/>
<path style="stroke:black; fill:none; stroke-linecap:round; stroke-linejoin:round"
d="M 96.68 163.99
L 96.68 163.10
"/>
<path style="stroke:black; fill:none; stroke-linecap:round; stroke-linejoin:round"
d="M 101.18 163.99
L 101.18 163.10
"/>
<text x="105.67" y="167.00" style="font-size:2.65; fill:black; text-anchor:middle
">980</text>
<path style="stroke:black; fill:none; stroke-linecap:round; stroke-linejoin:round"
d="M 105.67 163.99
L 105.67 162.22
"/>
<path style="stroke:black; fill:none; stroke-linecap:round; stroke-linejoin:round"
d="M 110.16 163.99
L 110.16 163.10
"/>
<path style="stroke:black; fill:none; stroke-linecap:round; stroke-linejoin:round"
d="M 114.66 163.99
L 114.66 163.10
"/>
<path style="stroke:black; fill:none; stroke-linecap:round; stroke-linejoin:round"
d="M 119.15 163.99
L 119.15 163.10
"/>
<path style="stroke:black; fill:none; stroke-linecap:round; stroke-linejoin:round"
d="M 123.64 163.99
L 123.64 163.10
"/>
<text x="128.14" y="167.00" style="font-size:2.65; fill:black; text-anchor:middle
">1000</text>
<path style="stroke:black; fill:none; stroke-linecap:round; stroke-linejoin:round"
d="M 128.14 163.99
L 128.14 162.22
"/>
<path style="stroke:black; fill:none; stroke-linecap:round; stroke-linejoin:round"
d="M 132.63 163.99
L 132.63 163.10
"/>
<path style="stroke:black; fill:none; stroke-linecap:round; stroke-linejoin:round"
d="M 137.12 163.99
L 137.12 163.10
"/>
<path style="stroke:black; fill:none; stroke-linecap:round; stroke-linejoin:round"
d="M 141.62 163.99
L 141.62 163.10
"/>
<path style="stroke:black; fill:none; stroke-linecap:round; stroke-linejoin:round"
d="M 146.11 163.99
L 146.11 163.10
"/>
<text x="150.60" y="167.00" style="font-size:2.65; fill:black; text-anchor:middle
">1020</text>
<path style="stroke:black; fill:none; stroke-linecap:round; stroke-linejoin:round"
d="M 150.60 163.99
L 150.60 162.22
"/>
<path style="stroke:black; fill:none; stroke-linecap:round; stroke-linejoin:round"
d="M 155.10 163.99
L 155.10 163.10
"/>
<path style="stroke:black; fill:none; stroke-linecap:round; stroke-linejoin:round"
d="M 159.59 163.99
L 159.59 163.10
"/>
<path style="stroke:black; fill:none; stroke-linecap:round; stroke-linejoin:round"
d="M 164.08 163.99
L 164.08 163.10
"/>
<path style="stroke:black; fill:none; stroke-linecap:round; stroke-linejoin:round"
d="M 168.58 163.99
L 168.58 163.10
"/>
<text x="173.07" y="167.00" style="font-size:2.65; fill:black; text-anchor:middle
">1040</text>
<path style="stroke:black; fill:none; stroke-linecap:round; stroke-linejoin:round"
d="M 173.07 163.99
L 173.07 162.22
"/>
<path style="stroke:black; fill:none; stroke-linecap:round; stroke-linejoin:round"
d="M 177.56 163.99
L 177.56 163.10
"/>
<path style="stroke:black; fill:none; stroke-linecap:round; stroke-linejoin:round"
d="M 182.06 163.99
L 182.06 163.10
"/>
<path style="stroke:black; fill:none; stroke-linecap:round; stroke-linejoin:round"
d="M 186.55 163.99
L 186.55 163.10
"/>
<path style="stroke:black; fill:none; stroke-linecap:round; stroke-linejoin:round"
d="M 191.04 163.99
L 191.04 163.10
"/>
<text x="195.54" y="167.00" style="font-size:2.65; fill:black; text-anchor:middle
">1060</text>
<path style="stroke:black; fill:none; stroke-linecap:round; stroke-linejoin:round"
d="M 195.54 163.99
L 195.54 162.22
"/>
<path style="stroke:black; fill:none; stroke-linecap:round; stroke-linejoin:round"
d="M 200.03 163.99
L 200.03 163.10
"/>
<path style="stroke:black; fill:none; stroke-linecap:round; stroke-linejoin:round"
d="M 204.52 163.99
L 204.52 163.10
"/>
<path style="stroke:black; fill:none; stroke-linecap:round; stroke-linejoin:round"
d="M 209.02 163.99
L 209.02 163.10
"/>
<path style="stroke:black; fill:none; stroke-linecap:round; stroke-linejoin:round"
d="M 213.51 163.99
L 213.51 163.10
"/>
<text x="218.00" y="167.00" style="font-size:2.65; fill:black; text-anchor:middle
">1080</text>
<path style="stroke:black; fill:none; stroke-linecap:round; stroke-linejoin:round"
d="M 218.00 163.99
L 218.00 162.22
"/>
<path style="stroke:black; fill:none; stroke-linecap:round; stroke-linejoin:round"
d="M 222.50 163.99
L 222.50 163.10
"/>
<path style="stroke:black; fill:none; stroke-linecap:round; stroke-linejoin:round"
d="M 226.99 163.99
L 226.99 163.10
"/>
<path style="stroke:black; fill:none; stroke-linecap:round; stroke-linejoin:round"
d="M 231.48 163.99
L 231.48 163.10
"/>
<path style="stroke:black; fill:none; stroke-linecap:round; stroke-linejoin:round"
d="M 235.98 163.99
L 235.98 163.10
"/>
<text x="240.47" y="167.00" style="font-size:2.65; fill:black; text-anchor:middle
">1100</text>
<path style="stroke:black; fill:none; stroke-linecap:round; stroke-linejoin:round"
d="M 240.47 163.99
L 240.47 162.22
"/>
<path style="stroke:black; fill:none; stroke-linecap:round; stroke-linejoin:round"
d="M 244.96 163.99
L 244.96 163.10
"/>
<text x="128.18" y="169.70" style="font-size:2.65; fill:black; text-anchor:middle
">Wavenumber/cm-1</text>
<path style="stroke:black; fill:none; stroke-linecap:round; stroke-linejoin:round"
d="M 11.31 156.61
L 104.50 156.61
L 104.50 43.87
L 104.50 156.61
L 104.62 156.61
L 104.62 42.62
L 104.62 156.61
L 104.85 156.61
L 104.85 40.20
L 104.85 156.61
L 105.20 156.61
L 105.20 36.83
L 105.20 156.61
L 105.67 156.61
L 105.67 32.76
L 105.67 156.61
L 106.26 156.61
L 106.26 28.35
L 106.26 156.61
L 106.96 156.61
L 106.96 24.01
L 106.96 156.61
L 107.66 156.61
L 107.66 20.18
L 107.66 156.61
L 108.60 156.61
L 108.60 17.34
L 108.60 156.61
L 109.65 156.61
L 109.65 15.94
L 109.65 156.61
L 110.70 156.61
L 110.70 16.41
L 110.70 156.61
L 111.99 156.61
L 111.99 19.13
L 111.99 156.61
L 113.27 156.61
L 113.27 24.39
L 113.27 156.61
L 114.79 156.61
L 114.79 32.38
L 114.79 156.61
L 116.31 156.61
L 116.31 43.20
L 116.31 156.61
L 118.07 156.61
L 118.07 56.79
L 118.07 156.61
L 119.82 156.61
L 119.82 73.00
L 119.82 156.61
L 121.69 156.61
L 121.69 91.51
L 121.69 156.61
L 123.80 156.61
L 123.80 111.93
L 123.80 156.61
L 125.90 156.61
L 125.90 133.74
L 125.90 156.61
L 128.12 156.61
L 128.12 156.37
L 128.12 156.61
L 130.46 156.61
L 130.46 133.71
L 130.46 156.61
L 132.92 156.61
L 132.92 111.46
L 132.92 156.61
L 135.61 156.61
L 135.61 90.27
L 135.61 156.61
L 138.30 156.61
L 138.30 70.71
L 138.30 156.61
L 141.10 156.61
L 141.10 53.30
L 141.10 156.61
L 144.02 156.61
L 144.02 38.46
L 144.02 156.61
L 147.06 156.61
L 147.06 26.49
L 147.06 156.61
L 150.11 156.61
L 150.11 17.56
L 150.11 156.61
L 153.38 156.61
L 153.38 11.74
L 153.38 156.61
L 156.77 156.61
L 156.77 8.96
L 156.77 156.61
L 160.28 156.61
L 160.28 9.05
L 160.28 156.61
L 163.90 156.61
L 163.90 11.76
L 163.90 156.61
L 167.53 156.61
L 167.53 16.75
L 167.53 156.61
L 171.39 156.61
L 171.39 23.65
L 171.39 156.61
L 175.36 156.61
L 175.36 32.05
L 175.36 156.61
L 179.34 156.61
L 179.34 41.55
L 179.34 156.61
L 183.55 156.61
L 183.55 51.75
L 183.55 156.61
L 187.76 156.61
L 187.76 62.29
L 187.76 156.61
L 192.20 156.61
L 192.20 72.84
L 192.20 156.61
L 196.64 156.61
L 196.64 83.12
L 196.64 156.61
L 201.32 156.61
L 201.32 92.91
L 201.32 156.61
L 206.00 156.61
L 206.00 102.05
L 206.00 156.61
L 210.79 156.61
L 210.79 110.43
L 210.79 156.61
L 215.70 156.61
L 215.70 117.96
L 215.70 156.61
L 220.85 156.61
L 220.85 124.63
L 220.85 156.61
L 225.99 156.61
L 225.99 130.44
L 225.99 156.61
L 231.25 156.61
L 231.25 135.43
L 231.25 156.61
L 236.63 156.61
L 236.63 139.66
L 236.63 156.61
L 242.13 156.61
L 242.13 143.19
L 242.13 156.61
L 245.05 156.61
"/>
<path style="stroke:black; fill:none; stroke-linecap:round; stroke-linejoin:round"
d="M 11.31 156.61
L 11.31 8.96
"/>
<text x="11.07" y="157.61" style="font-size:2.65; fill:black; text-anchor:end
">0.000</text>
<path style="stroke:black; fill:none; stroke-linecap:round; stroke-linejoin:round"
d="M 11.31 156.61
L 13.08 156.61
"/>
<path style="stroke:black; fill:none; stroke-linecap:round; stroke-linejoin:round"
d="M 11.31 153.76
L 12.20 153.76
"/>
<path style="stroke:black; fill:none; stroke-linecap:round; stroke-linejoin:round"
d="M 11.31 150.91
L 12.20 150.91
"/>
<path style="stroke:black; fill:none; stroke-linecap:round; stroke-linejoin:round"
d="M 11.31 148.06
L 12.20 148.06
"/>
<path style="stroke:black; fill:none; stroke-linecap:round; stroke-linejoin:round"
d="M 11.31 145.21
L 12.20 145.21
"/>
<text x="11.07" y="143.37" style="font-size:2.65; fill:black; text-anchor:end
">0.001</text>
<path style="stroke:black; fill:none; stroke-linecap:round; stroke-linejoin:round"
d="M 11.31 142.37
L 13.08 142.37
"/>
<path style="stroke:black; fill:none; stroke-linecap:round; stroke-linejoin:round"
d="M 11.31 139.52
L 12.20 139.52
"/>
<path style="stroke:black; fill:none; stroke-linecap:round; stroke-linejoin:round"
d="M 11.31 136.67
L 12.20 136.67
"/>
<path style="stroke:black; fill:none; stroke-linecap:round; stroke-linejoin:round"
d="M 11.31 133.82
L 12.20 133.82
"/>
<path style="stroke:black; fill:none; stroke-linecap:round; stroke-linejoin:round"
d="M 11.31 130.97
L 12.20 130.97
"/>
<text x="11.07" y="129.12" style="font-size:2.65; fill:black; text-anchor:end
">0.002</text>
<path style="stroke:black; fill:none; stroke-linecap:round; stroke-linejoin:round"
d="M 11.31 128.12
L 13.08 128.12
"/>
<path style="stroke:black; fill:none; stroke-linecap:round; stroke-linejoin:round"
d="M 11.31 125.27
L 12.20 125.27
"/>
<path style="stroke:black; fill:none; stroke-linecap:round; stroke-linejoin:round"
d="M 11.31 122.42
L 12.20 122.42
"/>
<path style="stroke:black; fill:none; stroke-linecap:round; stroke-linejoin:round"
d="M 11.31 119.58
L 12.20 119.58
"/>
<path style="stroke:black; fill:none; stroke-linecap:round; stroke-linejoin:round"
d="M 11.31 116.73
L 12.20 116.73
"/>
<text x="11.07" y="114.88" style="font-size:2.65; fill:black; text-anchor:end
">0.003</text>
<path style="stroke:black; fill:none; stroke-linecap:round; stroke-linejoin:round"
d="M 11.31 113.88
L 13.08 113.88
"/>
<path style="stroke:black; fill:none; stroke-linecap:round; stroke-linejoin:round"
d="M 11.31 111.03
L 12.20 111.03
"/>
<path style="stroke:black; fill:none; stroke-linecap:round; stroke-linejoin:round"
d="M 11.31 108.18
L 12.20 108.18
"/>
<path style="stroke:black; fill:none; stroke-linecap:round; stroke-linejoin:round"
d="M 11.31 105.33
L 12.20 105.33
"/>
<path style="stroke:black; fill:none; stroke-linecap:round; stroke-linejoin:round"
d="M 11.31 102.48
L 12.20 102.48
"/>
<text x="11.07" y="100.64" style="font-size:2.65; fill:black; text-anchor:end
">0.004</text>
<path style="stroke:black; fill:none; stroke-linecap:round; stroke-linejoin:round"
d="M 11.31 99.63
L 13.08 99.63
"/>
<path style="stroke:black; fill:none; stroke-linecap:round; stroke-linejoin:round"
d="M 11.31 96.79
L 12.20 96.79
"/>
<path style="stroke:black; fill:none; stroke-linecap:round; stroke-linejoin:round"
d="M 11.31 93.94
L 12.20 93.94
"/>
<path style="stroke:black; fill:none; stroke-linecap:round; stroke-linejoin:round"
d="M 11.31 91.09
L 12.20 91.09
"/>
<path style="stroke:black; fill:none; stroke-linecap:round; stroke-linejoin:round"
d="M 11.31 88.24
L 12.20 88.24
"/>
<text x="11.07" y="86.39" style="font-size:2.65; fill:black; text-anchor:end
">0.005</text>
<path style="stroke:black; fill:none; stroke-linecap:round; stroke-linejoin:round"
d="M 11.31 85.39
L 13.08 85.39
"/>
<path style="stroke:black; fill:none; stroke-linecap:round; stroke-linejoin:round"
d="M 11.31 82.54
L 12.20 82.54
"/>
<path style="stroke:black; fill:none; stroke-linecap:round; stroke-linejoin:round"
d="M 11.31 79.69
L 12.20 79.69
"/>
<path style="stroke:black; fill:none; stroke-linecap:round; stroke-linejoin:round"
d="M 11.31 76.84
L 12.20 76.84
"/>
<path style="stroke:black; fill:none; stroke-linecap:round; stroke-linejoin:round"
d="M 11.31 74.00
L 12.20 74.00
"/>
<text x="11.07" y="72.15" style="font-size:2.65; fill:black; text-anchor:end
">0.006</text>
<path style="stroke:black; fill:none; stroke-linecap:round; stroke-linejoin:round"
d="M 11.31 71.15
L 13.08 71.15
"/>
<path style="stroke:black; fill:none; stroke-linecap:round; stroke-linejoin:round"
d="M 11.31 68.30
L 12.20 68.30
"/>
<path style="stroke:black; fill:none; stroke-linecap:round; stroke-linejoin:round"
d="M 11.31 65.45
L 12.20 65.45
"/>
<path style="stroke:black; fill:none; stroke-linecap:round; stroke-linejoin:round"
d="M 11.31 62.60
L 12.20 62.60
"/>
<path style="stroke:black; fill:none; stroke-linecap:round; stroke-linejoin:round"
d="M 11.31 59.75
L 12.20 59.75
"/>
<text x="11.07" y="57.90" style="font-size:2.65; fill:black; text-anchor:end
">0.007</text>
<path style="stroke:black; fill:none; stroke-linecap:round; stroke-linejoin:round"
d="M 11.31 56.90
L 13.08 56.90
"/>
<path style="stroke:black; fill:none; stroke-linecap:round; stroke-linejoin:round"
d="M 11.31 54.05
L 12.20 54.05
"/>
<path style="stroke:black; fill:none; stroke-linecap:round; stroke-linejoin:round"
d="M 11.31 51.21
L 12.20 51.21
"/>
<path style="stroke:black; fill:none; stroke-linecap:round; stroke-linejoin:round"
d="M 11.31 48.36
L 12.20 48.36
"/>
<path style="stroke:black; fill:none; stroke-linecap:round; stroke-linejoin:round"
d="M 11.31 45.51
L 12.20 45.51
"/>
<text x="11.07" y="43.66" style="font-size:2.65; fill:black; text-anchor:end
">0.008</text>
<path style="stroke:black; fill:none; stroke-linecap:round; stroke-linejoin:round"
d="M 11.31 42.66
L 13.08 42.66
"/>
<path style="stroke:black; fill:none; stroke-linecap:round; stroke-linejoin:round"
d="M 11.31 39.81
L 12.20 39.81
"/>
<path style="stroke:black; fill:none; stroke-linecap:round; stroke-linejoin:round"
d="M 11.31 36.96
L 12.20 36.96
"/>
<path style="stroke:black; fill:none; stroke-linecap:round; stroke-linejoin:round"
d="M 11.31 34.11
L 12.20 34.11
"/>
<path style="stroke:black; fill:none; stroke-linecap:round; stroke-linejoin:round"
d="M 11.31 31.26
L 12.20 31.26
"/>
<text x="11.07" y="29.42" style="font-size:2.65; fill:black; text-anchor:end
">0.009</text>
<path style="stroke:black; fill:none; stroke-linecap:round; stroke-linejoin:round"
d="M 11.31 28.41
L 13.08 28.41
"/>
<path style="stroke:black; fill:none; stroke-linecap:round; stroke-linejoin:round"
d="M 11.31 25.57
L 12.20 25.57
"/>
<path style="stroke:black; fill:none; stroke-linecap:round; stroke-linejoin:round"
d="M 11.31 22.72
L 12.20 22.72
"/>
<path style="stroke:black; fill:none; stroke-linecap:round; stroke-linejoin:round"
d="M 11.31 19.87
L 12.20 19.87
"/>
<path style="stroke:black; fill:none; stroke-linecap:round; stroke-linejoin:round"
d="M 11.31 17.02
L 12.20 17.02
"/>
<text x="11.07" y="15.17" style="font-size:2.65; fill:black; text-anchor:end
">0.010</text>
<path style="stroke:black; fill:none; stroke-linecap:round; stroke-linejoin:round"
d="M 11.31 14.17
L 13.08 14.17
"/>
<path style="stroke:black; fill:none; stroke-linecap:round; stroke-linejoin:round"
d="M 11.31 11.32
L 12.20 11.32
"/>
<g transform="translate(2.84,82.79) rotate(270.0)">
<text x="0.00" y="0.00" style="font-size:2.65; fill:black; text-anchor:middle
">Normalized Intensity</text>
</g>
</svg>
