<?xml version="1.0" encoding="UTF-8" standalone="no"?>
<!DOCTYPE svg PUBLIC "-//W3C//DTD SVG 1.1//EN" "http://www.w3.org/Graphics/SVG/1.1/DTD/svg11.dtd">
<svg version="1.1" xmlns="http://www.w3.org/2000/svg" width="250.000 mm" height="170.000 mm">

<path style="stroke:black; fill:none; stroke-linecap:round; stroke-linejoin:round"
d="M 11.31 163.99
L 11.31 163.10
"/>
<path style="stroke:black; fill:none; stroke-linecap:round; stroke-linejoin:round"
d="M 11.31 163.99
L 245.05 163.99
"/>
<text x="15.80" y="167.00" style="font-size:2.65; fill:black; text-anchor:middle
">900</text>
<path style="stroke:black; fill:none; stroke-linecap:round; stroke-linejoin:round"
d="M 15.80 163.99
L 15.80 162.22
"/>
<path style="stroke:black; fill:none; stroke-linecap:round; stroke-linejoin:round"
d="M 20.30 163.99
L 20.30 163.10
"/>
<path style="stroke:black; fill:none; stroke-linecap:round; stroke-linejoin:round"
d="M 24.79 163.99
L 24.79 163.10
"/>
<path style="stroke:black; fill:none; stroke-linecap:round; stroke-linejoin:round"
d="M 29.28 163.99
L 29.28 163.10
"/>
<path style="stroke:black; fill:none; stroke-linecap:round; stroke-linejoin:round"
d="M 33.78 163.99
L 33.78 163.10
"/>
<text x="38.27" y="167.00" style="font-size:2.65; fill:black; text-anchor:middle
">920</text>
<path style="stroke:black; fill:none; stroke-linecap:round; stroke-linejoin:round"
d="M 38.27 163.99
L 38.27 162.22
"/>
<path style="stroke:black; fill:none; stroke-linecap:round; stroke-linejoin:round"
d="M 42.76 163.99
L 42.76 163.10
"/>
<path style="stroke:black; fill:none; stroke-linecap:round; stroke-linejoin:round"
d="M 47.26 163.99
L 47.26 163.10
"/>
<path style="stroke:black; fill:none; stroke-linecap:round; stroke-linejoin:round"
d="M 51.75 163.99
L 51.75 163.10
"/>
<path style="stroke:black; fill:none; stroke-linecap:round; stroke-linejoin:round"
d="M 56.24 163.99
L 56.24 163.10
"/>
<text x="60.74" y="167.00" style="font-size:2.65; fill:black; text-anchor:middle
">940</text>
<path style="stroke:black; fill:none; stroke-linecap:round; stroke-linejoin:round"
d="M 60.74 163.99
L 60.74 162.22
"/>
<path style="stroke:black; fill:none; stroke-linecap:round; stroke-linejoin:round"
d="M 65.23 163.99
L 65.23 163.10
"/>
<path style="stroke:black; fill:none; stroke-linecap:round; stroke-linejoin:round"
d="M 69.72 163.99
L 69.72 163.10
"/>
<path style="stroke:black; fill:none; stroke-linecap:round; stroke-linejoin:round"
d="M 74.22 163.99
L 74.22 163.10
"/>
<path style="stroke:black; fill:none; stroke-linecap:round; stroke-linejoin:round"
d="M 78.71 163.99
L 78.71 163.10
"/>
<text x="83.20" y="167.00" style="font-size:2.65; fill:black; text-anchor:middle
">960</text>
<path style="stroke:black; fill:none; stroke-linecap:round; stroke-linejoin:round"
d="M 83.20 163.99
L 83.20 162.22
"/>
<path style="stroke:black; fill:none; stroke-linecap:round; stroke-linejoin:round"
d="M 87.70 163.99
L 87.70 163.10
"/>
<path style="stroke:black; fill:none; stroke-linecap:round; stroke-linejoin:round"
d="M 92.19 163.99
L 92.19 163.10
"/>
<path style="stroke:black; fill:none; stroke-linecap:round; stroke-linejoin:round"
d="M 96.68 163.99
L 96.68 163.10
"/>
<path style="stroke:black; fill:none; stroke-linecap:round; stroke-linejoin:round"
d="M 101.18 163.99
L 101.18 163.10
"/>
<text x="105.67" y="167.00" style="font-size:2.65; fill:black; text-anchor:middle
">980</text>
<path style="stroke:black; fill:none; stroke-linecap:round; stroke-linejoin:round"
d="M 105.67 163.99
L 105.67 162.22
"/>
<path style="stroke:black; fill:none; stroke-linecap:round; stroke-linejoin:round"
d="M 110.16 163.99
L 110.16 163.10
"/>
<path style="stroke:black; fill:none; stroke-linecap:round; stroke-linejoin:round"
d="M 114.66 163.99
L 114.66 163.10
"/>
<path style="stroke:black; fill:none; stroke-linecap:round; stroke-linejoin:round"
d="M 119.15 163.99
L 119.15 163.10
"/>
<path style="stroke:black; fill:none; stroke-linecap:round; stroke-linejoin:round"
d="M 123.64 163.99
L 123.64 163.10
"/>
<text x="128.14" y="167.00" style="font-size:2.65; fill:black; text-anchor:middle
">1000</text>
<path style="stroke:black; fill:none; stroke-linecap:round; stroke-linejoin:round"
d="M 128.14 163.99
L 128.14 162.22
"/>
<path style="stroke:black; fill:none; stroke-linecap:round; stroke-linejoin:round"
d="M 132.63 163.99
L 132.63 163.10
"/>
<path style="stroke:black; fill:none; stroke-linecap:round; stroke-linejoin:round"
d="M 137.12 163.99
L 137.12 163.10
"/>
<path style="stroke:black; fill:none; stroke-linecap:round; stroke-linejoin:round"
d="M 141.62 163.99
L 141.62 163.10
"/>
<path style="stroke:black; fill:none; stroke-linecap:round; stroke-linejoin:round"
d="M 146.11 163.99
L 146.11 163.10
"/>
<text x="150.60" y="167.00" style="font-size:2.65; fill:black; text-anchor:middle
">1020</text>
<path style="stroke:black; fill:none; stroke-linecap:round; stroke-linejoin:round"
d="M 150.60 163.99
L 150.60 162.22
"/>
<path style="stroke:black; fill:none; stroke-linecap:round; stroke-linejoin:round"
d="M 155.10 163.99
L 155.10 163.10
"/>
<path style="stroke:black; fill:none; stroke-linecap:round; stroke-linejoin:round"
d="M 159.59 163.99
L 159.59 163.10
"/>
<path style="stroke:black; fill:none; stroke-linecap:round; stroke-linejoin:round"
d="M 164.08 163.99
L 164.08 163.10
"/>
<path style="stroke:black; fill:none; stroke-linecap:round; stroke-linejoin:round"
d="M 168.58 163.99
L 168.58 163.10
"/>
<text x="173.07" y="167.00" style="font-size:2.65; fill:black; text-anchor:middle
">1040</text>
<path style="stroke:black; fill:none; stroke-linecap:round; stroke-linejoin:round"
d="M 173.07 163.99
L 173.07 162.22
"/>
<path style="stroke:black; fill:none; stroke-linecap:round; stroke-linejoin:round"
d="M 177.56 163.99
L 177.56 163.10
"/>
<path style="stroke:black; fill:none; stroke-linecap:round; stroke-linejoin:round"
d="M 182.06 163.99
L 182.06 163.10
"/>
<path style="stroke:black; fill:none; stroke-linecap:round; stroke-linejoin:round"
d="M 186.55 163.99
L 186.55 163.10
"/>
<path style="stroke:black; fill:none; stroke-linecap:round; stroke-linejoin:round"
d="M 191.04 163.99
L 191.04 163.10
"/>
<text x="195.54" y="167.00" style="font-size:2.65; fill:black; text-anchor:middle
">1060</text>
<path style="stroke:black; fill:none; stroke-linecap:round; stroke-linejoin:round"
d="M 195.54 163.99
L 195.54 162.22
"/>
<path style="stroke:black; fill:none; stroke-linecap:round; stroke-linejoin:round"
d="M 200.03 163.99
L 200.03 163.10
"/>
<path style="stroke:black; fill:none; stroke-linecap:round; stroke-linejoin:round"
d="M 204.52 163.99
L 204.52 163.10
"/>
<path style="stroke:black; fill:none; stroke-linecap:round; stroke-linejoin:round"
d="M 209.02 163.99
L 209.02 163.10
"/>
<path style="stroke:black; fill:none; stroke-linecap:round; stroke-linejoin:round"
d="M 213.51 163.99
L 213.51 163.10
"/>
<text x="218.00" y="167.00" style="font-size:2.65; fill:black; text-anchor:middle
">1080</text>
<path style="stroke:black; fill:none; stroke-linecap:round; stroke-linejoin:round"
d="M 218.00 163.99
L 218.00 162.22
"/>
<path style="stroke:black; fill:none; stroke-linecap:round; stroke-linejoin:round"
d="M 222.50 163.99
L 222.50 163.10
"/>
<path style="stroke:black; fill:none; stroke-linecap:round; stroke-linejoin:round"
d="M 226.99 163.99
L 226.99 163.10
"/>
<path style="stroke:black; fill:none; stroke-linecap:round; stroke-linejoin:round"
d="M 231.48 163.99
L 231.48 163.10
"/>
<path style="stroke:black; fill:none; stroke-linecap:round; stroke-linejoin:round"
d="M 235.98 163.99
L 235.98 163.10
"/>
<text x="240.47" y="167.00" style="font-size:2.65; fill:black; text-anchor:middle
">1100</text>
<path style="stroke:black; fill:none; stroke-linecap:round; stroke-linejoin:round"
d="M 240.47 163.99
L 240.47 162.22
"/>
<path style="stroke:black; fill:none; stroke-linecap:round; stroke-linejoin:round"
d="M 244.96 163.99
L 244.96 163.10
"/>
<text x="128.18" y="169.70" style="font-size:2.65; fill:black; text-anchor:middle
">Wavenumber/cm-1</text>
<path style="stroke:black; fill:none; stroke-linecap:round; stroke-linejoin:round"
d="M 11.31 156.61
L 108.24 156.61
L 108.24 82.74
L 108.24 156.61
L 108.36 156.61
L 108.36 8.96
L 108.36 156.61
L 108.48 156.61
L 108.48 98.72
L 108.48 156.61
L 108.60 156.61
L 108.60 67.16
L 108.60 156.61
L 108.83 156.61
L 108.83 106.31
L 108.83 156.61
L 108.95 156.61
L 108.95 60.21
L 108.95 156.61
L 109.30 156.61
L 109.30 113.43
L 109.30 156.61
L 109.41 156.61
L 109.41 54.23
L 109.41 156.61
L 109.88 156.61
L 109.88 119.98
L 109.88 156.61
L 110.12 156.61
L 110.12 49.55
L 110.12 156.61
L 110.58 156.61
L 110.58 125.89
L 110.58 156.61
L 110.82 156.61
L 110.82 46.50
L 110.82 156.61
L 111.40 156.61
L 111.40 131.15
L 111.40 156.61
L 111.75 156.61
L 111.75 45.37
L 111.75 156.61
L 112.45 156.61
L 112.45 135.74
L 112.45 156.61
L 112.80 156.61
L 112.80 46.42
L 112.80 156.61
L 113.51 156.61
L 113.51 139.70
L 113.51 156.61
L 113.97 156.61
L 113.97 49.83
L 113.97 156.61
L 114.79 156.61
L 114.79 143.05
L 114.79 156.61
L 115.26 156.61
L 115.26 55.73
L 115.26 156.61
L 116.20 156.61
L 116.20 145.86
L 116.20 156.61
L 116.66 156.61
L 116.66 64.13
L 116.66 156.61
L 117.72 156.61
L 117.72 148.18
L 117.72 156.61
L 118.30 156.61
L 118.30 74.98
L 118.30 156.61
L 119.35 156.61
L 119.35 150.07
L 119.35 156.61
L 119.94 156.61
L 119.94 88.10
L 119.94 156.61
L 121.22 156.61
L 121.22 151.59
L 121.22 156.61
L 121.81 156.61
L 121.81 103.22
L 121.81 156.61
L 123.09 156.61
L 123.09 152.80
L 123.09 156.61
L 123.80 156.61
L 123.80 119.97
L 123.80 156.61
L 125.20 156.61
L 125.20 153.75
L 125.20 156.61
L 125.90 156.61
L 125.90 137.94
L 125.90 156.61
L 127.42 156.61
L 127.42 154.48
L 127.42 156.61
L 129.76 156.61
L 129.76 155.04
L 129.76 156.61
L 130.46 156.61
L 130.46 137.76
L 130.46 156.61
L 132.21 156.61
L 132.21 155.47
L 132.21 156.61
L 133.03 156.61
L 133.03 119.26
L 133.03 156.61
L 134.79 156.61
L 134.79 155.79
L 134.79 156.61
L 135.72 156.61
L 135.72 101.66
L 135.72 156.61
L 137.48 156.61
L 137.48 156.02
L 137.48 156.61
L 138.41 156.61
L 138.41 85.42
L 138.41 156.61
L 140.40 156.61
L 140.40 156.20
L 140.40 156.61
L 141.34 156.61
L 141.34 70.97
L 141.34 156.61
L 143.44 156.61
L 143.44 156.32
L 143.44 156.61
L 144.49 156.61
L 144.49 58.65
L 144.49 156.61
L 146.60 156.61
L 146.60 156.41
L 146.60 156.61
L 147.65 156.61
L 147.65 48.72
L 147.65 156.61
L 149.87 156.61
L 149.87 156.47
L 149.87 156.61
L 150.92 156.61
L 150.92 41.31
L 150.92 156.61
L 153.26 156.61
L 153.26 156.52
L 153.26 156.61
L 154.43 156.61
L 154.43 36.48
L 154.43 156.61
L 156.77 156.61
L 156.77 156.55
L 156.77 156.61
L 158.06 156.61
L 158.06 34.17
L 158.06 156.61
L 160.51 156.61
L 160.51 156.57
L 160.51 156.61
L 161.80 156.61
L 161.80 34.25
L 161.80 156.61
L 164.25 156.61
L 164.25 156.58
L 164.25 156.61
L 165.66 156.61
L 165.66 36.49
L 165.66 156.61
L 168.23 156.61
L 168.23 156.59
L 168.23 156.61
L 169.63 156.61
L 169.63 40.63
L 169.63 156.61
L 172.32 156.61
L 172.32 156.60
L 172.32 156.61
L 173.72 156.61
L 173.72 46.35
L 173.72 156.61
L 176.53 156.61
L 176.53 156.60
L 176.53 156.61
L 178.05 156.61
L 178.05 53.32
L 178.05 156.61
L 180.97 156.61
L 180.97 156.60
L 180.97 156.61
L 182.38 156.61
L 182.38 61.20
L 182.38 156.61
L 186.94 156.61
L 186.94 69.66
L 186.94 156.61
L 191.62 156.61
"/>
<path style="stroke:black; fill:none; stroke-linecap:round; stroke-linejoin:round"
d="M 191.62 156.61
L 191.62 78.40
L 191.62 156.61
L 196.41 156.61
L 196.41 87.14
L 196.41 156.61
L 201.32 156.61
L 201.32 95.67
L 201.32 156.61
L 206.47 156.61
L 206.47 103.79
L 206.47 156.61
L 211.61 156.61
L 211.61 111.37
L 211.61 156.61
L 216.99 156.61
L 216.99 118.31
L 216.99 156.61
L 222.48 156.61
L 222.48 124.56
L 222.48 156.61
L 228.10 156.61
L 228.10 130.09
L 228.10 156.61
L 233.83 156.61
L 233.83 134.91
L 233.83 156.61
L 239.79 156.61
L 239.79 139.05
L 239.79 156.61
L 245.05 156.61
"/>
<path style="stroke:black; fill:none; stroke-linecap:round; stroke-linejoin:round"
d="M 11.31 156.61
L 11.31 8.96
"/>
<text x="11.07" y="157.61" style="font-size:2.65; fill:black; text-anchor:end
">0.000</text>
<path style="stroke:black; fill:none; stroke-linecap:round; stroke-linejoin:round"
d="M 11.31 156.61
L 13.08 156.61
"/>
<path style="stroke:black; fill:none; stroke-linecap:round; stroke-linejoin:round"
d="M 11.31 151.88
L 12.20 151.88
"/>
<path style="stroke:black; fill:none; stroke-linecap:round; stroke-linejoin:round"
d="M 11.31 147.16
L 12.20 147.16
"/>
<path style="stroke:black; fill:none; stroke-linecap:round; stroke-linejoin:round"
d="M 11.31 142.44
L 12.20 142.44
"/>
<path style="stroke:black; fill:none; stroke-linecap:round; stroke-linejoin:round"
d="M 11.31 137.71
L 12.20 137.71
"/>
<text x="11.07" y="133.99" style="font-size:2.65; fill:black; text-anchor:end
">0.002</text>
<path style="stroke:black; fill:none; stroke-linecap:round; stroke-linejoin:round"
d="M 11.31 132.99
L 13.08 132.99
"/>
<path style="stroke:black; fill:none; stroke-linecap:round; stroke-linejoin:round"
d="M 11.31 128.26
L 12.20 128.26
"/>
<path style="stroke:black; fill:none; stroke-linecap:round; stroke-linejoin:round"
d="M 11.31 123.54
L 12.20 123.54
"/>
<path style="stroke:black; fill:none; stroke-linecap:round; stroke-linejoin:round"
d="M 11.31 118.81
L 12.20 118.81
"/>
<path style="stroke:black; fill:none; stroke-linecap:round; stroke-linejoin:round"
d="M 11.31 114.09
L 12.20 114.09
"/>
<text x="11.07" y="110.36" style="font-size:2.65; fill:black; text-anchor:end
">0.004</text>
<path style="stroke:black; fill:none; stroke-linecap:round; stroke-linejoin:round"
d="M 11.31 109.36
L 13.08 109.36
"/>
<path style="stroke:black; fill:none; stroke-linecap:round; stroke-linejoin:round"
d="M 11.31 104.64
L 12.20 104.64
"/>
<path style="stroke:black; fill:none; stroke-linecap:round; stroke-linejoin:round"
d="M 11.31 99.91
L 12.20 99.91
"/>
<path style="stroke:black; fill:none; stroke-linecap:round; stroke-linejoin:round"
d="M 11.31 95.19
L 12.20 95.19
"/>
<path style="stroke:black; fill:none; stroke-linecap:round; stroke-linejoin:round"
d="M 11.31 90.47
L 12.20 90.47
"/>
<text x="11.07" y="86.74" style="font-size:2.65; fill:black; text-anchor:end
">0.006</text>
<path style="stroke:black; fill:none; stroke-linecap:round; stroke-linejoin:round"
d="M 11.31 85.74
L 13.08 85.74
"/>
<path style="stroke:black; fill:none; stroke-linecap:round; stroke-linejoin:round"
d="M 11.31 81.02
L 12.20 81.02
"/>
<path style="stroke:black; fill:none; stroke-linecap:round; stroke-linejoin:round"
d="M 11.31 76.29
L 12.20 76.29
"/>
<path style="stroke:black; fill:none; stroke-linecap:round; stroke-linejoin:round"
d="M 11.31 71.57
L 12.20 71.57
"/>
<path style="stroke:black; fill:none; stroke-linecap:round; stroke-linejoin:round"
d="M 11.31 66.84
L 12.20 66.84
"/>
<text x="11.07" y="63.12" style="font-size:2.65; fill:black; text-anchor:end
">0.008</text>
<path style="stroke:black; fill:none; stroke-linecap:round; stroke-linejoin:round"
d="M 11.31 62.12
L 13.08 62.12
"/>
<path style="stroke:black; fill:none; stroke-linecap:round; stroke-linejoin:round"
d="M 11.31 57.39
L 12.20 57.39
"/>
<path style="stroke:black; fill:none; stroke-linecap:round; stroke-linejoin:round"
d="M 11.31 52.67
L 12.20 52.67
"/>
<path style="stroke:black; fill:none; stroke-linecap:round; stroke-linejoin:round"
d="M 11.31 47.94
L 12.20 47.94
"/>
<path style="stroke:black; fill:none; stroke-linecap:round; stroke-linejoin:round"
d="M 11.31 43.22
L 12.20 43.22
"/>
<text x="11.07" y="39.50" style="font-size:2.65; fill:black; text-anchor:end
">0.010</text>
<path style="stroke:black; fill:none; stroke-linecap:round; stroke-linejoin:round"
d="M 11.31 38.49
L 13.08 38.49
"/>
<path style="stroke:black; fill:none; stroke-linecap:round; stroke-linejoin:round"
d="M 11.31 33.77
L 12.20 33.77
"/>
<path style="stroke:black; fill:none; stroke-linecap:round; stroke-linejoin:round"
d="M 11.31 29.05
L 12.20 29.05
"/>
<path style="stroke:black; fill:none; stroke-linecap:round; stroke-linejoin:round"
d="M 11.31 24.32
L 12.20 24.32
"/>
<path style="stroke:black; fill:none; stroke-linecap:round; stroke-linejoin:round"
d="M 11.31 19.60
L 12.20 19.60
"/>
<text x="11.07" y="15.87" style="font-size:2.65; fill:black; text-anchor:end
">0.012</text>
<path style="stroke:black; fill:none; stroke-linecap:round; stroke-linejoin:round"
d="M 11.31 14.87
L 13.08 14.87
"/>
<path style="stroke:black; fill:none; stroke-linecap:round; stroke-linejoin:round"
d="M 11.31 10.15
L 12.20 10.15
"/>
<g transform="translate(2.84,82.79) rotate(270.0)">
<text x="0.00" y="0.00" style="font-size:2.65; fill:black; text-anchor:middle
">Normalized Intensity</text>
</g>
</svg>
