<?xml version="1.0" encoding="UTF-8" standalone="no"?>
<!DOCTYPE svg PUBLIC "-//W3C//DTD SVG 1.1//EN" "http://www.w3.org/Graphics/SVG/1.1/DTD/svg11.dtd">
<svg version="1.1" xmlns="http://www.w3.org/2000/svg" width="250.000 mm" height="170.000 mm">

<path style="stroke:black; fill:none; stroke-linecap:round; stroke-linejoin:round"
d="M 11.31 163.99
L 11.31 163.10
"/>
<path style="stroke:black; fill:none; stroke-linecap:round; stroke-linejoin:round"
d="M 11.31 163.99
L 245.05 163.99
"/>
<text x="15.80" y="167.00" style="font-size:2.65; fill:black; text-anchor:middle
">900</text>
<path style="stroke:black; fill:none; stroke-linecap:round; stroke-linejoin:round"
d="M 15.80 163.99
L 15.80 162.22
"/>
<path style="stroke:black; fill:none; stroke-linecap:round; stroke-linejoin:round"
d="M 20.30 163.99
L 20.30 163.10
"/>
<path style="stroke:black; fill:none; stroke-linecap:round; stroke-linejoin:round"
d="M 24.79 163.99
L 24.79 163.10
"/>
<path style="stroke:black; fill:none; stroke-linecap:round; stroke-linejoin:round"
d="M 29.28 163.99
L 29.28 163.10
"/>
<path style="stroke:black; fill:none; stroke-linecap:round; stroke-linejoin:round"
d="M 33.78 163.99
L 33.78 163.10
"/>
<text x="38.27" y="167.00" style="font-size:2.65; fill:black; text-anchor:middle
">920</text>
<path style="stroke:black; fill:none; stroke-linecap:round; stroke-linejoin:round"
d="M 38.27 163.99
L 38.27 162.22
"/>
<path style="stroke:black; fill:none; stroke-linecap:round; stroke-linejoin:round"
d="M 42.76 163.99
L 42.76 163.10
"/>
<path style="stroke:black; fill:none; stroke-linecap:round; stroke-linejoin:round"
d="M 47.26 163.99
L 47.26 163.10
"/>
<path style="stroke:black; fill:none; stroke-linecap:round; stroke-linejoin:round"
d="M 51.75 163.99
L 51.75 163.10
"/>
<path style="stroke:black; fill:none; stroke-linecap:round; stroke-linejoin:round"
d="M 56.24 163.99
L 56.24 163.10
"/>
<text x="60.74" y="167.00" style="font-size:2.65; fill:black; text-anchor:middle
">940</text>
<path style="stroke:black; fill:none; stroke-linecap:round; stroke-linejoin:round"
d="M 60.74 163.99
L 60.74 162.22
"/>
<path style="stroke:black; fill:none; stroke-linecap:round; stroke-linejoin:round"
d="M 65.23 163.99
L 65.23 163.10
"/>
<path style="stroke:black; fill:none; stroke-linecap:round; stroke-linejoin:round"
d="M 69.72 163.99
L 69.72 163.10
"/>
<path style="stroke:black; fill:none; stroke-linecap:round; stroke-linejoin:round"
d="M 74.22 163.99
L 74.22 163.10
"/>
<path style="stroke:black; fill:none; stroke-linecap:round; stroke-linejoin:round"
d="M 78.71 163.99
L 78.71 163.10
"/>
<text x="83.20" y="167.00" style="font-size:2.65; fill:black; text-anchor:middle
">960</text>
<path style="stroke:black; fill:none; stroke-linecap:round; stroke-linejoin:round"
d="M 83.20 163.99
L 83.20 162.22
"/>
<path style="stroke:black; fill:none; stroke-linecap:round; stroke-linejoin:round"
d="M 87.70 163.99
L 87.70 163.10
"/>
<path style="stroke:black; fill:none; stroke-linecap:round; stroke-linejoin:round"
d="M 92.19 163.99
L 92.19 163.10
"/>
<path style="stroke:black; fill:none; stroke-linecap:round; stroke-linejoin:round"
d="M 96.68 163.99
L 96.68 163.10
"/>
<path style="stroke:black; fill:none; stroke-linecap:round; stroke-linejoin:round"
d="M 101.18 163.99
L 101.18 163.10
"/>
<text x="105.67" y="167.00" style="font-size:2.65; fill:black; text-anchor:middle
">980</text>
<path style="stroke:black; fill:none; stroke-linecap:round; stroke-linejoin:round"
d="M 105.67 163.99
L 105.67 162.22
"/>
<path style="stroke:black; fill:none; stroke-linecap:round; stroke-linejoin:round"
d="M 110.16 163.99
L 110.16 163.10
"/>
<path style="stroke:black; fill:none; stroke-linecap:round; stroke-linejoin:round"
d="M 114.66 163.99
L 114.66 163.10
"/>
<path style="stroke:black; fill:none; stroke-linecap:round; stroke-linejoin:round"
d="M 119.15 163.99
L 119.15 163.10
"/>
<path style="stroke:black; fill:none; stroke-linecap:round; stroke-linejoin:round"
d="M 123.64 163.99
L 123.64 163.10
"/>
<text x="128.14" y="167.00" style="font-size:2.65; fill:black; text-anchor:middle
">1000</text>
<path style="stroke:black; fill:none; stroke-linecap:round; stroke-linejoin:round"
d="M 128.14 163.99
L 128.14 162.22
"/>
<path style="stroke:black; fill:none; stroke-linecap:round; stroke-linejoin:round"
d="M 132.63 163.99
L 132.63 163.10
"/>
<path style="stroke:black; fill:none; stroke-linecap:round; stroke-linejoin:round"
d="M 137.12 163.99
L 137.12 163.10
"/>
<path style="stroke:black; fill:none; stroke-linecap:round; stroke-linejoin:round"
d="M 141.62 163.99
L 141.62 163.10
"/>
<path style="stroke:black; fill:none; stroke-linecap:round; stroke-linejoin:round"
d="M 146.11 163.99
L 146.11 163.10
"/>
<text x="150.60" y="167.00" style="font-size:2.65; fill:black; text-anchor:middle
">1020</text>
<path style="stroke:black; fill:none; stroke-linecap:round; stroke-linejoin:round"
d="M 150.60 163.99
L 150.60 162.22
"/>
<path style="stroke:black; fill:none; stroke-linecap:round; stroke-linejoin:round"
d="M 155.10 163.99
L 155.10 163.10
"/>
<path style="stroke:black; fill:none; stroke-linecap:round; stroke-linejoin:round"
d="M 159.59 163.99
L 159.59 163.10
"/>
<path style="stroke:black; fill:none; stroke-linecap:round; stroke-linejoin:round"
d="M 164.08 163.99
L 164.08 163.10
"/>
<path style="stroke:black; fill:none; stroke-linecap:round; stroke-linejoin:round"
d="M 168.58 163.99
L 168.58 163.10
"/>
<text x="173.07" y="167.00" style="font-size:2.65; fill:black; text-anchor:middle
">1040</text>
<path style="stroke:black; fill:none; stroke-linecap:round; stroke-linejoin:round"
d="M 173.07 163.99
L 173.07 162.22
"/>
<path style="stroke:black; fill:none; stroke-linecap:round; stroke-linejoin:round"
d="M 177.56 163.99
L 177.56 163.10
"/>
<path style="stroke:black; fill:none; stroke-linecap:round; stroke-linejoin:round"
d="M 182.06 163.99
L 182.06 163.10
"/>
<path style="stroke:black; fill:none; stroke-linecap:round; stroke-linejoin:round"
d="M 186.55 163.99
L 186.55 163.10
"/>
<path style="stroke:black; fill:none; stroke-linecap:round; stroke-linejoin:round"
d="M 191.04 163.99
L 191.04 163.10
"/>
<text x="195.54" y="167.00" style="font-size:2.65; fill:black; text-anchor:middle
">1060</text>
<path style="stroke:black; fill:none; stroke-linecap:round; stroke-linejoin:round"
d="M 195.54 163.99
L 195.54 162.22
"/>
<path style="stroke:black; fill:none; stroke-linecap:round; stroke-linejoin:round"
d="M 200.03 163.99
L 200.03 163.10
"/>
<path style="stroke:black; fill:none; stroke-linecap:round; stroke-linejoin:round"
d="M 204.52 163.99
L 204.52 163.10
"/>
<path style="stroke:black; fill:none; stroke-linecap:round; stroke-linejoin:round"
d="M 209.02 163.99
L 209.02 163.10
"/>
<path style="stroke:black; fill:none; stroke-linecap:round; stroke-linejoin:round"
d="M 213.51 163.99
L 213.51 163.10
"/>
<text x="218.00" y="167.00" style="font-size:2.65; fill:black; text-anchor:middle
">1080</text>
<path style="stroke:black; fill:none; stroke-linecap:round; stroke-linejoin:round"
d="M 218.00 163.99
L 218.00 162.22
"/>
<path style="stroke:black; fill:none; stroke-linecap:round; stroke-linejoin:round"
d="M 222.50 163.99
L 222.50 163.10
"/>
<path style="stroke:black; fill:none; stroke-linecap:round; stroke-linejoin:round"
d="M 226.99 163.99
L 226.99 163.10
"/>
<path style="stroke:black; fill:none; stroke-linecap:round; stroke-linejoin:round"
d="M 231.48 163.99
L 231.48 163.10
"/>
<path style="stroke:black; fill:none; stroke-linecap:round; stroke-linejoin:round"
d="M 235.98 163.99
L 235.98 163.10
"/>
<text x="240.47" y="167.00" style="font-size:2.65; fill:black; text-anchor:middle
">1100</text>
<path style="stroke:black; fill:none; stroke-linecap:round; stroke-linejoin:round"
d="M 240.47 163.99
L 240.47 162.22
"/>
<path style="stroke:black; fill:none; stroke-linecap:round; stroke-linejoin:round"
d="M 244.96 163.99
L 244.96 163.10
"/>
<text x="128.18" y="169.70" style="font-size:2.65; fill:black; text-anchor:middle
">Wavenumber/cm-1</text>
<path style="stroke:black; fill:none; stroke-linecap:round; stroke-linejoin:round"
d="M 11.31 156.61
L 114.56 156.61
L 114.56 8.96
L 114.56 156.61
L 114.68 156.61
L 114.68 87.00
L 114.68 156.61
L 114.79 156.61
L 114.79 80.98
L 114.79 156.61
L 115.03 156.61
L 115.03 91.07
L 115.03 156.61
L 115.14 156.61
L 115.14 81.69
L 115.14 156.61
L 115.61 156.61
L 115.61 95.79
L 115.61 156.61
L 115.84 156.61
L 115.84 84.01
L 115.84 156.61
L 116.43 156.61
L 116.43 100.97
L 116.43 156.61
L 116.66 156.61
L 116.66 88.02
L 116.66 156.61
L 117.48 156.61
L 117.48 106.39
L 117.48 156.61
L 117.72 156.61
L 117.72 93.74
L 117.72 156.61
L 118.65 156.61
L 118.65 111.87
L 118.65 156.61
L 118.88 156.61
L 118.88 101.11
L 118.88 156.61
L 120.05 156.61
L 120.05 117.25
L 120.05 156.61
L 120.41 156.61
L 120.41 110.03
L 120.41 156.61
L 121.57 156.61
L 121.57 122.41
L 121.57 156.61
L 122.04 156.61
L 122.04 120.31
L 122.04 156.61
L 123.45 156.61
L 123.45 127.25
L 123.45 156.61
L 123.80 156.61
L 123.80 131.70
L 123.80 156.61
L 125.43 156.61
L 125.43 131.70
L 125.43 156.61
L 125.90 156.61
L 125.90 143.91
L 125.90 156.61
L 127.65 156.61
L 127.65 135.73
L 127.65 156.61
L 129.99 156.61
L 129.99 139.30
L 129.99 156.61
L 130.58 156.61
L 130.58 143.79
L 130.58 156.61
L 132.68 156.61
L 132.68 142.42
L 132.68 156.61
L 133.27 156.61
L 133.27 131.22
L 133.27 156.61
L 135.49 156.61
L 135.49 145.11
L 135.49 156.61
L 136.07 156.61
L 136.07 119.25
L 136.07 156.61
L 138.41 156.61
L 138.41 147.39
L 138.41 156.61
L 139.11 156.61
L 139.11 108.21
L 139.11 156.61
L 141.69 156.61
L 141.69 149.30
L 141.69 156.61
L 142.39 156.61
L 142.39 98.38
L 142.39 156.61
L 145.08 156.61
L 145.08 150.88
L 145.08 156.61
L 145.90 156.61
L 145.90 90.01
L 145.90 156.61
L 148.70 156.61
L 148.70 152.16
L 148.70 156.61
L 149.52 156.61
L 149.52 83.26
L 149.52 156.61
L 152.56 156.61
L 152.56 153.20
L 152.56 156.61
L 153.38 156.61
L 153.38 78.22
L 153.38 156.61
L 156.54 156.61
L 156.54 154.02
L 156.54 156.61
L 157.47 156.61
L 157.47 74.94
L 157.47 156.61
L 160.75 156.61
L 160.75 154.66
L 160.75 156.61
L 161.68 156.61
L 161.68 73.37
L 161.68 156.61
L 165.19 156.61
L 165.19 155.16
L 165.19 156.61
L 166.24 156.61
L 166.24 73.42
L 166.24 156.61
L 169.87 156.61
L 169.87 155.54
L 169.87 156.61
L 170.92 156.61
L 170.92 74.94
L 170.92 156.61
L 174.66 156.61
L 174.66 155.83
L 174.66 156.61
L 175.71 156.61
L 175.71 77.76
L 175.71 156.61
L 179.69 156.61
L 179.69 156.05
L 179.69 156.61
L 180.86 156.61
L 180.86 81.65
L 180.86 156.61
L 184.95 156.61
L 184.95 156.21
L 184.95 156.61
L 186.12 156.61
L 186.12 86.38
L 186.12 156.61
L 190.33 156.61
L 190.33 156.33
L 190.33 156.61
L 191.62 156.61
L 191.62 91.74
L 191.62 156.61
L 195.94 156.61
L 195.94 156.41
L 195.94 156.61
L 197.23 156.61
L 197.23 97.49
L 197.23 156.61
L 201.79 156.61
L 201.79 156.47
L 201.79 156.61
L 203.19 156.61
L 203.19 103.43
L 203.19 156.61
L 207.87 156.61
L 207.87 156.52
L 207.87 156.61
L 209.27 156.61
L 209.27 109.38
L 209.27 156.61
L 214.07 156.61
L 214.07 156.55
L 214.07 156.61
L 215.59 156.61
L 215.59 115.18
L 215.59 156.61
L 220.61 156.61
L 220.61 156.57
L 220.61 156.61
L 222.02 156.61
L 222.02 120.70
L 222.02 156.61
L 227.16 156.61
L 227.16 156.58
L 227.16 156.61
L 228.68 156.61
L 228.68 125.85
L 228.68 156.61
L 234.06 156.61
"/>
<path style="stroke:black; fill:none; stroke-linecap:round; stroke-linejoin:round"
d="M 234.06 156.61
L 234.06 156.59
L 234.06 156.61
L 235.58 156.61
L 235.58 130.57
L 235.58 156.61
L 241.08 156.61
L 241.08 156.60
L 241.08 156.61
L 242.71 156.61
L 242.71 134.82
L 242.71 156.61
L 245.05 156.61
"/>
<path style="stroke:black; fill:none; stroke-linecap:round; stroke-linejoin:round"
d="M 11.31 156.61
L 11.31 8.96
"/>
<text x="11.07" y="157.61" style="font-size:2.65; fill:black; text-anchor:end
">0.000</text>
<path style="stroke:black; fill:none; stroke-linecap:round; stroke-linejoin:round"
d="M 11.31 156.61
L 13.08 156.61
"/>
<path style="stroke:black; fill:none; stroke-linecap:round; stroke-linejoin:round"
d="M 11.31 153.40
L 12.20 153.40
"/>
<path style="stroke:black; fill:none; stroke-linecap:round; stroke-linejoin:round"
d="M 11.31 150.18
L 12.20 150.18
"/>
<path style="stroke:black; fill:none; stroke-linecap:round; stroke-linejoin:round"
d="M 11.31 146.97
L 12.20 146.97
"/>
<path style="stroke:black; fill:none; stroke-linecap:round; stroke-linejoin:round"
d="M 11.31 143.76
L 12.20 143.76
"/>
<text x="11.07" y="141.55" style="font-size:2.65; fill:black; text-anchor:end
">0.002</text>
<path style="stroke:black; fill:none; stroke-linecap:round; stroke-linejoin:round"
d="M 11.31 140.55
L 13.08 140.55
"/>
<path style="stroke:black; fill:none; stroke-linecap:round; stroke-linejoin:round"
d="M 11.31 137.34
L 12.20 137.34
"/>
<path style="stroke:black; fill:none; stroke-linecap:round; stroke-linejoin:round"
d="M 11.31 134.12
L 12.20 134.12
"/>
<path style="stroke:black; fill:none; stroke-linecap:round; stroke-linejoin:round"
d="M 11.31 130.91
L 12.20 130.91
"/>
<path style="stroke:black; fill:none; stroke-linecap:round; stroke-linejoin:round"
d="M 11.31 127.70
L 12.20 127.70
"/>
<text x="11.07" y="125.49" style="font-size:2.65; fill:black; text-anchor:end
">0.004</text>
<path style="stroke:black; fill:none; stroke-linecap:round; stroke-linejoin:round"
d="M 11.31 124.49
L 13.08 124.49
"/>
<path style="stroke:black; fill:none; stroke-linecap:round; stroke-linejoin:round"
d="M 11.31 121.28
L 12.20 121.28
"/>
<path style="stroke:black; fill:none; stroke-linecap:round; stroke-linejoin:round"
d="M 11.31 118.06
L 12.20 118.06
"/>
<path style="stroke:black; fill:none; stroke-linecap:round; stroke-linejoin:round"
d="M 11.31 114.85
L 12.20 114.85
"/>
<path style="stroke:black; fill:none; stroke-linecap:round; stroke-linejoin:round"
d="M 11.31 111.64
L 12.20 111.64
"/>
<text x="11.07" y="109.43" style="font-size:2.65; fill:black; text-anchor:end
">0.006</text>
<path style="stroke:black; fill:none; stroke-linecap:round; stroke-linejoin:round"
d="M 11.31 108.43
L 13.08 108.43
"/>
<path style="stroke:black; fill:none; stroke-linecap:round; stroke-linejoin:round"
d="M 11.31 105.21
L 12.20 105.21
"/>
<path style="stroke:black; fill:none; stroke-linecap:round; stroke-linejoin:round"
d="M 11.31 102.00
L 12.20 102.00
"/>
<path style="stroke:black; fill:none; stroke-linecap:round; stroke-linejoin:round"
d="M 11.31 98.79
L 12.20 98.79
"/>
<path style="stroke:black; fill:none; stroke-linecap:round; stroke-linejoin:round"
d="M 11.31 95.58
L 12.20 95.58
"/>
<text x="11.07" y="93.37" style="font-size:2.65; fill:black; text-anchor:end
">0.008</text>
<path style="stroke:black; fill:none; stroke-linecap:round; stroke-linejoin:round"
d="M 11.31 92.37
L 13.08 92.37
"/>
<path style="stroke:black; fill:none; stroke-linecap:round; stroke-linejoin:round"
d="M 11.31 89.15
L 12.20 89.15
"/>
<path style="stroke:black; fill:none; stroke-linecap:round; stroke-linejoin:round"
d="M 11.31 85.94
L 12.20 85.94
"/>
<path style="stroke:black; fill:none; stroke-linecap:round; stroke-linejoin:round"
d="M 11.31 82.73
L 12.20 82.73
"/>
<path style="stroke:black; fill:none; stroke-linecap:round; stroke-linejoin:round"
d="M 11.31 79.52
L 12.20 79.52
"/>
<text x="11.07" y="77.31" style="font-size:2.65; fill:black; text-anchor:end
">0.010</text>
<path style="stroke:black; fill:none; stroke-linecap:round; stroke-linejoin:round"
d="M 11.31 76.30
L 13.08 76.30
"/>
<path style="stroke:black; fill:none; stroke-linecap:round; stroke-linejoin:round"
d="M 11.31 73.09
L 12.20 73.09
"/>
<path style="stroke:black; fill:none; stroke-linecap:round; stroke-linejoin:round"
d="M 11.31 69.88
L 12.20 69.88
"/>
<path style="stroke:black; fill:none; stroke-linecap:round; stroke-linejoin:round"
d="M 11.31 66.67
L 12.20 66.67
"/>
<path style="stroke:black; fill:none; stroke-linecap:round; stroke-linejoin:round"
d="M 11.31 63.46
L 12.20 63.46
"/>
<text x="11.07" y="61.25" style="font-size:2.65; fill:black; text-anchor:end
">0.012</text>
<path style="stroke:black; fill:none; stroke-linecap:round; stroke-linejoin:round"
d="M 11.31 60.24
L 13.08 60.24
"/>
<path style="stroke:black; fill:none; stroke-linecap:round; stroke-linejoin:round"
d="M 11.31 57.03
L 12.20 57.03
"/>
<path style="stroke:black; fill:none; stroke-linecap:round; stroke-linejoin:round"
d="M 11.31 53.82
L 12.20 53.82
"/>
<path style="stroke:black; fill:none; stroke-linecap:round; stroke-linejoin:round"
d="M 11.31 50.61
L 12.20 50.61
"/>
<path style="stroke:black; fill:none; stroke-linecap:round; stroke-linejoin:round"
d="M 11.31 47.40
L 12.20 47.40
"/>
<text x="11.07" y="45.18" style="font-size:2.65; fill:black; text-anchor:end
">0.014</text>
<path style="stroke:black; fill:none; stroke-linecap:round; stroke-linejoin:round"
d="M 11.31 44.18
L 13.08 44.18
"/>
<path style="stroke:black; fill:none; stroke-linecap:round; stroke-linejoin:round"
d="M 11.31 40.97
L 12.20 40.97
"/>
<path style="stroke:black; fill:none; stroke-linecap:round; stroke-linejoin:round"
d="M 11.31 37.76
L 12.20 37.76
"/>
<path style="stroke:black; fill:none; stroke-linecap:round; stroke-linejoin:round"
d="M 11.31 34.55
L 12.20 34.55
"/>
<path style="stroke:black; fill:none; stroke-linecap:round; stroke-linejoin:round"
d="M 11.31 31.33
L 12.20 31.33
"/>
<text x="11.07" y="29.12" style="font-size:2.65; fill:black; text-anchor:end
">0.016</text>
<path style="stroke:black; fill:none; stroke-linecap:round; stroke-linejoin:round"
d="M 11.31 28.12
L 13.08 28.12
"/>
<path style="stroke:black; fill:none; stroke-linecap:round; stroke-linejoin:round"
d="M 11.31 24.91
L 12.20 24.91
"/>
<path style="stroke:black; fill:none; stroke-linecap:round; stroke-linejoin:round"
d="M 11.31 21.70
L 12.20 21.70
"/>
<path style="stroke:black; fill:none; stroke-linecap:round; stroke-linejoin:round"
d="M 11.31 18.49
L 12.20 18.49
"/>
<path style="stroke:black; fill:none; stroke-linecap:round; stroke-linejoin:round"
d="M 11.31 15.27
L 12.20 15.27
"/>
<text x="11.07" y="13.06" style="font-size:2.65; fill:black; text-anchor:end
">0.018</text>
<path style="stroke:black; fill:none; stroke-linecap:round; stroke-linejoin:round"
d="M 11.31 12.06
L 13.08 12.06
"/>
<g transform="translate(2.84,82.79) rotate(270.0)">
<text x="0.00" y="0.00" style="font-size:2.65; fill:black; text-anchor:middle
">Normalized Intensity</text>
</g>
</svg>
