<?xml version="1.0" encoding="UTF-8" standalone="no"?>
<!DOCTYPE svg PUBLIC "-//W3C//DTD SVG 1.1//EN" "http://www.w3.org/Graphics/SVG/1.1/DTD/svg11.dtd">
<svg version="1.1" xmlns="http://www.w3.org/2000/svg" width="250.000 mm" height="170.000 mm">

<path style="stroke:black; fill:none; stroke-linecap:round; stroke-linejoin:round"
d="M 11.31 163.99
L 11.31 163.10
"/>
<path style="stroke:black; fill:none; stroke-linecap:round; stroke-linejoin:round"
d="M 11.31 163.99
L 245.05 163.99
"/>
<text x="15.80" y="167.00" style="font-size:2.65; fill:black; text-anchor:middle
">900</text>
<path style="stroke:black; fill:none; stroke-linecap:round; stroke-linejoin:round"
d="M 15.80 163.99
L 15.80 162.22
"/>
<path style="stroke:black; fill:none; stroke-linecap:round; stroke-linejoin:round"
d="M 20.30 163.99
L 20.30 163.10
"/>
<path style="stroke:black; fill:none; stroke-linecap:round; stroke-linejoin:round"
d="M 24.79 163.99
L 24.79 163.10
"/>
<path style="stroke:black; fill:none; stroke-linecap:round; stroke-linejoin:round"
d="M 29.28 163.99
L 29.28 163.10
"/>
<path style="stroke:black; fill:none; stroke-linecap:round; stroke-linejoin:round"
d="M 33.78 163.99
L 33.78 163.10
"/>
<text x="38.27" y="167.00" style="font-size:2.65; fill:black; text-anchor:middle
">920</text>
<path style="stroke:black; fill:none; stroke-linecap:round; stroke-linejoin:round"
d="M 38.27 163.99
L 38.27 162.22
"/>
<path style="stroke:black; fill:none; stroke-linecap:round; stroke-linejoin:round"
d="M 42.76 163.99
L 42.76 163.10
"/>
<path style="stroke:black; fill:none; stroke-linecap:round; stroke-linejoin:round"
d="M 47.26 163.99
L 47.26 163.10
"/>
<path style="stroke:black; fill:none; stroke-linecap:round; stroke-linejoin:round"
d="M 51.75 163.99
L 51.75 163.10
"/>
<path style="stroke:black; fill:none; stroke-linecap:round; stroke-linejoin:round"
d="M 56.24 163.99
L 56.24 163.10
"/>
<text x="60.74" y="167.00" style="font-size:2.65; fill:black; text-anchor:middle
">940</text>
<path style="stroke:black; fill:none; stroke-linecap:round; stroke-linejoin:round"
d="M 60.74 163.99
L 60.74 162.22
"/>
<path style="stroke:black; fill:none; stroke-linecap:round; stroke-linejoin:round"
d="M 65.23 163.99
L 65.23 163.10
"/>
<path style="stroke:black; fill:none; stroke-linecap:round; stroke-linejoin:round"
d="M 69.72 163.99
L 69.72 163.10
"/>
<path style="stroke:black; fill:none; stroke-linecap:round; stroke-linejoin:round"
d="M 74.22 163.99
L 74.22 163.10
"/>
<path style="stroke:black; fill:none; stroke-linecap:round; stroke-linejoin:round"
d="M 78.71 163.99
L 78.71 163.10
"/>
<text x="83.20" y="167.00" style="font-size:2.65; fill:black; text-anchor:middle
">960</text>
<path style="stroke:black; fill:none; stroke-linecap:round; stroke-linejoin:round"
d="M 83.20 163.99
L 83.20 162.22
"/>
<path style="stroke:black; fill:none; stroke-linecap:round; stroke-linejoin:round"
d="M 87.70 163.99
L 87.70 163.10
"/>
<path style="stroke:black; fill:none; stroke-linecap:round; stroke-linejoin:round"
d="M 92.19 163.99
L 92.19 163.10
"/>
<path style="stroke:black; fill:none; stroke-linecap:round; stroke-linejoin:round"
d="M 96.68 163.99
L 96.68 163.10
"/>
<path style="stroke:black; fill:none; stroke-linecap:round; stroke-linejoin:round"
d="M 101.18 163.99
L 101.18 163.10
"/>
<text x="105.67" y="167.00" style="font-size:2.65; fill:black; text-anchor:middle
">980</text>
<path style="stroke:black; fill:none; stroke-linecap:round; stroke-linejoin:round"
d="M 105.67 163.99
L 105.67 162.22
"/>
<path style="stroke:black; fill:none; stroke-linecap:round; stroke-linejoin:round"
d="M 110.16 163.99
L 110.16 163.10
"/>
<path style="stroke:black; fill:none; stroke-linecap:round; stroke-linejoin:round"
d="M 114.66 163.99
L 114.66 163.10
"/>
<path style="stroke:black; fill:none; stroke-linecap:round; stroke-linejoin:round"
d="M 119.15 163.99
L 119.15 163.10
"/>
<path style="stroke:black; fill:none; stroke-linecap:round; stroke-linejoin:round"
d="M 123.64 163.99
L 123.64 163.10
"/>
<text x="128.14" y="167.00" style="font-size:2.65; fill:black; text-anchor:middle
">1000</text>
<path style="stroke:black; fill:none; stroke-linecap:round; stroke-linejoin:round"
d="M 128.14 163.99
L 128.14 162.22
"/>
<path style="stroke:black; fill:none; stroke-linecap:round; stroke-linejoin:round"
d="M 132.63 163.99
L 132.63 163.10
"/>
<path style="stroke:black; fill:none; stroke-linecap:round; stroke-linejoin:round"
d="M 137.12 163.99
L 137.12 163.10
"/>
<path style="stroke:black; fill:none; stroke-linecap:round; stroke-linejoin:round"
d="M 141.62 163.99
L 141.62 163.10
"/>
<path style="stroke:black; fill:none; stroke-linecap:round; stroke-linejoin:round"
d="M 146.11 163.99
L 146.11 163.10
"/>
<text x="150.60" y="167.00" style="font-size:2.65; fill:black; text-anchor:middle
">1020</text>
<path style="stroke:black; fill:none; stroke-linecap:round; stroke-linejoin:round"
d="M 150.60 163.99
L 150.60 162.22
"/>
<path style="stroke:black; fill:none; stroke-linecap:round; stroke-linejoin:round"
d="M 155.10 163.99
L 155.10 163.10
"/>
<path style="stroke:black; fill:none; stroke-linecap:round; stroke-linejoin:round"
d="M 159.59 163.99
L 159.59 163.10
"/>
<path style="stroke:black; fill:none; stroke-linecap:round; stroke-linejoin:round"
d="M 164.08 163.99
L 164.08 163.10
"/>
<path style="stroke:black; fill:none; stroke-linecap:round; stroke-linejoin:round"
d="M 168.58 163.99
L 168.58 163.10
"/>
<text x="173.07" y="167.00" style="font-size:2.65; fill:black; text-anchor:middle
">1040</text>
<path style="stroke:black; fill:none; stroke-linecap:round; stroke-linejoin:round"
d="M 173.07 163.99
L 173.07 162.22
"/>
<path style="stroke:black; fill:none; stroke-linecap:round; stroke-linejoin:round"
d="M 177.56 163.99
L 177.56 163.10
"/>
<path style="stroke:black; fill:none; stroke-linecap:round; stroke-linejoin:round"
d="M 182.06 163.99
L 182.06 163.10
"/>
<path style="stroke:black; fill:none; stroke-linecap:round; stroke-linejoin:round"
d="M 186.55 163.99
L 186.55 163.10
"/>
<path style="stroke:black; fill:none; stroke-linecap:round; stroke-linejoin:round"
d="M 191.04 163.99
L 191.04 163.10
"/>
<text x="195.54" y="167.00" style="font-size:2.65; fill:black; text-anchor:middle
">1060</text>
<path style="stroke:black; fill:none; stroke-linecap:round; stroke-linejoin:round"
d="M 195.54 163.99
L 195.54 162.22
"/>
<path style="stroke:black; fill:none; stroke-linecap:round; stroke-linejoin:round"
d="M 200.03 163.99
L 200.03 163.10
"/>
<path style="stroke:black; fill:none; stroke-linecap:round; stroke-linejoin:round"
d="M 204.52 163.99
L 204.52 163.10
"/>
<path style="stroke:black; fill:none; stroke-linecap:round; stroke-linejoin:round"
d="M 209.02 163.99
L 209.02 163.10
"/>
<path style="stroke:black; fill:none; stroke-linecap:round; stroke-linejoin:round"
d="M 213.51 163.99
L 213.51 163.10
"/>
<text x="218.00" y="167.00" style="font-size:2.65; fill:black; text-anchor:middle
">1080</text>
<path style="stroke:black; fill:none; stroke-linecap:round; stroke-linejoin:round"
d="M 218.00 163.99
L 218.00 162.22
"/>
<path style="stroke:black; fill:none; stroke-linecap:round; stroke-linejoin:round"
d="M 222.50 163.99
L 222.50 163.10
"/>
<path style="stroke:black; fill:none; stroke-linecap:round; stroke-linejoin:round"
d="M 226.99 163.99
L 226.99 163.10
"/>
<path style="stroke:black; fill:none; stroke-linecap:round; stroke-linejoin:round"
d="M 231.48 163.99
L 231.48 163.10
"/>
<path style="stroke:black; fill:none; stroke-linecap:round; stroke-linejoin:round"
d="M 235.98 163.99
L 235.98 163.10
"/>
<text x="240.47" y="167.00" style="font-size:2.65; fill:black; text-anchor:middle
">1100</text>
<path style="stroke:black; fill:none; stroke-linecap:round; stroke-linejoin:round"
d="M 240.47 163.99
L 240.47 162.22
"/>
<path style="stroke:black; fill:none; stroke-linecap:round; stroke-linejoin:round"
d="M 244.96 163.99
L 244.96 163.10
"/>
<text x="128.18" y="169.70" style="font-size:2.65; fill:black; text-anchor:middle
">Wavenumber/cm-1</text>
<path style="stroke:black; fill:none; stroke-linecap:round; stroke-linejoin:round"
d="M 11.31 156.61
L 115.73 156.61
L 115.73 8.96
L 115.73 156.61
L 115.96 156.61
L 115.96 11.69
L 115.96 156.61
L 116.43 156.61
L 116.43 17.09
L 116.43 156.61
L 117.13 156.61
L 117.13 25.01
L 117.13 156.61
L 118.07 156.61
L 118.07 35.26
L 118.07 156.61
L 119.12 156.61
L 119.12 47.57
L 119.12 156.61
L 120.52 156.61
L 120.52 61.63
L 120.52 156.61
L 122.04 156.61
L 122.04 77.09
L 122.04 156.61
L 123.91 156.61
L 123.91 93.55
L 123.91 156.61
L 125.90 156.61
L 125.90 110.60
L 125.90 156.61
L 128.12 156.61
L 128.12 127.80
L 128.12 156.61
L 130.58 156.61
L 130.58 119.60
L 130.58 156.61
L 133.27 156.61
L 133.27 111.21
L 133.27 156.61
L 136.19 156.61
L 136.19 102.97
L 136.19 156.61
L 139.35 156.61
L 139.35 95.20
L 139.35 156.61
L 142.74 156.61
L 142.74 88.20
L 142.74 156.61
L 146.36 156.61
L 146.36 82.23
L 146.36 156.61
L 150.11 156.61
L 150.11 77.47
L 150.11 156.61
L 154.20 156.61
L 154.20 74.08
L 154.20 156.61
L 158.52 156.61
L 158.52 72.12
L 158.52 156.61
L 162.97 156.61
L 162.97 71.59
L 162.97 156.61
L 167.64 156.61
L 167.64 72.45
L 167.64 156.61
L 172.67 156.61
L 172.67 74.57
L 172.67 156.61
L 177.82 156.61
L 177.82 77.82
L 177.82 156.61
L 183.20 156.61
L 183.20 82.02
L 183.20 156.61
L 188.81 156.61
L 188.81 86.95
L 188.81 156.61
L 194.66 156.61
L 194.66 92.42
L 194.66 156.61
L 200.74 156.61
L 200.74 98.22
L 200.74 156.61
L 207.05 156.61
L 207.05 104.16
L 207.05 156.61
L 213.48 156.61
L 213.48 110.08
L 213.48 156.61
L 220.26 156.61
L 220.26 115.82
L 220.26 156.61
L 227.16 156.61
L 227.16 121.29
L 227.16 156.61
L 234.41 156.61
L 234.41 126.37
L 234.41 156.61
L 241.78 156.61
L 241.78 131.02
L 241.78 156.61
L 245.05 156.61
"/>
<path style="stroke:black; fill:none; stroke-linecap:round; stroke-linejoin:round"
d="M 11.31 156.61
L 11.31 8.96
"/>
<text x="11.07" y="157.61" style="font-size:2.65; fill:black; text-anchor:end
">0.000</text>
<path style="stroke:black; fill:none; stroke-linecap:round; stroke-linejoin:round"
d="M 11.31 156.61
L 13.08 156.61
"/>
<path style="stroke:black; fill:none; stroke-linecap:round; stroke-linejoin:round"
d="M 11.31 153.46
L 12.20 153.46
"/>
<path style="stroke:black; fill:none; stroke-linecap:round; stroke-linejoin:round"
d="M 11.31 150.31
L 12.20 150.31
"/>
<path style="stroke:black; fill:none; stroke-linecap:round; stroke-linejoin:round"
d="M 11.31 147.15
L 12.20 147.15
"/>
<path style="stroke:black; fill:none; stroke-linecap:round; stroke-linejoin:round"
d="M 11.31 144.00
L 12.20 144.00
"/>
<text x="11.07" y="141.85" style="font-size:2.65; fill:black; text-anchor:end
">0.002</text>
<path style="stroke:black; fill:none; stroke-linecap:round; stroke-linejoin:round"
d="M 11.31 140.85
L 13.08 140.85
"/>
<path style="stroke:black; fill:none; stroke-linecap:round; stroke-linejoin:round"
d="M 11.31 137.70
L 12.20 137.70
"/>
<path style="stroke:black; fill:none; stroke-linecap:round; stroke-linejoin:round"
d="M 11.31 134.55
L 12.20 134.55
"/>
<path style="stroke:black; fill:none; stroke-linecap:round; stroke-linejoin:round"
d="M 11.31 131.40
L 12.20 131.40
"/>
<path style="stroke:black; fill:none; stroke-linecap:round; stroke-linejoin:round"
d="M 11.31 128.25
L 12.20 128.25
"/>
<text x="11.07" y="126.10" style="font-size:2.65; fill:black; text-anchor:end
">0.004</text>
<path style="stroke:black; fill:none; stroke-linecap:round; stroke-linejoin:round"
d="M 11.31 125.09
L 13.08 125.09
"/>
<path style="stroke:black; fill:none; stroke-linecap:round; stroke-linejoin:round"
d="M 11.31 121.94
L 12.20 121.94
"/>
<path style="stroke:black; fill:none; stroke-linecap:round; stroke-linejoin:round"
d="M 11.31 118.79
L 12.20 118.79
"/>
<path style="stroke:black; fill:none; stroke-linecap:round; stroke-linejoin:round"
d="M 11.31 115.64
L 12.20 115.64
"/>
<path style="stroke:black; fill:none; stroke-linecap:round; stroke-linejoin:round"
d="M 11.31 112.49
L 12.20 112.49
"/>
<text x="11.07" y="110.34" style="font-size:2.65; fill:black; text-anchor:end
">0.006</text>
<path style="stroke:black; fill:none; stroke-linecap:round; stroke-linejoin:round"
d="M 11.31 109.34
L 13.08 109.34
"/>
<path style="stroke:black; fill:none; stroke-linecap:round; stroke-linejoin:round"
d="M 11.31 106.18
L 12.20 106.18
"/>
<path style="stroke:black; fill:none; stroke-linecap:round; stroke-linejoin:round"
d="M 11.31 103.03
L 12.20 103.03
"/>
<path style="stroke:black; fill:none; stroke-linecap:round; stroke-linejoin:round"
d="M 11.31 99.88
L 12.20 99.88
"/>
<path style="stroke:black; fill:none; stroke-linecap:round; stroke-linejoin:round"
d="M 11.31 96.73
L 12.20 96.73
"/>
<text x="11.07" y="94.58" style="font-size:2.65; fill:black; text-anchor:end
">0.008</text>
<path style="stroke:black; fill:none; stroke-linecap:round; stroke-linejoin:round"
d="M 11.31 93.58
L 13.08 93.58
"/>
<path style="stroke:black; fill:none; stroke-linecap:round; stroke-linejoin:round"
d="M 11.31 90.43
L 12.20 90.43
"/>
<path style="stroke:black; fill:none; stroke-linecap:round; stroke-linejoin:round"
d="M 11.31 87.28
L 12.20 87.28
"/>
<path style="stroke:black; fill:none; stroke-linecap:round; stroke-linejoin:round"
d="M 11.31 84.12
L 12.20 84.12
"/>
<path style="stroke:black; fill:none; stroke-linecap:round; stroke-linejoin:round"
d="M 11.31 80.97
L 12.20 80.97
"/>
<text x="11.07" y="78.82" style="font-size:2.65; fill:black; text-anchor:end
">0.010</text>
<path style="stroke:black; fill:none; stroke-linecap:round; stroke-linejoin:round"
d="M 11.31 77.82
L 13.08 77.82
"/>
<path style="stroke:black; fill:none; stroke-linecap:round; stroke-linejoin:round"
d="M 11.31 74.67
L 12.20 74.67
"/>
<path style="stroke:black; fill:none; stroke-linecap:round; stroke-linejoin:round"
d="M 11.31 71.52
L 12.20 71.52
"/>
<path style="stroke:black; fill:none; stroke-linecap:round; stroke-linejoin:round"
d="M 11.31 68.37
L 12.20 68.37
"/>
<path style="stroke:black; fill:none; stroke-linecap:round; stroke-linejoin:round"
d="M 11.31 65.21
L 12.20 65.21
"/>
<text x="11.07" y="63.06" style="font-size:2.65; fill:black; text-anchor:end
">0.012</text>
<path style="stroke:black; fill:none; stroke-linecap:round; stroke-linejoin:round"
d="M 11.31 62.06
L 13.08 62.06
"/>
<path style="stroke:black; fill:none; stroke-linecap:round; stroke-linejoin:round"
d="M 11.31 58.91
L 12.20 58.91
"/>
<path style="stroke:black; fill:none; stroke-linecap:round; stroke-linejoin:round"
d="M 11.31 55.76
L 12.20 55.76
"/>
<path style="stroke:black; fill:none; stroke-linecap:round; stroke-linejoin:round"
d="M 11.31 52.61
L 12.20 52.61
"/>
<path style="stroke:black; fill:none; stroke-linecap:round; stroke-linejoin:round"
d="M 11.31 49.46
L 12.20 49.46
"/>
<text x="11.07" y="47.31" style="font-size:2.65; fill:black; text-anchor:end
">0.014</text>
<path style="stroke:black; fill:none; stroke-linecap:round; stroke-linejoin:round"
d="M 11.31 46.31
L 13.08 46.31
"/>
<path style="stroke:black; fill:none; stroke-linecap:round; stroke-linejoin:round"
d="M 11.31 43.15
L 12.20 43.15
"/>
<path style="stroke:black; fill:none; stroke-linecap:round; stroke-linejoin:round"
d="M 11.31 40.00
L 12.20 40.00
"/>
<path style="stroke:black; fill:none; stroke-linecap:round; stroke-linejoin:round"
d="M 11.31 36.85
L 12.20 36.85
"/>
<path style="stroke:black; fill:none; stroke-linecap:round; stroke-linejoin:round"
d="M 11.31 33.70
L 12.20 33.70
"/>
<text x="11.07" y="31.55" style="font-size:2.65; fill:black; text-anchor:end
">0.016</text>
<path style="stroke:black; fill:none; stroke-linecap:round; stroke-linejoin:round"
d="M 11.31 30.55
L 13.08 30.55
"/>
<path style="stroke:black; fill:none; stroke-linecap:round; stroke-linejoin:round"
d="M 11.31 27.40
L 12.20 27.40
"/>
<path style="stroke:black; fill:none; stroke-linecap:round; stroke-linejoin:round"
d="M 11.31 24.24
L 12.20 24.24
"/>
<path style="stroke:black; fill:none; stroke-linecap:round; stroke-linejoin:round"
d="M 11.31 21.09
L 12.20 21.09
"/>
<path style="stroke:black; fill:none; stroke-linecap:round; stroke-linejoin:round"
d="M 11.31 17.94
L 12.20 17.94
"/>
<text x="11.07" y="15.79" style="font-size:2.65; fill:black; text-anchor:end
">0.018</text>
<path style="stroke:black; fill:none; stroke-linecap:round; stroke-linejoin:round"
d="M 11.31 14.79
L 13.08 14.79
"/>
<path style="stroke:black; fill:none; stroke-linecap:round; stroke-linejoin:round"
d="M 11.31 11.64
L 12.20 11.64
"/>
<g transform="translate(2.84,82.79) rotate(270.0)">
<text x="0.00" y="0.00" style="font-size:2.65; fill:black; text-anchor:middle
">Normalized Intensity</text>
</g>
</svg>
