<?xml version="1.0" encoding="UTF-8" standalone="no"?>
<!DOCTYPE svg PUBLIC "-//W3C//DTD SVG 1.1//EN" "http://www.w3.org/Graphics/SVG/1.1/DTD/svg11.dtd">
<svg version="1.1" xmlns="http://www.w3.org/2000/svg" width="250.000 mm" height="170.000 mm">

<path style="stroke:black; fill:none; stroke-linecap:round; stroke-linejoin:round"
d="M 11.77 163.74
L 11.77 162.81
"/>
<path style="stroke:black; fill:none; stroke-linecap:round; stroke-linejoin:round"
d="M 11.77 163.74
L 244.85 163.74
"/>
<text x="16.26" y="166.87" style="font-size:2.76; fill:black; text-anchor:middle
">900</text>
<path style="stroke:black; fill:none; stroke-linecap:round; stroke-linejoin:round"
d="M 16.26 163.74
L 16.26 161.89
"/>
<path style="stroke:black; fill:none; stroke-linecap:round; stroke-linejoin:round"
d="M 20.74 163.74
L 20.74 162.81
"/>
<path style="stroke:black; fill:none; stroke-linecap:round; stroke-linejoin:round"
d="M 25.22 163.74
L 25.22 162.81
"/>
<path style="stroke:black; fill:none; stroke-linecap:round; stroke-linejoin:round"
d="M 29.70 163.74
L 29.70 162.81
"/>
<path style="stroke:black; fill:none; stroke-linecap:round; stroke-linejoin:round"
d="M 34.18 163.74
L 34.18 162.81
"/>
<text x="38.66" y="166.87" style="font-size:2.76; fill:black; text-anchor:middle
">920</text>
<path style="stroke:black; fill:none; stroke-linecap:round; stroke-linejoin:round"
d="M 38.66 163.74
L 38.66 161.89
"/>
<path style="stroke:black; fill:none; stroke-linecap:round; stroke-linejoin:round"
d="M 43.14 163.74
L 43.14 162.81
"/>
<path style="stroke:black; fill:none; stroke-linecap:round; stroke-linejoin:round"
d="M 47.62 163.74
L 47.62 162.81
"/>
<path style="stroke:black; fill:none; stroke-linecap:round; stroke-linejoin:round"
d="M 52.10 163.74
L 52.10 162.81
"/>
<path style="stroke:black; fill:none; stroke-linecap:round; stroke-linejoin:round"
d="M 56.58 163.74
L 56.58 162.81
"/>
<text x="61.06" y="166.87" style="font-size:2.76; fill:black; text-anchor:middle
">940</text>
<path style="stroke:black; fill:none; stroke-linecap:round; stroke-linejoin:round"
d="M 61.06 163.74
L 61.06 161.89
"/>
<path style="stroke:black; fill:none; stroke-linecap:round; stroke-linejoin:round"
d="M 65.54 163.74
L 65.54 162.81
"/>
<path style="stroke:black; fill:none; stroke-linecap:round; stroke-linejoin:round"
d="M 70.02 163.74
L 70.02 162.81
"/>
<path style="stroke:black; fill:none; stroke-linecap:round; stroke-linejoin:round"
d="M 74.50 163.74
L 74.50 162.81
"/>
<path style="stroke:black; fill:none; stroke-linecap:round; stroke-linejoin:round"
d="M 78.98 163.74
L 78.98 162.81
"/>
<text x="83.46" y="166.87" style="font-size:2.76; fill:black; text-anchor:middle
">960</text>
<path style="stroke:black; fill:none; stroke-linecap:round; stroke-linejoin:round"
d="M 83.46 163.74
L 83.46 161.89
"/>
<path style="stroke:black; fill:none; stroke-linecap:round; stroke-linejoin:round"
d="M 87.94 163.74
L 87.94 162.81
"/>
<path style="stroke:black; fill:none; stroke-linecap:round; stroke-linejoin:round"
d="M 92.42 163.74
L 92.42 162.81
"/>
<path style="stroke:black; fill:none; stroke-linecap:round; stroke-linejoin:round"
d="M 96.90 163.74
L 96.90 162.81
"/>
<path style="stroke:black; fill:none; stroke-linecap:round; stroke-linejoin:round"
d="M 101.38 163.74
L 101.38 162.81
"/>
<text x="105.86" y="166.87" style="font-size:2.76; fill:black; text-anchor:middle
">980</text>
<path style="stroke:black; fill:none; stroke-linecap:round; stroke-linejoin:round"
d="M 105.86 163.74
L 105.86 161.89
"/>
<path style="stroke:black; fill:none; stroke-linecap:round; stroke-linejoin:round"
d="M 110.35 163.74
L 110.35 162.81
"/>
<path style="stroke:black; fill:none; stroke-linecap:round; stroke-linejoin:round"
d="M 114.83 163.74
L 114.83 162.81
"/>
<path style="stroke:black; fill:none; stroke-linecap:round; stroke-linejoin:round"
d="M 119.31 163.74
L 119.31 162.81
"/>
<path style="stroke:black; fill:none; stroke-linecap:round; stroke-linejoin:round"
d="M 123.79 163.74
L 123.79 162.81
"/>
<text x="128.27" y="166.87" style="font-size:2.76; fill:black; text-anchor:middle
">1000</text>
<path style="stroke:black; fill:none; stroke-linecap:round; stroke-linejoin:round"
d="M 128.27 163.74
L 128.27 161.89
"/>
<path style="stroke:black; fill:none; stroke-linecap:round; stroke-linejoin:round"
d="M 132.75 163.74
L 132.75 162.81
"/>
<path style="stroke:black; fill:none; stroke-linecap:round; stroke-linejoin:round"
d="M 137.23 163.74
L 137.23 162.81
"/>
<path style="stroke:black; fill:none; stroke-linecap:round; stroke-linejoin:round"
d="M 141.71 163.74
L 141.71 162.81
"/>
<path style="stroke:black; fill:none; stroke-linecap:round; stroke-linejoin:round"
d="M 146.19 163.74
L 146.19 162.81
"/>
<text x="150.67" y="166.87" style="font-size:2.76; fill:black; text-anchor:middle
">1020</text>
<path style="stroke:black; fill:none; stroke-linecap:round; stroke-linejoin:round"
d="M 150.67 163.74
L 150.67 161.89
"/>
<path style="stroke:black; fill:none; stroke-linecap:round; stroke-linejoin:round"
d="M 155.15 163.74
L 155.15 162.81
"/>
<path style="stroke:black; fill:none; stroke-linecap:round; stroke-linejoin:round"
d="M 159.63 163.74
L 159.63 162.81
"/>
<path style="stroke:black; fill:none; stroke-linecap:round; stroke-linejoin:round"
d="M 164.11 163.74
L 164.11 162.81
"/>
<path style="stroke:black; fill:none; stroke-linecap:round; stroke-linejoin:round"
d="M 168.59 163.74
L 168.59 162.81
"/>
<text x="173.07" y="166.87" style="font-size:2.76; fill:black; text-anchor:middle
">1040</text>
<path style="stroke:black; fill:none; stroke-linecap:round; stroke-linejoin:round"
d="M 173.07 163.74
L 173.07 161.89
"/>
<path style="stroke:black; fill:none; stroke-linecap:round; stroke-linejoin:round"
d="M 177.55 163.74
L 177.55 162.81
"/>
<path style="stroke:black; fill:none; stroke-linecap:round; stroke-linejoin:round"
d="M 182.03 163.74
L 182.03 162.81
"/>
<path style="stroke:black; fill:none; stroke-linecap:round; stroke-linejoin:round"
d="M 186.51 163.74
L 186.51 162.81
"/>
<path style="stroke:black; fill:none; stroke-linecap:round; stroke-linejoin:round"
d="M 190.99 163.74
L 190.99 162.81
"/>
<text x="195.47" y="166.87" style="font-size:2.76; fill:black; text-anchor:middle
">1060</text>
<path style="stroke:black; fill:none; stroke-linecap:round; stroke-linejoin:round"
d="M 195.47 163.74
L 195.47 161.89
"/>
<path style="stroke:black; fill:none; stroke-linecap:round; stroke-linejoin:round"
d="M 199.95 163.74
L 199.95 162.81
"/>
<path style="stroke:black; fill:none; stroke-linecap:round; stroke-linejoin:round"
d="M 204.43 163.74
L 204.43 162.81
"/>
<path style="stroke:black; fill:none; stroke-linecap:round; stroke-linejoin:round"
d="M 208.92 163.74
L 208.92 162.81
"/>
<path style="stroke:black; fill:none; stroke-linecap:round; stroke-linejoin:round"
d="M 213.40 163.74
L 213.40 162.81
"/>
<text x="217.88" y="166.87" style="font-size:2.76; fill:black; text-anchor:middle
">1080</text>
<path style="stroke:black; fill:none; stroke-linecap:round; stroke-linejoin:round"
d="M 217.88 163.74
L 217.88 161.89
"/>
<path style="stroke:black; fill:none; stroke-linecap:round; stroke-linejoin:round"
d="M 222.36 163.74
L 222.36 162.81
"/>
<path style="stroke:black; fill:none; stroke-linecap:round; stroke-linejoin:round"
d="M 226.84 163.74
L 226.84 162.81
"/>
<path style="stroke:black; fill:none; stroke-linecap:round; stroke-linejoin:round"
d="M 231.32 163.74
L 231.32 162.81
"/>
<path style="stroke:black; fill:none; stroke-linecap:round; stroke-linejoin:round"
d="M 235.80 163.74
L 235.80 162.81
"/>
<text x="240.28" y="166.87" style="font-size:2.76; fill:black; text-anchor:middle
">1100</text>
<path style="stroke:black; fill:none; stroke-linecap:round; stroke-linejoin:round"
d="M 240.28 163.74
L 240.28 161.89
"/>
<path style="stroke:black; fill:none; stroke-linecap:round; stroke-linejoin:round"
d="M 244.76 163.74
L 244.76 162.81
"/>
<text x="128.31" y="169.69" style="font-size:2.76; fill:black; text-anchor:middle
">Wavenumber/cm-1</text>
<path style="stroke:black; fill:none; stroke-linecap:round; stroke-linejoin:round"
d="M 11.77 156.39
L 11.89 156.39
L 12.01 156.39
L 12.12 156.39
L 12.24 156.39
L 12.36 156.39
L 12.47 156.39
L 12.59 156.39
L 12.71 156.39
L 12.82 156.39
L 12.94 156.39
L 13.06 156.39
L 13.17 156.39
L 13.29 156.39
L 13.41 156.39
L 13.52 156.39
L 13.64 156.39
L 13.76 156.38
L 13.87 156.38
L 13.99 156.38
L 14.11 156.38
L 14.22 156.38
L 14.34 156.38
L 14.46 156.38
L 14.57 156.38
L 14.69 156.38
L 14.81 156.38
L 14.92 156.38
L 15.04 156.38
L 15.16 156.38
L 15.27 156.38
L 15.39 156.38
L 15.51 156.38
L 15.62 156.38
L 15.74 156.38
L 15.86 156.38
L 15.97 156.38
L 16.09 156.38
L 16.21 156.38
L 16.32 156.38
L 16.44 156.38
L 16.56 156.38
L 16.67 156.38
L 16.79 156.38
L 16.91 156.38
L 17.02 156.38
L 17.14 156.38
L 17.25 156.38
L 17.37 156.38
L 17.49 156.38
L 17.60 156.38
L 17.72 156.38
L 17.84 156.38
L 17.95 156.38
L 18.07 156.38
L 18.19 156.38
L 18.30 156.38
L 18.42 156.38
L 18.54 156.38
L 18.65 156.38
L 18.77 156.38
L 18.89 156.38
L 19.00 156.38
L 19.12 156.38
L 19.24 156.38
L 19.35 156.38
L 19.47 156.38
L 19.59 156.38
L 19.70 156.38
L 19.82 156.38
L 19.94 156.38
L 20.05 156.38
L 20.17 156.38
L 20.29 156.38
L 20.40 156.37
L 20.52 156.37
L 20.64 156.37
L 20.75 156.37
L 20.87 156.37
L 20.99 156.37
L 21.10 156.37
L 21.22 156.38
L 21.34 156.38
L 21.45 156.38
L 21.57 156.38
L 21.69 156.38
L 21.80 156.38
L 21.92 156.38
L 22.04 156.38
L 22.15 156.38
L 22.27 156.38
L 22.39 156.37
L 22.50 156.37
L 22.62 156.37
L 22.73 156.37
L 22.85 156.36
L 22.97 156.36
L 23.08 156.36
L 23.20 156.37
L 23.32 156.37
L 23.43 156.37
L 23.55 156.37
L 23.67 156.37
L 23.78 156.37
L 23.90 156.37
L 24.02 156.37
L 24.13 156.37
L 24.25 156.37
L 24.37 156.37
L 24.48 156.37
L 24.60 156.37
L 24.72 156.36
L 24.83 156.36
L 24.95 156.36
L 25.07 156.35
L 25.18 156.35
L 25.30 156.35
L 25.42 156.36
L 25.53 156.36
L 25.65 156.36
L 25.77 156.36
L 25.88 156.37
L 26.00 156.37
L 26.12 156.37
L 26.23 156.37
L 26.35 156.37
L 26.47 156.37
L 26.58 156.36
L 26.70 156.36
L 26.82 156.36
L 26.93 156.35
L 27.05 156.35
L 27.17 156.34
L 27.28 156.34
L 27.40 156.33
L 27.52 156.34
L 27.63 156.34
L 27.75 156.35
L 27.87 156.35
L 27.98 156.35
L 28.10 156.36
L 28.21 156.36
L 28.33 156.36
L 28.45 156.36
L 28.56 156.36
L 28.68 156.36
L 28.80 156.36
L 28.91 156.35
L 29.03 156.35
L 29.15 156.34
L 29.26 156.34
L 29.38 156.33
L 29.50 156.32
L 29.61 156.31
L 29.73 156.31
L 29.85 156.31
L 29.96 156.32
L 30.08 156.32
L 30.20 156.33
L 30.31 156.34
L 30.43 156.34
L 30.55 156.34
L 30.66 156.35
L 30.78 156.35
L 30.90 156.34
L 31.01 156.34
L 31.13 156.34
L 31.25 156.33
L 31.36 156.32
L 31.48 156.31
L 31.60 156.30
L 31.71 156.29
L 31.83 156.28
L 31.95 156.27
L 32.06 156.27
L 32.18 156.28
L 32.30 156.29
L 32.41 156.31
L 32.53 156.31
L 32.65 156.32
L 32.76 156.32
L 32.88 156.33
L 33.00 156.33
L 33.11 156.32
L 33.23 156.32
L 33.34 156.31
L 33.46 156.31
L 33.58 156.29
L 33.69 156.28
L 33.81 156.26
L 33.93 156.24
L 34.04 156.22
L 34.16 156.22
L 34.28 156.22
L 34.39 156.24
L 34.51 156.25
L 34.63 156.27
L 34.74 156.28
L 34.86 156.29
L 34.98 156.30
"/>
<path style="stroke:black; fill:none; stroke-linecap:round; stroke-linejoin:round"
d="M 34.98 156.30
L 35.09 156.30
L 35.21 156.30
L 35.33 156.30
L 35.44 156.29
L 35.56 156.28
L 35.68 156.27
L 35.79 156.25
L 35.91 156.23
L 36.03 156.20
L 36.14 156.17
L 36.26 156.15
L 36.38 156.14
L 36.49 156.15
L 36.61 156.17
L 36.73 156.19
L 36.84 156.22
L 36.96 156.24
L 37.08 156.25
L 37.19 156.26
L 37.31 156.27
L 37.43 156.27
L 37.54 156.27
L 37.66 156.26
L 37.78 156.25
L 37.89 156.24
L 38.01 156.22
L 38.13 156.19
L 38.24 156.16
L 38.36 156.12
L 38.48 156.08
L 38.59 156.04
L 38.71 156.03
L 38.82 156.04
L 38.94 156.07
L 39.06 156.11
L 39.17 156.14
L 39.29 156.17
L 39.41 156.19
L 39.52 156.20
L 39.64 156.21
L 39.76 156.21
L 39.87 156.20
L 39.99 156.19
L 40.11 156.17
L 40.22 156.14
L 40.34 156.10
L 40.46 156.06
L 40.57 156.00
L 40.69 155.94
L 40.81 155.90
L 40.92 155.88
L 41.04 155.89
L 41.16 155.93
L 41.27 155.98
L 41.39 156.03
L 41.51 156.07
L 41.62 156.10
L 41.74 156.12
L 41.86 156.13
L 41.97 156.13
L 42.09 156.12
L 42.21 156.11
L 42.32 156.08
L 42.44 156.04
L 42.56 155.99
L 42.67 155.92
L 42.79 155.84
L 42.91 155.76
L 43.02 155.69
L 43.14 155.67
L 43.26 155.69
L 43.37 155.75
L 43.49 155.82
L 43.61 155.89
L 43.72 155.95
L 43.84 155.99
L 43.96 156.01
L 44.07 156.03
L 44.19 156.03
L 44.30 156.02
L 44.42 156.00
L 44.54 155.96
L 44.65 155.91
L 44.77 155.84
L 44.89 155.73
L 45.00 155.62
L 45.12 155.51
L 45.24 155.42
L 45.35 155.38
L 45.47 155.41
L 45.59 155.49
L 45.70 155.59
L 45.82 155.69
L 45.94 155.77
L 46.05 155.83
L 46.17 155.87
L 46.29 155.89
L 46.40 155.89
L 46.52 155.88
L 46.64 155.85
L 46.75 155.80
L 46.87 155.73
L 46.99 155.63
L 47.10 155.49
L 47.22 155.34
L 47.34 155.18
L 47.45 155.05
L 47.57 155.00
L 47.69 155.04
L 47.80 155.16
L 47.92 155.30
L 48.04 155.44
L 48.15 155.56
L 48.27 155.64
L 48.39 155.70
L 48.50 155.74
L 48.62 155.75
L 48.74 155.74
L 48.85 155.72
L 48.97 155.67
L 49.09 155.59
L 49.20 155.49
L 49.32 155.33
L 49.44 155.15
L 49.55 154.95
L 49.67 154.73
L 49.78 154.55
L 49.90 154.47
L 50.02 154.53
L 50.13 154.69
L 50.25 154.89
L 50.37 155.07
L 50.48 155.23
L 50.60 155.34
L 50.72 155.41
L 50.83 155.45
L 50.95 155.45
L 51.07 155.43
L 51.18 155.37
L 51.30 155.28
L 51.42 155.15
L 51.53 154.93
L 51.65 154.70
L 51.77 154.42
L 51.88 154.12
L 52.00 153.88
L 52.12 153.78
L 52.23 153.86
L 52.35 154.08
L 52.47 154.35
L 52.58 154.60
L 52.70 154.81
L 52.82 154.96
L 52.93 155.06
L 53.05 155.12
L 53.17 155.13
L 53.28 155.09
L 53.40 155.02
L 53.52 154.89
L 53.63 154.72
L 53.75 154.47
L 53.87 154.12
L 53.98 153.74
L 54.10 153.35
L 54.22 153.02
L 54.33 152.89
L 54.45 153.00
L 54.57 153.29
L 54.68 153.65
L 54.80 153.99
L 54.92 154.28
L 55.03 154.48
L 55.15 154.62
L 55.26 154.69
L 55.38 154.71
L 55.50 154.66
L 55.61 154.57
L 55.73 154.40
L 55.85 154.16
L 55.96 153.84
L 56.08 153.37
L 56.20 152.87
L 56.31 152.35
L 56.43 151.92
L 56.55 151.74
L 56.66 151.88
L 56.78 152.27
L 56.90 152.76
L 57.01 153.22
L 57.13 153.59
L 57.25 153.87
L 57.36 154.06
L 57.48 154.15
L 57.60 154.18
L 57.71 154.13
L 57.83 154.00
L 57.95 153.79
L 58.06 153.48
L 58.18 153.05
"/>
<path style="stroke:black; fill:none; stroke-linecap:round; stroke-linejoin:round"
d="M 58.18 153.05
L 58.30 152.44
L 58.41 151.79
L 58.53 151.10
L 58.65 150.54
L 58.76 150.32
L 58.88 150.51
L 59.00 151.03
L 59.11 151.68
L 59.23 152.29
L 59.35 152.80
L 59.46 153.19
L 59.58 153.46
L 59.70 153.61
L 59.81 153.68
L 59.93 153.66
L 60.05 153.56
L 60.16 153.37
L 60.28 153.07
L 60.40 152.65
L 60.51 152.00
L 60.63 151.27
L 60.74 150.40
L 60.86 149.50
L 60.98 148.76
L 61.09 148.46
L 61.21 148.70
L 61.33 149.36
L 61.44 150.19
L 61.56 150.98
L 61.68 151.64
L 61.79 152.11
L 61.91 152.42
L 62.03 152.59
L 62.14 152.63
L 62.26 152.55
L 62.38 152.34
L 62.49 151.98
L 62.61 151.46
L 62.73 150.75
L 62.84 149.73
L 62.96 148.62
L 63.08 147.47
L 63.19 146.53
L 63.31 146.14
L 63.43 146.46
L 63.54 147.32
L 63.66 148.40
L 63.78 149.42
L 63.89 150.27
L 64.01 150.88
L 64.13 151.29
L 64.24 151.52
L 64.36 151.58
L 64.48 151.48
L 64.59 151.21
L 64.71 150.76
L 64.83 150.10
L 64.94 149.20
L 65.06 147.90
L 65.18 146.50
L 65.29 145.03
L 65.41 143.84
L 65.53 143.34
L 65.64 143.75
L 65.76 144.85
L 65.88 146.23
L 65.99 147.53
L 66.11 148.63
L 66.22 149.42
L 66.34 149.95
L 66.46 150.24
L 66.57 150.33
L 66.69 150.21
L 66.81 149.88
L 66.92 149.32
L 67.04 148.49
L 67.16 147.36
L 67.27 145.74
L 67.39 143.98
L 67.51 142.14
L 67.62 140.65
L 67.74 140.04
L 67.86 140.57
L 67.97 141.99
L 68.09 143.75
L 68.21 145.42
L 68.32 146.81
L 68.44 147.89
L 68.56 148.62
L 68.67 149.07
L 68.79 149.27
L 68.91 149.25
L 69.02 149.00
L 69.14 148.52
L 69.26 147.76
L 69.37 146.68
L 69.49 145.04
L 69.61 143.17
L 69.72 140.95
L 69.84 138.62
L 69.96 136.74
L 70.07 135.95
L 70.19 136.58
L 70.31 138.32
L 70.42 140.48
L 70.54 142.53
L 70.66 144.26
L 70.77 145.50
L 70.89 146.34
L 71.01 146.81
L 71.12 146.95
L 71.24 146.77
L 71.35 146.27
L 71.47 145.42
L 71.59 144.15
L 71.70 142.17
L 71.82 139.91
L 71.94 137.19
L 72.05 134.35
L 72.17 132.04
L 72.29 131.09
L 72.40 131.89
L 72.52 134.05
L 72.64 136.73
L 72.75 139.27
L 72.87 141.42
L 72.99 142.96
L 73.10 144.01
L 73.22 144.60
L 73.34 144.79
L 73.45 144.59
L 73.57 143.99
L 73.69 142.95
L 73.80 141.41
L 73.92 139.29
L 74.04 136.27
L 74.15 132.97
L 74.27 129.51
L 74.39 126.70
L 74.50 125.54
L 74.62 126.53
L 74.74 129.17
L 74.85 132.45
L 74.97 135.56
L 75.09 138.19
L 75.20 140.08
L 75.32 141.36
L 75.44 142.10
L 75.55 142.34
L 75.67 142.12
L 75.79 141.40
L 75.90 140.16
L 76.02 138.31
L 76.14 135.76
L 76.25 132.14
L 76.37 128.17
L 76.49 124.00
L 76.60 120.62
L 76.72 119.24
L 76.83 120.43
L 76.95 123.62
L 77.07 127.59
L 77.18 131.35
L 77.30 134.44
L 77.42 136.85
L 77.53 138.41
L 77.65 139.32
L 77.77 139.63
L 77.88 139.39
L 78.00 138.56
L 78.12 137.10
L 78.23 134.92
L 78.35 131.90
L 78.47 127.62
L 78.58 122.90
L 78.70 117.96
L 78.82 113.97
L 78.93 112.36
L 79.05 113.83
L 79.17 117.69
L 79.28 122.49
L 79.40 127.06
L 79.52 130.84
L 79.63 133.83
L 79.75 135.85
L 79.87 137.13
L 79.98 137.76
L 80.10 137.80
L 80.22 137.25
L 80.33 136.07
L 80.45 134.19
L 80.57 131.49
L 80.68 127.41
L 80.80 122.68
L 80.92 117.05
L 81.03 111.15
L 81.15 106.37
L 81.27 104.40
L 81.38 106.07
"/>
<path style="stroke:black; fill:none; stroke-linecap:round; stroke-linejoin:round"
d="M 81.38 106.07
L 81.50 110.54
L 81.62 116.12
L 81.73 121.40
L 81.85 125.90
L 81.97 129.14
L 82.08 131.34
L 82.20 132.64
L 82.31 133.11
L 82.43 132.79
L 82.55 131.67
L 82.66 129.68
L 82.78 126.68
L 82.90 122.07
L 83.01 116.67
L 83.13 110.18
L 83.25 103.38
L 83.36 97.87
L 83.48 95.62
L 83.60 97.61
L 83.71 102.86
L 83.83 109.38
L 83.95 115.57
L 84.06 120.85
L 84.18 124.65
L 84.30 127.25
L 84.41 128.79
L 84.53 129.37
L 84.65 129.04
L 84.76 127.78
L 84.88 125.51
L 85.00 122.08
L 85.11 117.33
L 85.23 110.63
L 85.35 103.19
L 85.46 95.38
L 85.58 89.05
L 85.70 86.48
L 85.81 88.78
L 85.93 94.84
L 86.05 102.37
L 86.16 109.51
L 86.28 115.61
L 86.40 120.01
L 86.51 123.03
L 86.63 124.82
L 86.75 125.52
L 86.86 125.18
L 86.98 123.78
L 87.10 121.23
L 87.21 117.35
L 87.33 111.97
L 87.45 104.40
L 87.56 95.95
L 87.68 87.09
L 87.79 79.92
L 87.91 77.02
L 88.03 79.66
L 88.14 86.56
L 88.26 95.14
L 88.38 103.29
L 88.49 110.00
L 88.61 115.30
L 88.73 118.76
L 88.84 120.85
L 88.96 121.69
L 89.08 121.36
L 89.19 119.83
L 89.31 117.01
L 89.43 112.71
L 89.54 106.71
L 89.66 98.29
L 89.78 88.86
L 89.89 78.98
L 90.01 70.99
L 90.13 67.82
L 90.24 70.87
L 90.36 78.73
L 90.48 88.48
L 90.59 97.78
L 90.71 105.50
L 90.83 111.69
L 90.94 115.88
L 91.06 118.60
L 91.18 120.03
L 91.29 120.29
L 91.41 119.40
L 91.53 117.31
L 91.64 113.86
L 91.76 108.84
L 91.88 101.35
L 91.99 92.49
L 92.11 81.89
L 92.23 70.80
L 92.34 61.82
L 92.46 58.18
L 92.58 61.42
L 92.69 70.00
L 92.81 80.65
L 92.93 90.78
L 93.04 99.47
L 93.16 105.74
L 93.27 110.08
L 93.39 112.71
L 93.51 113.80
L 93.62 113.46
L 93.74 111.65
L 93.86 108.26
L 93.97 103.07
L 94.09 95.81
L 94.21 85.67
L 94.32 74.24
L 94.44 62.25
L 94.56 52.55
L 94.67 48.66
L 94.79 52.29
L 94.91 61.73
L 95.02 73.45
L 95.14 84.58
L 95.26 94.16
L 95.37 101.07
L 95.49 105.87
L 95.61 108.81
L 95.72 110.08
L 95.84 109.78
L 95.96 107.89
L 96.07 104.29
L 96.19 98.74
L 96.31 90.96
L 96.42 80.10
L 96.54 67.82
L 96.66 54.94
L 96.77 44.51
L 96.89 40.36
L 97.01 44.31
L 97.12 54.52
L 97.24 67.18
L 97.36 79.22
L 97.47 89.61
L 97.59 97.11
L 97.71 102.34
L 97.82 105.56
L 97.94 107.01
L 98.06 106.77
L 98.17 104.84
L 98.29 101.09
L 98.41 95.26
L 98.52 87.07
L 98.64 75.64
L 98.75 62.69
L 98.87 49.08
L 98.99 38.11
L 99.10 33.80
L 99.22 38.12
L 99.34 49.11
L 99.45 62.73
L 99.57 75.73
L 99.69 86.54
L 99.80 95.32
L 99.92 101.27
L 100.04 105.20
L 100.15 107.38
L 100.27 107.96
L 100.39 107.01
L 100.50 104.45
L 100.62 100.09
L 100.74 93.66
L 100.85 84.13
L 100.97 72.64
L 101.09 58.89
L 101.20 44.49
L 101.32 32.84
L 101.44 28.18
L 101.55 32.53
L 101.67 43.85
L 101.79 57.91
L 101.90 71.28
L 102.02 82.88
L 102.14 91.23
L 102.25 97.09
L 102.37 100.73
L 102.49 102.41
L 102.60 102.26
L 102.72 100.26
L 102.84 96.28
L 102.95 90.06
L 103.07 80.61
L 103.19 69.05
L 103.30 55.11
L 103.42 40.47
L 103.54 28.64
L 103.65 23.97
L 103.77 28.56
L 103.89 40.30
L 104.00 54.85
L 104.12 68.69
L 104.23 80.72
L 104.35 89.40
L 104.47 95.50
L 104.58 99.33
"/>
<path style="stroke:black; fill:none; stroke-linecap:round; stroke-linejoin:round"
d="M 104.58 99.33
L 104.70 101.16
L 104.82 101.11
L 104.93 99.18
L 105.05 95.23
L 105.17 89.00
L 105.28 80.18
L 105.40 67.95
L 105.52 53.93
L 105.63 39.18
L 105.75 27.28
L 105.87 22.60
L 105.98 27.28
L 106.10 39.18
L 106.22 53.93
L 106.33 67.95
L 106.45 80.19
L 106.57 89.01
L 106.68 95.24
L 106.80 99.19
L 106.92 101.11
L 107.03 101.16
L 107.15 99.33
L 107.27 95.50
L 107.38 89.39
L 107.50 80.71
L 107.62 68.69
L 107.73 54.84
L 107.85 40.29
L 107.97 28.54
L 108.08 23.95
L 108.20 28.63
L 108.32 40.47
L 108.43 55.13
L 108.55 69.08
L 108.67 80.66
L 108.78 90.12
L 108.90 96.37
L 109.02 100.36
L 109.13 102.37
L 109.25 102.54
L 109.36 100.88
L 109.48 97.26
L 109.60 91.43
L 109.71 83.11
L 109.83 71.60
L 109.95 58.28
L 110.06 44.27
L 110.18 32.99
L 110.30 28.66
L 110.41 33.33
L 110.53 44.96
L 110.65 59.34
L 110.76 73.08
L 110.88 84.55
L 111.00 94.08
L 111.11 100.53
L 111.23 104.91
L 111.35 107.50
L 111.46 108.49
L 111.58 107.97
L 111.70 105.86
L 111.81 102.03
L 111.93 96.20
L 112.05 87.65
L 112.16 77.02
L 112.28 64.25
L 112.40 50.86
L 112.51 40.06
L 112.63 35.84
L 112.75 40.11
L 112.86 50.97
L 112.98 64.41
L 113.10 77.22
L 113.21 88.54
L 113.33 96.67
L 113.45 102.47
L 113.56 106.25
L 113.68 108.24
L 113.80 108.58
L 113.91 107.29
L 114.03 104.28
L 114.15 99.34
L 114.26 91.88
L 114.38 82.40
L 114.50 70.92
L 114.61 58.82
L 114.73 49.08
L 114.84 45.35
L 114.96 49.40
L 115.08 59.46
L 115.19 71.89
L 115.31 83.74
L 115.43 94.27
L 115.54 101.82
L 115.66 107.25
L 115.78 110.83
L 115.89 112.79
L 116.01 113.26
L 116.13 112.26
L 116.24 109.72
L 116.36 105.46
L 116.48 99.26
L 116.59 90.76
L 116.71 80.69
L 116.83 70.09
L 116.94 61.56
L 117.06 58.33
L 117.18 61.97
L 117.29 70.92
L 117.41 81.96
L 117.53 92.49
L 117.64 101.92
L 117.76 108.68
L 117.88 113.57
L 117.99 116.84
L 118.11 118.70
L 118.23 119.27
L 118.34 118.58
L 118.46 116.57
L 118.58 113.10
L 118.69 107.99
L 118.81 101.02
L 118.93 92.65
L 119.04 83.83
L 119.16 76.75
L 119.28 74.11
L 119.39 77.24
L 119.51 84.82
L 119.63 94.17
L 119.74 103.09
L 119.86 110.56
L 119.98 116.95
L 120.09 121.17
L 120.21 124.04
L 120.32 125.76
L 120.44 126.42
L 120.56 126.07
L 120.67 124.66
L 120.79 122.10
L 120.91 118.24
L 121.02 113.01
L 121.14 106.60
L 121.26 99.84
L 121.37 94.42
L 121.49 92.48
L 121.61 95.03
L 121.72 101.07
L 121.84 108.49
L 121.96 115.60
L 122.07 121.60
L 122.19 126.88
L 122.31 130.41
L 122.42 132.96
L 122.54 134.67
L 122.66 135.66
L 122.77 135.99
L 122.89 135.67
L 123.01 134.66
L 123.12 132.87
L 123.24 130.10
L 123.36 126.51
L 123.47 122.13
L 123.59 117.50
L 123.71 113.81
L 123.82 112.51
L 123.94 114.29
L 124.06 118.47
L 124.17 123.60
L 124.29 128.52
L 124.41 133.18
L 124.52 136.45
L 124.64 138.93
L 124.76 140.74
L 124.87 141.98
L 124.99 142.73
L 125.11 143.03
L 125.22 142.90
L 125.34 142.30
L 125.46 141.21
L 125.57 139.38
L 125.69 137.34
L 125.80 135.15
L 125.92 133.42
L 126.04 132.89
L 126.15 133.94
L 126.27 136.20
L 126.39 138.95
L 126.50 141.59
L 126.62 144.27
L 126.74 146.10
L 126.85 147.55
L 126.97 148.69
L 127.09 149.58
L 127.20 150.28
L 127.32 150.84
L 127.44 151.28
L 127.55 151.63
L 127.67 151.90
L 127.79 151.78
"/>
<path style="stroke:black; fill:none; stroke-linecap:round; stroke-linejoin:round"
d="M 127.79 151.78
L 127.90 151.93
L 128.02 152.03
L 128.14 152.09
L 128.25 152.11
L 128.37 152.09
L 128.49 152.03
L 128.60 151.93
L 128.72 151.78
L 128.84 151.90
L 128.95 151.62
L 129.07 151.27
L 129.19 150.83
L 129.30 150.27
L 129.42 149.57
L 129.54 148.68
L 129.65 147.54
L 129.77 146.09
L 129.89 144.25
L 130.00 141.54
L 130.12 138.88
L 130.24 136.13
L 130.35 133.86
L 130.47 132.83
L 130.59 133.39
L 130.70 135.17
L 130.82 137.43
L 130.94 139.55
L 131.05 141.24
L 131.17 142.66
L 131.28 143.37
L 131.40 143.66
L 131.52 143.54
L 131.63 143.04
L 131.75 142.12
L 131.87 140.73
L 131.98 138.78
L 132.10 136.17
L 132.22 132.23
L 132.33 127.91
L 132.45 122.83
L 132.57 117.53
L 132.68 113.21
L 132.80 111.32
L 132.92 112.58
L 133.03 116.26
L 133.15 120.87
L 133.27 125.23
L 133.38 128.86
L 133.50 131.40
L 133.62 133.01
L 133.73 133.78
L 133.85 133.78
L 133.97 133.01
L 134.08 131.44
L 134.20 128.97
L 134.32 125.45
L 134.43 120.09
L 134.55 113.98
L 134.67 106.72
L 134.78 99.12
L 134.90 92.94
L 135.02 90.34
L 135.13 92.36
L 135.25 97.94
L 135.37 104.92
L 135.48 111.52
L 135.60 116.90
L 135.72 120.87
L 135.83 123.50
L 135.95 124.94
L 136.07 125.28
L 136.18 124.58
L 136.30 122.78
L 136.42 119.78
L 136.53 115.39
L 136.65 109.39
L 136.76 100.98
L 136.88 91.70
L 137.00 81.98
L 137.11 74.09
L 137.23 70.84
L 137.35 73.57
L 137.46 80.92
L 137.58 90.08
L 137.70 98.76
L 137.81 105.99
L 137.93 111.28
L 138.05 114.87
L 138.16 116.94
L 138.28 117.62
L 138.40 117.00
L 138.51 115.03
L 138.63 111.58
L 138.75 106.44
L 138.86 99.34
L 138.98 89.42
L 139.10 78.36
L 139.21 66.77
L 139.33 57.37
L 139.45 53.55
L 139.56 56.93
L 139.68 65.87
L 139.80 76.99
L 139.91 87.54
L 140.03 96.22
L 140.15 102.95
L 140.26 107.41
L 140.38 110.06
L 140.50 111.09
L 140.61 110.58
L 140.73 108.50
L 140.85 104.71
L 140.96 98.97
L 141.08 90.98
L 141.20 79.83
L 141.31 67.31
L 141.43 54.19
L 141.55 43.58
L 141.66 39.36
L 141.78 43.39
L 141.90 53.81
L 142.01 66.74
L 142.13 79.07
L 142.24 89.31
L 142.36 97.45
L 142.48 103.02
L 142.59 106.63
L 142.71 108.55
L 142.83 108.91
L 142.94 107.76
L 143.06 105.02
L 143.18 100.50
L 143.29 93.90
L 143.41 84.12
L 143.53 72.44
L 143.64 58.50
L 143.76 43.90
L 143.88 32.08
L 143.99 27.30
L 144.11 31.61
L 144.23 42.94
L 144.34 57.03
L 144.46 70.42
L 144.58 81.89
L 144.69 90.21
L 144.81 96.00
L 144.93 99.54
L 145.04 101.08
L 145.16 100.73
L 145.28 98.49
L 145.39 94.20
L 145.51 87.57
L 145.63 77.51
L 145.74 65.32
L 145.86 50.65
L 145.98 35.24
L 146.09 22.79
L 146.21 17.83
L 146.33 22.56
L 146.44 34.79
L 146.56 49.95
L 146.68 64.37
L 146.79 76.79
L 146.91 85.79
L 147.03 92.08
L 147.14 95.99
L 147.26 97.76
L 147.37 97.55
L 147.49 95.34
L 147.61 90.96
L 147.72 84.14
L 147.84 74.53
L 147.96 61.18
L 148.07 45.96
L 148.19 29.97
L 148.31 17.05
L 148.42 11.94
L 148.54 16.93
L 148.66 29.72
L 148.77 45.58
L 148.89 60.66
L 149.01 73.73
L 149.12 83.17
L 149.24 89.80
L 149.36 93.96
L 149.47 95.91
L 149.59 95.82
L 149.71 93.66
L 149.82 89.29
L 149.94 82.41
L 150.06 72.68
L 150.17 59.17
L 150.29 43.72
L 150.41 27.48
L 150.52 14.36
L 150.64 9.20
L 150.76 14.34
L 150.87 27.43
L 150.99 43.65
"/>
<path style="stroke:black; fill:none; stroke-linecap:round; stroke-linejoin:round"
d="M 150.99 43.65
L 151.11 59.08
L 151.22 71.86
L 151.34 82.23
L 151.46 89.06
L 151.57 93.39
L 151.69 95.49
L 151.81 95.52
L 151.92 93.47
L 152.04 89.20
L 152.16 82.43
L 152.27 72.80
L 152.39 59.43
L 152.51 44.08
L 152.62 27.95
L 152.74 14.96
L 152.85 9.93
L 152.97 15.21
L 153.09 28.47
L 153.20 44.88
L 153.32 60.54
L 153.44 73.61
L 153.55 84.37
L 153.67 91.65
L 153.79 96.55
L 153.90 99.38
L 154.02 100.36
L 154.14 99.56
L 154.25 96.91
L 154.37 92.22
L 154.49 85.17
L 154.60 74.75
L 154.72 62.00
L 154.84 46.70
L 154.95 30.67
L 155.07 17.72
L 155.19 12.61
L 155.30 17.61
L 155.42 30.44
L 155.54 46.34
L 155.65 61.49
L 155.77 74.77
L 155.89 84.32
L 156.00 91.08
L 156.12 95.40
L 156.24 97.55
L 156.35 97.71
L 156.47 95.86
L 156.59 91.89
L 156.70 85.52
L 156.82 76.43
L 156.94 63.83
L 157.05 49.29
L 157.17 34.00
L 157.29 21.67
L 157.40 16.87
L 157.52 21.82
L 157.64 34.31
L 157.75 49.76
L 157.87 64.48
L 157.99 77.42
L 158.10 86.72
L 158.22 93.33
L 158.33 97.58
L 158.45 99.76
L 158.57 100.00
L 158.68 98.34
L 158.80 94.63
L 158.92 88.64
L 159.03 80.05
L 159.15 68.15
L 159.27 54.38
L 159.38 39.89
L 159.50 28.21
L 159.62 23.68
L 159.73 28.43
L 159.85 40.35
L 159.97 55.08
L 160.08 69.12
L 160.20 81.51
L 160.32 90.40
L 160.43 96.74
L 160.55 100.84
L 160.67 102.98
L 160.78 103.31
L 160.90 101.83
L 161.02 98.43
L 161.13 92.89
L 161.25 84.91
L 161.37 73.86
L 161.48 61.03
L 161.60 47.53
L 161.72 36.68
L 161.83 32.54
L 161.95 37.10
L 162.07 48.39
L 162.18 62.35
L 162.30 75.68
L 162.42 86.83
L 162.53 96.18
L 162.65 102.47
L 162.77 106.76
L 162.88 109.33
L 163.00 110.37
L 163.12 109.95
L 163.23 108.03
L 163.35 104.46
L 163.47 99.00
L 163.58 90.92
L 163.70 80.91
L 163.81 68.86
L 163.93 56.22
L 164.05 46.03
L 164.16 42.06
L 164.28 46.12
L 164.40 56.40
L 164.51 69.13
L 164.63 81.27
L 164.75 92.05
L 164.86 99.76
L 164.98 105.26
L 165.10 108.85
L 165.21 110.74
L 165.33 111.09
L 165.45 109.90
L 165.56 107.08
L 165.68 102.44
L 165.80 95.37
L 165.91 86.46
L 166.03 75.66
L 166.15 64.29
L 166.26 55.13
L 166.38 51.61
L 166.50 55.40
L 166.61 64.85
L 166.73 76.52
L 166.85 87.64
L 166.96 97.56
L 167.08 104.63
L 167.20 109.70
L 167.31 113.03
L 167.43 114.81
L 167.55 115.19
L 167.66 114.18
L 167.78 111.69
L 167.90 107.56
L 168.01 101.57
L 168.13 93.27
L 168.25 83.59
L 168.36 73.39
L 168.48 65.17
L 168.60 62.03
L 168.71 65.47
L 168.83 73.99
L 168.95 84.51
L 169.06 94.54
L 169.18 103.50
L 169.29 109.89
L 169.41 114.48
L 169.53 117.50
L 169.64 119.15
L 169.76 119.53
L 169.88 118.67
L 169.99 116.49
L 170.11 112.85
L 170.23 107.56
L 170.34 100.23
L 170.46 91.64
L 170.58 82.60
L 170.69 75.33
L 170.81 72.56
L 170.93 75.63
L 171.04 83.22
L 171.16 92.58
L 171.28 101.51
L 171.39 108.95
L 171.51 115.24
L 171.63 119.34
L 171.74 122.06
L 171.86 123.55
L 171.98 123.93
L 172.09 123.22
L 172.21 121.35
L 172.33 118.19
L 172.44 113.59
L 172.56 107.20
L 172.68 99.71
L 172.79 91.82
L 172.91 85.48
L 173.03 83.11
L 173.14 85.86
L 173.26 92.59
L 173.38 100.89
L 173.49 108.82
L 173.61 115.47
L 173.73 121.16
L 173.84 124.95
L 173.96 127.57
L 174.08 129.20
L 174.19 129.94
"/>
<path style="stroke:black; fill:none; stroke-linecap:round; stroke-linejoin:round"
d="M 174.19 129.94
L 174.31 129.84
L 174.43 128.89
L 174.54 127.01
L 174.66 124.07
L 174.77 119.71
L 174.89 114.24
L 175.01 107.63
L 175.12 100.69
L 175.24 95.11
L 175.36 92.96
L 175.47 95.27
L 175.59 101.01
L 175.71 108.11
L 175.82 114.89
L 175.94 121.01
L 176.06 125.34
L 176.17 128.47
L 176.29 130.54
L 176.41 131.69
L 176.52 132.01
L 176.64 131.50
L 176.76 130.13
L 176.87 127.80
L 176.99 124.23
L 177.11 119.66
L 177.22 114.09
L 177.34 108.23
L 177.46 103.51
L 177.57 101.73
L 177.69 103.75
L 177.81 108.72
L 177.92 114.84
L 178.04 120.67
L 178.16 125.96
L 178.27 129.70
L 178.39 132.40
L 178.51 134.20
L 178.62 135.22
L 178.74 135.52
L 178.86 135.12
L 178.97 133.98
L 179.09 132.03
L 179.21 129.16
L 179.32 125.17
L 179.44 120.48
L 179.56 115.53
L 179.67 111.55
L 179.79 110.05
L 179.91 111.77
L 180.02 115.99
L 180.14 121.18
L 180.25 126.13
L 180.37 130.63
L 180.49 133.81
L 180.60 136.11
L 180.72 137.65
L 180.84 138.52
L 180.95 138.79
L 181.07 138.48
L 181.19 137.54
L 181.30 135.92
L 181.42 133.53
L 181.54 130.21
L 181.65 126.29
L 181.77 122.15
L 181.89 118.83
L 182.00 117.59
L 182.12 119.04
L 182.24 122.57
L 182.35 126.93
L 182.47 131.08
L 182.59 134.55
L 182.70 137.54
L 182.82 139.48
L 182.94 140.78
L 183.05 141.53
L 183.17 141.77
L 183.29 141.53
L 183.40 140.77
L 183.52 139.44
L 183.64 137.48
L 183.75 134.75
L 183.87 131.52
L 183.99 128.12
L 184.10 125.39
L 184.22 124.38
L 184.34 125.61
L 184.45 128.56
L 184.57 132.20
L 184.69 135.68
L 184.80 138.60
L 184.92 141.15
L 185.04 142.83
L 185.15 144.00
L 185.27 144.75
L 185.38 145.12
L 185.50 145.13
L 185.62 144.78
L 185.73 144.05
L 185.85 142.87
L 185.97 141.13
L 186.08 138.90
L 186.20 136.21
L 186.32 133.38
L 186.43 131.11
L 186.55 130.25
L 186.67 131.22
L 186.78 133.60
L 186.90 136.54
L 187.02 139.34
L 187.13 141.92
L 187.25 143.72
L 187.37 145.03
L 187.48 145.92
L 187.60 146.43
L 187.72 146.60
L 187.83 146.45
L 187.95 145.95
L 188.07 145.08
L 188.18 143.78
L 188.30 141.98
L 188.42 139.84
L 188.53 137.59
L 188.65 135.77
L 188.77 135.10
L 188.88 135.90
L 189.00 137.85
L 189.12 140.24
L 189.23 142.52
L 189.35 144.62
L 189.47 146.10
L 189.58 147.17
L 189.70 147.89
L 189.82 148.32
L 189.93 148.47
L 190.05 148.36
L 190.17 147.97
L 190.28 147.28
L 190.40 146.25
L 190.52 144.81
L 190.63 143.11
L 190.75 141.30
L 190.86 139.86
L 190.98 139.32
L 191.10 139.97
L 191.21 141.53
L 191.33 143.45
L 191.45 145.28
L 191.56 146.98
L 191.68 148.16
L 191.80 149.02
L 191.91 149.61
L 192.03 149.95
L 192.15 150.08
L 192.26 150.00
L 192.38 149.70
L 192.50 149.16
L 192.61 148.35
L 192.73 147.22
L 192.85 145.88
L 192.96 144.46
L 193.08 143.32
L 193.20 142.91
L 193.31 143.43
L 193.43 144.68
L 193.55 146.21
L 193.66 147.68
L 193.78 148.92
L 193.90 150.01
L 194.01 150.73
L 194.13 151.23
L 194.25 151.56
L 194.36 151.72
L 194.48 151.75
L 194.60 151.62
L 194.71 151.34
L 194.83 150.88
L 194.95 150.19
L 195.06 149.30
L 195.18 148.23
L 195.30 147.10
L 195.41 146.20
L 195.53 145.86
L 195.65 146.25
L 195.76 147.21
L 195.88 148.40
L 196.00 149.54
L 196.11 150.59
L 196.23 151.32
L 196.34 151.86
L 196.46 152.22
L 196.58 152.44
L 196.69 152.52
L 196.81 152.47
L 196.93 152.29
L 197.04 151.97
L 197.16 151.46
L 197.28 150.79
L 197.39 149.98
"/>
<path style="stroke:black; fill:none; stroke-linecap:round; stroke-linejoin:round"
d="M 197.39 149.98
L 197.51 149.12
L 197.63 148.42
L 197.74 148.17
L 197.86 148.48
L 197.98 149.24
L 198.09 150.16
L 198.21 151.05
L 198.33 151.87
L 198.44 152.44
L 198.56 152.86
L 198.68 153.15
L 198.79 153.32
L 198.91 153.39
L 199.03 153.36
L 199.14 153.22
L 199.26 152.97
L 199.38 152.60
L 199.49 152.08
L 199.61 151.45
L 199.73 150.80
L 199.84 150.27
L 199.96 150.07
L 200.08 150.32
L 200.19 150.89
L 200.31 151.61
L 200.43 152.28
L 200.54 152.92
L 200.66 153.36
L 200.78 153.68
L 200.89 153.90
L 201.01 154.04
L 201.13 154.09
L 201.24 154.07
L 201.36 153.97
L 201.48 153.78
L 201.59 153.50
L 201.71 153.11
L 201.82 152.64
L 201.94 152.14
L 202.06 151.74
L 202.17 151.59
L 202.29 151.78
L 202.41 152.22
L 202.52 152.76
L 202.64 153.27
L 202.76 153.71
L 202.87 154.09
L 202.99 154.34
L 203.11 154.51
L 203.22 154.61
L 203.34 154.66
L 203.46 154.64
L 203.57 154.57
L 203.69 154.43
L 203.81 154.22
L 203.92 153.93
L 204.04 153.57
L 204.16 153.20
L 204.27 152.90
L 204.39 152.80
L 204.51 152.94
L 204.62 153.27
L 204.74 153.68
L 204.86 154.07
L 204.97 154.40
L 205.09 154.70
L 205.21 154.89
L 205.32 155.03
L 205.44 155.12
L 205.56 155.17
L 205.67 155.18
L 205.79 155.15
L 205.91 155.09
L 206.02 154.97
L 206.14 154.80
L 206.26 154.58
L 206.37 154.32
L 206.49 154.04
L 206.61 153.81
L 206.72 153.73
L 206.84 153.83
L 206.96 154.07
L 207.07 154.37
L 207.19 154.66
L 207.30 154.93
L 207.42 155.12
L 207.54 155.25
L 207.65 155.35
L 207.77 155.41
L 207.89 155.43
L 208.00 155.42
L 208.12 155.38
L 208.24 155.31
L 208.35 155.19
L 208.47 155.03
L 208.59 154.84
L 208.70 154.64
L 208.82 154.47
L 208.94 154.42
L 209.05 154.49
L 209.17 154.67
L 209.29 154.90
L 209.40 155.11
L 209.52 155.31
L 209.64 155.45
L 209.75 155.55
L 209.87 155.62
L 209.99 155.66
L 210.10 155.68
L 210.22 155.68
L 210.34 155.65
L 210.45 155.60
L 210.57 155.51
L 210.69 155.40
L 210.80 155.26
L 210.92 155.11
L 211.04 154.99
L 211.15 154.95
L 211.27 155.01
L 211.39 155.14
L 211.50 155.30
L 211.62 155.45
L 211.74 155.60
L 211.85 155.70
L 211.97 155.78
L 212.09 155.83
L 212.20 155.86
L 212.32 155.87
L 212.44 155.87
L 212.55 155.85
L 212.67 155.81
L 212.78 155.75
L 212.90 155.67
L 213.02 155.57
L 213.13 155.47
L 213.25 155.38
L 213.37 155.35
L 213.48 155.39
L 213.60 155.49
L 213.72 155.60
L 213.83 155.71
L 213.95 155.81
L 214.07 155.89
L 214.18 155.95
L 214.30 155.99
L 214.42 156.01
L 214.53 156.02
L 214.65 156.02
L 214.77 156.00
L 214.88 155.98
L 215.00 155.94
L 215.12 155.88
L 215.23 155.81
L 215.35 155.73
L 215.47 155.67
L 215.58 155.65
L 215.70 155.68
L 215.82 155.75
L 215.93 155.83
L 216.05 155.91
L 216.17 155.98
L 216.28 156.04
L 216.40 156.08
L 216.52 156.11
L 216.63 156.13
L 216.75 156.14
L 216.87 156.14
L 216.98 156.14
L 217.10 156.13
L 217.22 156.11
L 217.33 156.07
L 217.45 156.03
L 217.57 155.98
L 217.68 155.93
L 217.80 155.88
L 217.92 155.87
L 218.03 155.89
L 218.15 155.94
L 218.26 155.99
L 218.38 156.05
L 218.50 156.10
L 218.61 156.14
L 218.73 156.17
L 218.85 156.19
L 218.96 156.20
L 219.08 156.20
L 219.20 156.20
L 219.31 156.20
L 219.43 156.18
L 219.55 156.16
L 219.66 156.13
L 219.78 156.10
L 219.90 156.06
L 220.01 156.03
L 220.13 156.02
L 220.25 156.04
L 220.36 156.07
L 220.48 156.11
L 220.60 156.15
"/>
<path style="stroke:black; fill:none; stroke-linecap:round; stroke-linejoin:round"
d="M 220.60 156.15
L 220.71 156.19
L 220.83 156.21
L 220.95 156.23
L 221.06 156.25
L 221.18 156.25
L 221.30 156.26
L 221.41 156.26
L 221.53 156.25
L 221.65 156.24
L 221.76 156.23
L 221.88 156.21
L 222.00 156.19
L 222.11 156.16
L 222.23 156.14
L 222.35 156.13
L 222.46 156.14
L 222.58 156.17
L 222.70 156.19
L 222.81 156.22
L 222.93 156.25
L 223.05 156.27
L 223.16 156.28
L 223.28 156.29
L 223.39 156.29
L 223.51 156.30
L 223.63 156.30
L 223.74 156.29
L 223.86 156.29
L 223.98 156.28
L 224.09 156.27
L 224.21 156.25
L 224.33 156.23
L 224.44 156.22
L 224.56 156.21
L 224.68 156.22
L 224.79 156.24
L 224.91 156.26
L 225.03 156.27
L 225.14 156.29
L 225.26 156.31
L 225.38 156.31
L 225.49 156.32
L 225.61 156.33
L 225.73 156.33
L 225.84 156.33
L 225.96 156.33
L 226.08 156.33
L 226.19 156.32
L 226.31 156.31
L 226.43 156.31
L 226.54 156.29
L 226.66 156.28
L 226.78 156.27
L 226.89 156.27
L 227.01 156.27
L 227.13 156.28
L 227.24 156.30
L 227.36 156.31
L 227.48 156.32
L 227.59 156.33
L 227.71 156.34
L 227.83 156.34
L 227.94 156.34
L 228.06 156.35
L 228.18 156.35
L 228.29 156.34
L 228.41 156.34
L 228.53 156.34
L 228.64 156.33
L 228.76 156.32
L 228.87 156.32
L 228.99 156.31
L 229.11 156.31
L 229.22 156.31
L 229.34 156.32
L 229.46 156.33
L 229.57 156.33
L 229.69 156.34
L 229.81 156.35
L 229.92 156.35
L 230.04 156.36
L 230.16 156.36
L 230.27 156.36
L 230.39 156.36
L 230.51 156.36
L 230.62 156.36
L 230.74 156.35
L 230.86 156.35
L 230.97 156.34
L 231.09 156.34
L 231.21 156.33
L 231.32 156.33
L 231.44 156.34
L 231.56 156.34
L 231.67 156.35
L 231.79 156.35
L 231.91 156.36
L 232.02 156.36
L 232.14 156.36
L 232.26 156.37
L 232.37 156.37
L 232.49 156.37
L 232.61 156.37
L 232.72 156.37
L 232.84 156.37
L 232.96 156.36
L 233.07 156.36
L 233.19 156.36
L 233.31 156.35
L 233.42 156.35
L 233.54 156.35
L 233.66 156.35
L 233.77 156.36
L 233.89 156.36
L 234.01 156.36
L 234.12 156.37
L 234.24 156.37
L 234.35 156.37
L 234.47 156.37
L 234.59 156.37
L 234.70 156.37
L 234.82 156.37
L 234.94 156.37
L 235.05 156.37
L 235.17 156.37
L 235.29 156.37
L 235.40 156.37
L 235.52 156.37
L 235.64 156.36
L 235.75 156.36
L 235.87 156.36
L 235.99 156.37
L 236.10 156.37
L 236.22 156.37
L 236.34 156.37
L 236.45 156.38
L 236.57 156.38
L 236.69 156.38
L 236.80 156.38
L 236.92 156.38
L 237.04 156.38
L 237.15 156.38
L 237.27 156.38
L 237.39 156.38
L 237.50 156.38
L 237.62 156.38
L 237.74 156.37
L 237.85 156.37
L 237.97 156.37
L 238.09 156.37
L 238.20 156.37
L 238.32 156.37
L 238.44 156.37
L 238.55 156.38
L 238.67 156.38
L 238.79 156.38
L 238.90 156.38
L 239.02 156.38
L 239.14 156.38
L 239.25 156.38
L 239.37 156.38
L 239.49 156.38
L 239.60 156.38
L 239.72 156.38
L 239.83 156.38
L 239.95 156.38
L 240.07 156.38
L 240.18 156.38
L 240.30 156.38
L 240.42 156.38
L 240.53 156.38
L 240.65 156.38
L 240.77 156.38
L 240.88 156.38
L 241.00 156.38
L 241.12 156.38
L 241.23 156.38
L 241.35 156.38
L 241.47 156.38
L 241.58 156.38
L 241.70 156.38
L 241.82 156.38
L 241.93 156.38
L 242.05 156.38
L 242.17 156.38
L 242.28 156.38
L 242.40 156.38
L 242.52 156.38
L 242.63 156.38
L 242.75 156.38
L 242.87 156.38
L 242.98 156.38
L 243.10 156.38
L 243.22 156.38
L 243.33 156.39
L 243.45 156.39
L 243.57 156.39
L 243.68 156.39
L 243.80 156.39
"/>
<path style="stroke:black; fill:none; stroke-linecap:round; stroke-linejoin:round"
d="M 243.80 156.39
L 243.92 156.39
L 244.03 156.39
L 244.15 156.39
L 244.27 156.39
L 244.38 156.39
L 244.50 156.39
L 244.62 156.39
L 244.73 156.39
L 244.85 156.39
"/>
<path style="stroke:black; fill:none; stroke-linecap:round; stroke-linejoin:round"
d="M 11.77 152.54
L 12.70 152.54
"/>
<path style="stroke:black; fill:none; stroke-linecap:round; stroke-linejoin:round"
d="M 11.77 148.70
L 12.70 148.70
"/>
<path style="stroke:black; fill:none; stroke-linecap:round; stroke-linejoin:round"
d="M 11.77 144.86
L 12.70 144.86
"/>
<path style="stroke:black; fill:none; stroke-linecap:round; stroke-linejoin:round"
d="M 11.77 141.02
L 12.70 141.02
"/>
<path style="stroke:black; fill:none; stroke-linecap:round; stroke-linejoin:round"
d="M 11.77 156.39
L 11.77 9.20
"/>
<text x="11.53" y="138.22" style="font-size:2.76; fill:black; text-anchor:end
">0.001</text>
<path style="stroke:black; fill:none; stroke-linecap:round; stroke-linejoin:round"
d="M 11.77 137.18
L 13.62 137.18
"/>
<path style="stroke:black; fill:none; stroke-linecap:round; stroke-linejoin:round"
d="M 11.77 133.33
L 12.70 133.33
"/>
<path style="stroke:black; fill:none; stroke-linecap:round; stroke-linejoin:round"
d="M 11.77 129.49
L 12.70 129.49
"/>
<path style="stroke:black; fill:none; stroke-linecap:round; stroke-linejoin:round"
d="M 11.77 125.65
L 12.70 125.65
"/>
<path style="stroke:black; fill:none; stroke-linecap:round; stroke-linejoin:round"
d="M 11.77 121.81
L 12.70 121.81
"/>
<text x="11.53" y="119.01" style="font-size:2.76; fill:black; text-anchor:end
">0.002</text>
<path style="stroke:black; fill:none; stroke-linecap:round; stroke-linejoin:round"
d="M 11.77 117.97
L 13.62 117.97
"/>
<path style="stroke:black; fill:none; stroke-linecap:round; stroke-linejoin:round"
d="M 11.77 114.13
L 12.70 114.13
"/>
<path style="stroke:black; fill:none; stroke-linecap:round; stroke-linejoin:round"
d="M 11.77 110.28
L 12.70 110.28
"/>
<path style="stroke:black; fill:none; stroke-linecap:round; stroke-linejoin:round"
d="M 11.77 106.44
L 12.70 106.44
"/>
<path style="stroke:black; fill:none; stroke-linecap:round; stroke-linejoin:round"
d="M 11.77 102.60
L 12.70 102.60
"/>
<text x="11.53" y="99.80" style="font-size:2.76; fill:black; text-anchor:end
">0.003</text>
<path style="stroke:black; fill:none; stroke-linecap:round; stroke-linejoin:round"
d="M 11.77 98.76
L 13.62 98.76
"/>
<path style="stroke:black; fill:none; stroke-linecap:round; stroke-linejoin:round"
d="M 11.77 94.92
L 12.70 94.92
"/>
<path style="stroke:black; fill:none; stroke-linecap:round; stroke-linejoin:round"
d="M 11.77 91.07
L 12.70 91.07
"/>
<path style="stroke:black; fill:none; stroke-linecap:round; stroke-linejoin:round"
d="M 11.77 87.23
L 12.70 87.23
"/>
<path style="stroke:black; fill:none; stroke-linecap:round; stroke-linejoin:round"
d="M 11.77 83.39
L 12.70 83.39
"/>
<text x="11.53" y="80.59" style="font-size:2.76; fill:black; text-anchor:end
">0.004</text>
<path style="stroke:black; fill:none; stroke-linecap:round; stroke-linejoin:round"
d="M 11.77 79.55
L 13.62 79.55
"/>
<path style="stroke:black; fill:none; stroke-linecap:round; stroke-linejoin:round"
d="M 11.77 75.71
L 12.70 75.71
"/>
<path style="stroke:black; fill:none; stroke-linecap:round; stroke-linejoin:round"
d="M 11.77 71.86
L 12.70 71.86
"/>
<path style="stroke:black; fill:none; stroke-linecap:round; stroke-linejoin:round"
d="M 11.77 68.02
L 12.70 68.02
"/>
<path style="stroke:black; fill:none; stroke-linecap:round; stroke-linejoin:round"
d="M 11.77 64.18
L 12.70 64.18
"/>
<text x="11.53" y="61.38" style="font-size:2.76; fill:black; text-anchor:end
">0.005</text>
<path style="stroke:black; fill:none; stroke-linecap:round; stroke-linejoin:round"
d="M 11.77 60.34
L 13.62 60.34
"/>
<path style="stroke:black; fill:none; stroke-linecap:round; stroke-linejoin:round"
d="M 11.77 56.50
L 12.70 56.50
"/>
<path style="stroke:black; fill:none; stroke-linecap:round; stroke-linejoin:round"
d="M 11.77 52.66
L 12.70 52.66
"/>
<path style="stroke:black; fill:none; stroke-linecap:round; stroke-linejoin:round"
d="M 11.77 48.81
L 12.70 48.81
"/>
<path style="stroke:black; fill:none; stroke-linecap:round; stroke-linejoin:round"
d="M 11.77 44.97
L 12.70 44.97
"/>
<text x="11.53" y="42.17" style="font-size:2.76; fill:black; text-anchor:end
">0.006</text>
<path style="stroke:black; fill:none; stroke-linecap:round; stroke-linejoin:round"
d="M 11.77 41.13
L 13.62 41.13
"/>
<path style="stroke:black; fill:none; stroke-linecap:round; stroke-linejoin:round"
d="M 11.77 37.29
L 12.70 37.29
"/>
<path style="stroke:black; fill:none; stroke-linecap:round; stroke-linejoin:round"
d="M 11.77 33.45
L 12.70 33.45
"/>
<path style="stroke:black; fill:none; stroke-linecap:round; stroke-linejoin:round"
d="M 11.77 29.60
L 12.70 29.60
"/>
<path style="stroke:black; fill:none; stroke-linecap:round; stroke-linejoin:round"
d="M 11.77 25.76
L 12.70 25.76
"/>
<text x="11.53" y="22.96" style="font-size:2.76; fill:black; text-anchor:end
">0.007</text>
<path style="stroke:black; fill:none; stroke-linecap:round; stroke-linejoin:round"
d="M 11.77 21.92
L 13.62 21.92
"/>
<path style="stroke:black; fill:none; stroke-linecap:round; stroke-linejoin:round"
d="M 11.77 18.08
L 12.70 18.08
"/>
<path style="stroke:black; fill:none; stroke-linecap:round; stroke-linejoin:round"
d="M 11.77 14.24
L 12.70 14.24
"/>
<path style="stroke:black; fill:none; stroke-linecap:round; stroke-linejoin:round"
d="M 11.77 10.40
L 12.70 10.40
"/>
<g transform="translate(2.96,82.79) rotate(270.0)">
<text x="0.00" y="0.00" style="font-size:2.76; fill:black; text-anchor:middle
">Normalized Intensity / cm-1</text>
</g>
</svg>
