<?xml version="1.0" encoding="UTF-8" standalone="no"?>
<!DOCTYPE svg PUBLIC "-//W3C//DTD SVG 1.1//EN" "http://www.w3.org/Graphics/SVG/1.1/DTD/svg11.dtd">
<svg version="1.1" xmlns="http://www.w3.org/2000/svg" width="250.000 mm" height="170.000 mm">

<path style="stroke:black; fill:none; stroke-linecap:round; stroke-linejoin:round"
d="M 16.31 161.33
L 16.31 160.05
"/>
<path style="stroke:black; fill:none; stroke-linecap:round; stroke-linejoin:round"
d="M 16.31 161.33
L 242.86 161.33
"/>
<text x="20.67" y="165.67" style="font-size:3.82; fill:black; text-anchor:middle
">900</text>
<path style="stroke:black; fill:none; stroke-linecap:round; stroke-linejoin:round"
d="M 20.67 161.33
L 20.67 158.78
"/>
<path style="stroke:black; fill:none; stroke-linecap:round; stroke-linejoin:round"
d="M 25.02 161.33
L 25.02 160.05
"/>
<path style="stroke:black; fill:none; stroke-linecap:round; stroke-linejoin:round"
d="M 29.38 161.33
L 29.38 160.05
"/>
<path style="stroke:black; fill:none; stroke-linecap:round; stroke-linejoin:round"
d="M 33.73 161.33
L 33.73 160.05
"/>
<path style="stroke:black; fill:none; stroke-linecap:round; stroke-linejoin:round"
d="M 38.09 161.33
L 38.09 160.05
"/>
<text x="42.44" y="165.67" style="font-size:3.82; fill:black; text-anchor:middle
">920</text>
<path style="stroke:black; fill:none; stroke-linecap:round; stroke-linejoin:round"
d="M 42.44 161.33
L 42.44 158.78
"/>
<path style="stroke:black; fill:none; stroke-linecap:round; stroke-linejoin:round"
d="M 46.80 161.33
L 46.80 160.05
"/>
<path style="stroke:black; fill:none; stroke-linecap:round; stroke-linejoin:round"
d="M 51.15 161.33
L 51.15 160.05
"/>
<path style="stroke:black; fill:none; stroke-linecap:round; stroke-linejoin:round"
d="M 55.51 161.33
L 55.51 160.05
"/>
<path style="stroke:black; fill:none; stroke-linecap:round; stroke-linejoin:round"
d="M 59.86 161.33
L 59.86 160.05
"/>
<text x="64.22" y="165.67" style="font-size:3.82; fill:black; text-anchor:middle
">940</text>
<path style="stroke:black; fill:none; stroke-linecap:round; stroke-linejoin:round"
d="M 64.22 161.33
L 64.22 158.78
"/>
<path style="stroke:black; fill:none; stroke-linecap:round; stroke-linejoin:round"
d="M 68.57 161.33
L 68.57 160.05
"/>
<path style="stroke:black; fill:none; stroke-linecap:round; stroke-linejoin:round"
d="M 72.93 161.33
L 72.93 160.05
"/>
<path style="stroke:black; fill:none; stroke-linecap:round; stroke-linejoin:round"
d="M 77.28 161.33
L 77.28 160.05
"/>
<path style="stroke:black; fill:none; stroke-linecap:round; stroke-linejoin:round"
d="M 81.64 161.33
L 81.64 160.05
"/>
<text x="85.99" y="165.67" style="font-size:3.82; fill:black; text-anchor:middle
">960</text>
<path style="stroke:black; fill:none; stroke-linecap:round; stroke-linejoin:round"
d="M 85.99 161.33
L 85.99 158.78
"/>
<path style="stroke:black; fill:none; stroke-linecap:round; stroke-linejoin:round"
d="M 90.35 161.33
L 90.35 160.05
"/>
<path style="stroke:black; fill:none; stroke-linecap:round; stroke-linejoin:round"
d="M 94.70 161.33
L 94.70 160.05
"/>
<path style="stroke:black; fill:none; stroke-linecap:round; stroke-linejoin:round"
d="M 99.06 161.33
L 99.06 160.05
"/>
<path style="stroke:black; fill:none; stroke-linecap:round; stroke-linejoin:round"
d="M 103.41 161.33
L 103.41 160.05
"/>
<text x="107.77" y="165.67" style="font-size:3.82; fill:black; text-anchor:middle
">980</text>
<path style="stroke:black; fill:none; stroke-linecap:round; stroke-linejoin:round"
d="M 107.77 161.33
L 107.77 158.78
"/>
<path style="stroke:black; fill:none; stroke-linecap:round; stroke-linejoin:round"
d="M 112.12 161.33
L 112.12 160.05
"/>
<path style="stroke:black; fill:none; stroke-linecap:round; stroke-linejoin:round"
d="M 116.48 161.33
L 116.48 160.05
"/>
<path style="stroke:black; fill:none; stroke-linecap:round; stroke-linejoin:round"
d="M 120.83 161.33
L 120.83 160.05
"/>
<path style="stroke:black; fill:none; stroke-linecap:round; stroke-linejoin:round"
d="M 125.19 161.33
L 125.19 160.05
"/>
<text x="129.54" y="165.67" style="font-size:3.82; fill:black; text-anchor:middle
">1000</text>
<path style="stroke:black; fill:none; stroke-linecap:round; stroke-linejoin:round"
d="M 129.54 161.33
L 129.54 158.78
"/>
<path style="stroke:black; fill:none; stroke-linecap:round; stroke-linejoin:round"
d="M 133.90 161.33
L 133.90 160.05
"/>
<path style="stroke:black; fill:none; stroke-linecap:round; stroke-linejoin:round"
d="M 138.25 161.33
L 138.25 160.05
"/>
<path style="stroke:black; fill:none; stroke-linecap:round; stroke-linejoin:round"
d="M 142.61 161.33
L 142.61 160.05
"/>
<path style="stroke:black; fill:none; stroke-linecap:round; stroke-linejoin:round"
d="M 146.96 161.33
L 146.96 160.05
"/>
<text x="151.32" y="165.67" style="font-size:3.82; fill:black; text-anchor:middle
">1020</text>
<path style="stroke:black; fill:none; stroke-linecap:round; stroke-linejoin:round"
d="M 151.32 161.33
L 151.32 158.78
"/>
<path style="stroke:black; fill:none; stroke-linecap:round; stroke-linejoin:round"
d="M 155.67 161.33
L 155.67 160.05
"/>
<path style="stroke:black; fill:none; stroke-linecap:round; stroke-linejoin:round"
d="M 160.03 161.33
L 160.03 160.05
"/>
<path style="stroke:black; fill:none; stroke-linecap:round; stroke-linejoin:round"
d="M 164.38 161.33
L 164.38 160.05
"/>
<path style="stroke:black; fill:none; stroke-linecap:round; stroke-linejoin:round"
d="M 168.74 161.33
L 168.74 160.05
"/>
<text x="173.10" y="165.67" style="font-size:3.82; fill:black; text-anchor:middle
">1040</text>
<path style="stroke:black; fill:none; stroke-linecap:round; stroke-linejoin:round"
d="M 173.10 161.33
L 173.10 158.78
"/>
<path style="stroke:black; fill:none; stroke-linecap:round; stroke-linejoin:round"
d="M 177.45 161.33
L 177.45 160.05
"/>
<path style="stroke:black; fill:none; stroke-linecap:round; stroke-linejoin:round"
d="M 181.81 161.33
L 181.81 160.05
"/>
<path style="stroke:black; fill:none; stroke-linecap:round; stroke-linejoin:round"
d="M 186.16 161.33
L 186.16 160.05
"/>
<path style="stroke:black; fill:none; stroke-linecap:round; stroke-linejoin:round"
d="M 190.52 161.33
L 190.52 160.05
"/>
<text x="194.87" y="165.67" style="font-size:3.82; fill:black; text-anchor:middle
">1060</text>
<path style="stroke:black; fill:none; stroke-linecap:round; stroke-linejoin:round"
d="M 194.87 161.33
L 194.87 158.78
"/>
<path style="stroke:black; fill:none; stroke-linecap:round; stroke-linejoin:round"
d="M 199.23 161.33
L 199.23 160.05
"/>
<path style="stroke:black; fill:none; stroke-linecap:round; stroke-linejoin:round"
d="M 203.58 161.33
L 203.58 160.05
"/>
<path style="stroke:black; fill:none; stroke-linecap:round; stroke-linejoin:round"
d="M 207.94 161.33
L 207.94 160.05
"/>
<path style="stroke:black; fill:none; stroke-linecap:round; stroke-linejoin:round"
d="M 212.29 161.33
L 212.29 160.05
"/>
<text x="216.65" y="165.67" style="font-size:3.82; fill:black; text-anchor:middle
">1080</text>
<path style="stroke:black; fill:none; stroke-linecap:round; stroke-linejoin:round"
d="M 216.65 161.33
L 216.65 158.78
"/>
<path style="stroke:black; fill:none; stroke-linecap:round; stroke-linejoin:round"
d="M 221.00 161.33
L 221.00 160.05
"/>
<path style="stroke:black; fill:none; stroke-linecap:round; stroke-linejoin:round"
d="M 225.36 161.33
L 225.36 160.05
"/>
<path style="stroke:black; fill:none; stroke-linecap:round; stroke-linejoin:round"
d="M 229.71 161.33
L 229.71 160.05
"/>
<path style="stroke:black; fill:none; stroke-linecap:round; stroke-linejoin:round"
d="M 234.07 161.33
L 234.07 160.05
"/>
<text x="238.42" y="165.67" style="font-size:3.82; fill:black; text-anchor:middle
">1100</text>
<path style="stroke:black; fill:none; stroke-linecap:round; stroke-linejoin:round"
d="M 238.42 161.33
L 238.42 158.78
"/>
<path style="stroke:black; fill:none; stroke-linecap:round; stroke-linejoin:round"
d="M 242.78 161.33
L 242.78 160.05
"/>
<text x="129.59" y="169.57" style="font-size:3.82; fill:black; text-anchor:middle
">Wavenumber/cm-1</text>
<path style="stroke:black; fill:none; stroke-linecap:round; stroke-linejoin:round"
d="M 16.31 154.20
L 47.36 154.20
L 47.36 154.19
L 47.36 154.20
L 48.50 154.20
L 48.50 154.19
L 48.50 154.20
L 49.63 154.20
L 49.63 154.19
L 49.63 154.20
L 50.76 154.20
L 50.76 154.18
L 50.76 154.20
L 51.90 154.20
L 51.90 154.17
L 51.90 154.20
L 53.14 154.20
L 53.14 154.15
L 53.14 154.20
L 54.28 154.20
L 54.28 154.13
L 54.28 154.20
L 55.52 154.20
L 55.52 154.09
L 55.52 154.20
L 56.88 154.20
L 56.88 154.04
L 56.88 154.20
L 58.13 154.20
L 58.13 153.97
L 58.13 154.20
L 59.38 154.20
L 59.38 153.86
L 59.38 154.20
L 60.74 154.20
L 60.74 153.72
L 60.74 154.20
L 62.10 154.20
L 62.10 153.52
L 62.10 154.20
L 63.46 154.20
L 63.46 153.24
L 63.46 154.20
L 64.82 154.20
L 64.82 152.87
L 64.82 154.20
L 66.29 154.20
L 66.29 152.37
L 66.29 154.20
L 67.76 154.20
L 67.76 151.72
L 67.76 154.20
L 69.24 154.20
L 69.24 150.86
L 69.24 154.20
L 70.71 154.20
L 70.71 149.76
L 70.71 154.20
L 72.18 154.20
L 72.18 148.35
L 72.18 154.20
L 73.66 154.20
L 73.66 146.58
L 73.66 154.20
L 75.24 154.20
L 75.24 144.38
L 75.24 154.20
L 76.83 154.20
L 76.83 141.68
L 76.83 154.20
L 78.42 154.20
L 78.42 138.40
L 78.42 154.20
L 80.00 154.20
L 80.00 134.49
L 80.00 154.20
L 81.59 154.20
L 81.59 129.88
L 81.59 154.20
L 83.29 154.20
L 83.29 124.53
L 83.29 154.20
L 84.99 154.20
L 84.99 118.41
L 84.99 154.20
L 86.69 154.20
L 86.69 111.51
L 86.69 154.20
L 88.39 154.20
L 88.39 103.88
L 88.39 154.20
L 90.09 154.20
L 90.09 95.58
L 90.09 154.20
L 91.90 154.20
L 91.90 86.73
L 91.90 154.20
L 93.72 154.20
L 93.72 77.51
L 93.72 154.20
L 95.53 154.20
L 95.53 68.12
L 95.53 154.20
L 97.34 154.20
L 97.34 58.83
L 97.34 154.20
L 99.16 154.20
L 99.16 49.96
L 99.16 154.20
L 101.08 154.20
L 101.08 41.86
L 101.08 154.20
L 102.90 154.20
L 102.90 34.89
L 102.90 154.20
L 104.82 154.20
L 104.82 29.44
L 104.82 154.20
L 106.75 154.20
L 106.75 25.88
L 106.75 154.20
L 108.79 154.20
L 108.79 24.57
L 108.79 154.20
L 110.72 154.20
L 110.72 25.79
L 110.72 154.20
L 112.76 154.20
L 112.76 29.76
L 112.76 154.20
L 114.80 154.20
L 114.80 36.63
L 114.80 154.20
L 116.84 154.20
L 116.84 46.43
L 116.84 154.20
L 118.88 154.20
L 118.88 59.07
L 118.88 154.20
L 120.92 154.20
L 120.92 74.36
L 120.92 154.20
L 123.07 154.20
L 123.07 91.98
L 123.07 154.20
L 125.22 154.20
L 125.22 111.51
L 125.22 154.20
L 127.38 154.20
L 127.38 132.44
L 127.38 154.20
L 131.80 154.20
L 131.80 132.23
L 131.80 154.20
L 133.95 154.20
L 133.95 110.68
L 133.95 154.20
L 136.22 154.20
L 136.22 90.16
L 136.22 154.20
L 138.48 154.20
L 138.48 71.24
L 138.48 154.20
L 140.75 154.20
L 140.75 54.40
L 140.75 154.20
L 143.02 154.20
L 143.02 40.05
L 143.02 154.20
L 145.40 154.20
L 145.40 28.47
L 145.40 154.20
L 147.78 154.20
L 147.78 19.84
L 147.78 154.20
L 150.16 154.20
L 150.16 14.21
L 150.16 154.20
L 152.54 154.20
L 152.54 11.52
L 152.54 154.20
L 154.92 154.20
L 154.92 11.61
L 154.92 154.20
L 157.41 154.20
L 157.41 14.22
L 157.41 154.20
L 159.79 154.20
L 159.79 19.04
L 159.79 154.20
L 162.28 154.20
L 162.28 25.71
L 162.28 154.20
L 164.78 154.20
L 164.78 33.83
L 164.78 154.20
L 167.38 154.20
L 167.38 43.01
L 167.38 154.20
L 169.88 154.20
"/>
<path style="stroke:black; fill:none; stroke-linecap:round; stroke-linejoin:round"
d="M 169.88 154.20
L 169.88 52.87
L 169.88 154.20
L 172.48 154.20
L 172.48 63.05
L 172.48 154.20
L 175.09 154.20
L 175.09 73.25
L 175.09 154.20
L 177.70 154.20
L 177.70 83.18
L 177.70 154.20
L 180.30 154.20
L 180.30 92.65
L 180.30 154.20
L 182.91 154.20
L 182.91 101.48
L 182.91 154.20
L 185.63 154.20
L 185.63 109.57
L 185.63 154.20
L 188.35 154.20
L 188.35 116.85
L 188.35 154.20
L 191.07 154.20
L 191.07 123.29
L 191.07 154.20
L 193.79 154.20
L 193.79 128.91
L 193.79 154.20
L 196.62 154.20
L 196.62 133.73
L 196.62 154.20
L 199.34 154.20
L 199.34 137.82
L 199.34 154.20
L 202.18 154.20
L 202.18 141.23
L 202.18 154.20
L 205.01 154.20
L 205.01 144.04
L 205.01 154.20
L 207.84 154.20
L 207.84 146.33
L 207.84 154.20
L 210.68 154.20
L 210.68 148.16
L 210.68 154.20
L 213.62 154.20
L 213.62 149.62
L 213.62 154.20
L 216.57 154.20
L 216.57 150.76
L 216.57 154.20
L 219.52 154.20
L 219.52 151.65
L 219.52 154.20
L 222.46 154.20
L 222.46 152.32
L 222.46 154.20
L 225.41 154.20
L 225.41 152.83
L 225.41 154.20
L 228.47 154.20
L 228.47 153.22
L 228.47 154.20
L 231.42 154.20
L 231.42 153.50
L 231.42 154.20
L 234.48 154.20
L 234.48 153.71
L 234.48 154.20
L 237.54 154.20
L 237.54 153.85
L 237.54 154.20
L 240.71 154.20
L 240.71 153.96
L 240.71 154.20
L 242.86 154.20
"/>
<path style="stroke:black; fill:none; stroke-linecap:round; stroke-linejoin:round"
d="M 16.31 154.20
L 16.31 11.52
"/>
<text x="15.97" y="155.64" style="font-size:3.82; fill:black; text-anchor:end
">0.000</text>
<path style="stroke:black; fill:none; stroke-linecap:round; stroke-linejoin:round"
d="M 16.31 154.20
L 18.86 154.20
"/>
<path style="stroke:black; fill:none; stroke-linecap:round; stroke-linejoin:round"
d="M 16.31 148.69
L 17.59 148.69
"/>
<path style="stroke:black; fill:none; stroke-linecap:round; stroke-linejoin:round"
d="M 16.31 143.19
L 17.59 143.19
"/>
<path style="stroke:black; fill:none; stroke-linecap:round; stroke-linejoin:round"
d="M 16.31 137.68
L 17.59 137.68
"/>
<path style="stroke:black; fill:none; stroke-linecap:round; stroke-linejoin:round"
d="M 16.31 132.18
L 17.59 132.18
"/>
<text x="15.97" y="128.12" style="font-size:3.82; fill:black; text-anchor:end
">0.002</text>
<path style="stroke:black; fill:none; stroke-linecap:round; stroke-linejoin:round"
d="M 16.31 126.67
L 18.86 126.67
"/>
<path style="stroke:black; fill:none; stroke-linecap:round; stroke-linejoin:round"
d="M 16.31 121.17
L 17.59 121.17
"/>
<path style="stroke:black; fill:none; stroke-linecap:round; stroke-linejoin:round"
d="M 16.31 115.66
L 17.59 115.66
"/>
<path style="stroke:black; fill:none; stroke-linecap:round; stroke-linejoin:round"
d="M 16.31 110.15
L 17.59 110.15
"/>
<path style="stroke:black; fill:none; stroke-linecap:round; stroke-linejoin:round"
d="M 16.31 104.65
L 17.59 104.65
"/>
<text x="15.97" y="100.59" style="font-size:3.82; fill:black; text-anchor:end
">0.004</text>
<path style="stroke:black; fill:none; stroke-linecap:round; stroke-linejoin:round"
d="M 16.31 99.14
L 18.86 99.14
"/>
<path style="stroke:black; fill:none; stroke-linecap:round; stroke-linejoin:round"
d="M 16.31 93.64
L 17.59 93.64
"/>
<path style="stroke:black; fill:none; stroke-linecap:round; stroke-linejoin:round"
d="M 16.31 88.13
L 17.59 88.13
"/>
<path style="stroke:black; fill:none; stroke-linecap:round; stroke-linejoin:round"
d="M 16.31 82.62
L 17.59 82.62
"/>
<path style="stroke:black; fill:none; stroke-linecap:round; stroke-linejoin:round"
d="M 16.31 77.12
L 17.59 77.12
"/>
<text x="15.97" y="73.06" style="font-size:3.82; fill:black; text-anchor:end
">0.006</text>
<path style="stroke:black; fill:none; stroke-linecap:round; stroke-linejoin:round"
d="M 16.31 71.61
L 18.86 71.61
"/>
<path style="stroke:black; fill:none; stroke-linecap:round; stroke-linejoin:round"
d="M 16.31 66.11
L 17.59 66.11
"/>
<path style="stroke:black; fill:none; stroke-linecap:round; stroke-linejoin:round"
d="M 16.31 60.60
L 17.59 60.60
"/>
<path style="stroke:black; fill:none; stroke-linecap:round; stroke-linejoin:round"
d="M 16.31 55.09
L 17.59 55.09
"/>
<path style="stroke:black; fill:none; stroke-linecap:round; stroke-linejoin:round"
d="M 16.31 49.59
L 17.59 49.59
"/>
<text x="15.97" y="45.53" style="font-size:3.82; fill:black; text-anchor:end
">0.008</text>
<path style="stroke:black; fill:none; stroke-linecap:round; stroke-linejoin:round"
d="M 16.31 44.08
L 18.86 44.08
"/>
<path style="stroke:black; fill:none; stroke-linecap:round; stroke-linejoin:round"
d="M 16.31 38.58
L 17.59 38.58
"/>
<path style="stroke:black; fill:none; stroke-linecap:round; stroke-linejoin:round"
d="M 16.31 33.07
L 17.59 33.07
"/>
<path style="stroke:black; fill:none; stroke-linecap:round; stroke-linejoin:round"
d="M 16.31 27.57
L 17.59 27.57
"/>
<path style="stroke:black; fill:none; stroke-linecap:round; stroke-linejoin:round"
d="M 16.31 22.06
L 17.59 22.06
"/>
<text x="15.97" y="18.00" style="font-size:3.82; fill:black; text-anchor:end
">0.010</text>
<path style="stroke:black; fill:none; stroke-linecap:round; stroke-linejoin:round"
d="M 16.31 16.55
L 18.86 16.55
"/>
<g transform="translate(4.10,82.86) rotate(270.0)">
<text x="0.00" y="0.00" style="font-size:3.82; fill:black; text-anchor:middle
">Normalized Intensity</text>
</g>
</svg>
