<?xml version="1.0" encoding="UTF-8" standalone="no"?>
<!DOCTYPE svg PUBLIC "-//W3C//DTD SVG 1.1//EN" "http://www.w3.org/Graphics/SVG/1.1/DTD/svg11.dtd">
<svg version="1.1" xmlns="http://www.w3.org/2000/svg" width="250.000 mm" height="170.000 mm">

<path style="stroke:black; fill:none; stroke-linecap:round; stroke-linejoin:round"
d="M 11.31 163.99
L 11.31 163.10
"/>
<path style="stroke:black; fill:none; stroke-linecap:round; stroke-linejoin:round"
d="M 11.31 163.99
L 245.05 163.99
"/>
<text x="15.80" y="167.00" style="font-size:2.65; fill:black; text-anchor:middle
">900</text>
<path style="stroke:black; fill:none; stroke-linecap:round; stroke-linejoin:round"
d="M 15.80 163.99
L 15.80 162.22
"/>
<path style="stroke:black; fill:none; stroke-linecap:round; stroke-linejoin:round"
d="M 20.30 163.99
L 20.30 163.10
"/>
<path style="stroke:black; fill:none; stroke-linecap:round; stroke-linejoin:round"
d="M 24.79 163.99
L 24.79 163.10
"/>
<path style="stroke:black; fill:none; stroke-linecap:round; stroke-linejoin:round"
d="M 29.28 163.99
L 29.28 163.10
"/>
<path style="stroke:black; fill:none; stroke-linecap:round; stroke-linejoin:round"
d="M 33.78 163.99
L 33.78 163.10
"/>
<text x="38.27" y="167.00" style="font-size:2.65; fill:black; text-anchor:middle
">920</text>
<path style="stroke:black; fill:none; stroke-linecap:round; stroke-linejoin:round"
d="M 38.27 163.99
L 38.27 162.22
"/>
<path style="stroke:black; fill:none; stroke-linecap:round; stroke-linejoin:round"
d="M 42.76 163.99
L 42.76 163.10
"/>
<path style="stroke:black; fill:none; stroke-linecap:round; stroke-linejoin:round"
d="M 47.26 163.99
L 47.26 163.10
"/>
<path style="stroke:black; fill:none; stroke-linecap:round; stroke-linejoin:round"
d="M 51.75 163.99
L 51.75 163.10
"/>
<path style="stroke:black; fill:none; stroke-linecap:round; stroke-linejoin:round"
d="M 56.24 163.99
L 56.24 163.10
"/>
<text x="60.74" y="167.00" style="font-size:2.65; fill:black; text-anchor:middle
">940</text>
<path style="stroke:black; fill:none; stroke-linecap:round; stroke-linejoin:round"
d="M 60.74 163.99
L 60.74 162.22
"/>
<path style="stroke:black; fill:none; stroke-linecap:round; stroke-linejoin:round"
d="M 65.23 163.99
L 65.23 163.10
"/>
<path style="stroke:black; fill:none; stroke-linecap:round; stroke-linejoin:round"
d="M 69.72 163.99
L 69.72 163.10
"/>
<path style="stroke:black; fill:none; stroke-linecap:round; stroke-linejoin:round"
d="M 74.22 163.99
L 74.22 163.10
"/>
<path style="stroke:black; fill:none; stroke-linecap:round; stroke-linejoin:round"
d="M 78.71 163.99
L 78.71 163.10
"/>
<text x="83.20" y="167.00" style="font-size:2.65; fill:black; text-anchor:middle
">960</text>
<path style="stroke:black; fill:none; stroke-linecap:round; stroke-linejoin:round"
d="M 83.20 163.99
L 83.20 162.22
"/>
<path style="stroke:black; fill:none; stroke-linecap:round; stroke-linejoin:round"
d="M 87.70 163.99
L 87.70 163.10
"/>
<path style="stroke:black; fill:none; stroke-linecap:round; stroke-linejoin:round"
d="M 92.19 163.99
L 92.19 163.10
"/>
<path style="stroke:black; fill:none; stroke-linecap:round; stroke-linejoin:round"
d="M 96.68 163.99
L 96.68 163.10
"/>
<path style="stroke:black; fill:none; stroke-linecap:round; stroke-linejoin:round"
d="M 101.18 163.99
L 101.18 163.10
"/>
<text x="105.67" y="167.00" style="font-size:2.65; fill:black; text-anchor:middle
">980</text>
<path style="stroke:black; fill:none; stroke-linecap:round; stroke-linejoin:round"
d="M 105.67 163.99
L 105.67 162.22
"/>
<path style="stroke:black; fill:none; stroke-linecap:round; stroke-linejoin:round"
d="M 110.16 163.99
L 110.16 163.10
"/>
<path style="stroke:black; fill:none; stroke-linecap:round; stroke-linejoin:round"
d="M 114.66 163.99
L 114.66 163.10
"/>
<path style="stroke:black; fill:none; stroke-linecap:round; stroke-linejoin:round"
d="M 119.15 163.99
L 119.15 163.10
"/>
<path style="stroke:black; fill:none; stroke-linecap:round; stroke-linejoin:round"
d="M 123.64 163.99
L 123.64 163.10
"/>
<text x="128.14" y="167.00" style="font-size:2.65; fill:black; text-anchor:middle
">1000</text>
<path style="stroke:black; fill:none; stroke-linecap:round; stroke-linejoin:round"
d="M 128.14 163.99
L 128.14 162.22
"/>
<path style="stroke:black; fill:none; stroke-linecap:round; stroke-linejoin:round"
d="M 132.63 163.99
L 132.63 163.10
"/>
<path style="stroke:black; fill:none; stroke-linecap:round; stroke-linejoin:round"
d="M 137.12 163.99
L 137.12 163.10
"/>
<path style="stroke:black; fill:none; stroke-linecap:round; stroke-linejoin:round"
d="M 141.62 163.99
L 141.62 163.10
"/>
<path style="stroke:black; fill:none; stroke-linecap:round; stroke-linejoin:round"
d="M 146.11 163.99
L 146.11 163.10
"/>
<text x="150.60" y="167.00" style="font-size:2.65; fill:black; text-anchor:middle
">1020</text>
<path style="stroke:black; fill:none; stroke-linecap:round; stroke-linejoin:round"
d="M 150.60 163.99
L 150.60 162.22
"/>
<path style="stroke:black; fill:none; stroke-linecap:round; stroke-linejoin:round"
d="M 155.10 163.99
L 155.10 163.10
"/>
<path style="stroke:black; fill:none; stroke-linecap:round; stroke-linejoin:round"
d="M 159.59 163.99
L 159.59 163.10
"/>
<path style="stroke:black; fill:none; stroke-linecap:round; stroke-linejoin:round"
d="M 164.08 163.99
L 164.08 163.10
"/>
<path style="stroke:black; fill:none; stroke-linecap:round; stroke-linejoin:round"
d="M 168.58 163.99
L 168.58 163.10
"/>
<text x="173.07" y="167.00" style="font-size:2.65; fill:black; text-anchor:middle
">1040</text>
<path style="stroke:black; fill:none; stroke-linecap:round; stroke-linejoin:round"
d="M 173.07 163.99
L 173.07 162.22
"/>
<path style="stroke:black; fill:none; stroke-linecap:round; stroke-linejoin:round"
d="M 177.56 163.99
L 177.56 163.10
"/>
<path style="stroke:black; fill:none; stroke-linecap:round; stroke-linejoin:round"
d="M 182.06 163.99
L 182.06 163.10
"/>
<path style="stroke:black; fill:none; stroke-linecap:round; stroke-linejoin:round"
d="M 186.55 163.99
L 186.55 163.10
"/>
<path style="stroke:black; fill:none; stroke-linecap:round; stroke-linejoin:round"
d="M 191.04 163.99
L 191.04 163.10
"/>
<text x="195.54" y="167.00" style="font-size:2.65; fill:black; text-anchor:middle
">1060</text>
<path style="stroke:black; fill:none; stroke-linecap:round; stroke-linejoin:round"
d="M 195.54 163.99
L 195.54 162.22
"/>
<path style="stroke:black; fill:none; stroke-linecap:round; stroke-linejoin:round"
d="M 200.03 163.99
L 200.03 163.10
"/>
<path style="stroke:black; fill:none; stroke-linecap:round; stroke-linejoin:round"
d="M 204.52 163.99
L 204.52 163.10
"/>
<path style="stroke:black; fill:none; stroke-linecap:round; stroke-linejoin:round"
d="M 209.02 163.99
L 209.02 163.10
"/>
<path style="stroke:black; fill:none; stroke-linecap:round; stroke-linejoin:round"
d="M 213.51 163.99
L 213.51 163.10
"/>
<text x="218.00" y="167.00" style="font-size:2.65; fill:black; text-anchor:middle
">1080</text>
<path style="stroke:black; fill:none; stroke-linecap:round; stroke-linejoin:round"
d="M 218.00 163.99
L 218.00 162.22
"/>
<path style="stroke:black; fill:none; stroke-linecap:round; stroke-linejoin:round"
d="M 222.50 163.99
L 222.50 163.10
"/>
<path style="stroke:black; fill:none; stroke-linecap:round; stroke-linejoin:round"
d="M 226.99 163.99
L 226.99 163.10
"/>
<path style="stroke:black; fill:none; stroke-linecap:round; stroke-linejoin:round"
d="M 231.48 163.99
L 231.48 163.10
"/>
<path style="stroke:black; fill:none; stroke-linecap:round; stroke-linejoin:round"
d="M 235.98 163.99
L 235.98 163.10
"/>
<text x="240.47" y="167.00" style="font-size:2.65; fill:black; text-anchor:middle
">1100</text>
<path style="stroke:black; fill:none; stroke-linecap:round; stroke-linejoin:round"
d="M 240.47 163.99
L 240.47 162.22
"/>
<path style="stroke:black; fill:none; stroke-linecap:round; stroke-linejoin:round"
d="M 244.96 163.99
L 244.96 163.10
"/>
<text x="128.18" y="169.70" style="font-size:2.65; fill:black; text-anchor:middle
">Wavenumber/cm-1</text>
<path style="stroke:black; fill:none; stroke-linecap:round; stroke-linejoin:round"
d="M 11.31 156.61
L 110.93 156.61
L 110.93 82.51
L 110.93 156.61
L 111.05 156.61
L 111.05 8.96
L 111.05 156.61
L 111.17 156.61
L 111.17 71.80
L 111.17 156.61
L 111.28 156.61
L 111.28 95.42
L 111.28 156.61
L 111.52 156.61
L 111.52 67.93
L 111.52 156.61
L 111.75 156.61
L 111.75 102.09
L 111.75 156.61
L 112.10 156.61
L 112.10 65.40
L 112.10 156.61
L 112.34 156.61
L 112.34 108.65
L 112.34 156.61
L 112.80 156.61
L 112.80 64.46
L 112.80 156.61
L 113.04 156.61
L 113.04 114.94
L 113.04 156.61
L 113.62 156.61
L 113.62 65.33
L 113.62 156.61
L 113.97 156.61
L 113.97 120.84
L 113.97 156.61
L 114.56 156.61
L 114.56 68.16
L 114.56 156.61
L 115.03 156.61
L 115.03 126.26
L 115.03 156.61
L 115.73 156.61
L 115.73 73.04
L 115.73 156.61
L 116.20 156.61
L 116.20 131.17
L 116.20 156.61
L 117.01 156.61
L 117.01 80.00
L 117.01 156.61
L 117.60 156.61
L 117.60 135.52
L 117.60 156.61
L 118.42 156.61
L 118.42 88.99
L 118.42 156.61
L 119.12 156.61
L 119.12 139.32
L 119.12 156.61
L 120.05 156.61
L 120.05 99.86
L 120.05 156.61
L 120.87 156.61
L 120.87 142.60
L 120.87 156.61
L 121.93 156.61
L 121.93 112.38
L 121.93 156.61
L 122.63 156.61
L 122.63 145.38
L 122.63 156.61
L 123.80 156.61
L 123.80 126.26
L 123.80 156.61
L 124.73 156.61
L 124.73 147.71
L 124.73 156.61
L 125.90 156.61
L 125.90 141.14
L 125.90 156.61
L 126.84 156.61
L 126.84 149.63
L 126.84 156.61
L 129.17 156.61
L 129.17 151.19
L 129.17 156.61
L 130.58 156.61
L 130.58 140.99
L 130.58 156.61
L 131.63 156.61
L 131.63 152.45
L 131.63 156.61
L 133.15 156.61
L 133.15 125.67
L 133.15 156.61
L 134.20 156.61
L 134.20 153.45
L 134.20 156.61
L 135.84 156.61
L 135.84 111.09
L 135.84 156.61
L 137.01 156.61
L 137.01 154.24
L 137.01 156.61
L 138.65 156.61
L 138.65 97.64
L 138.65 156.61
L 139.93 156.61
L 139.93 154.85
L 139.93 156.61
L 141.69 156.61
L 141.69 85.67
L 141.69 156.61
L 143.09 156.61
L 143.09 155.31
L 143.09 156.61
L 144.96 156.61
L 144.96 75.47
L 144.96 156.61
L 146.36 156.61
L 146.36 155.66
L 146.36 156.61
L 148.23 156.61
L 148.23 67.24
L 148.23 156.61
L 149.75 156.61
L 149.75 155.93
L 149.75 156.61
L 151.74 156.61
L 151.74 61.10
L 151.74 156.61
L 153.38 156.61
L 153.38 156.12
L 153.38 156.61
L 155.48 156.61
L 155.48 57.10
L 155.48 156.61
L 157.00 156.61
L 157.00 156.27
L 157.00 156.61
L 159.23 156.61
L 159.23 55.19
L 159.23 156.61
L 160.98 156.61
L 160.98 156.37
L 160.98 156.61
L 163.20 156.61
L 163.20 55.25
L 163.20 156.61
L 164.96 156.61
L 164.96 156.44
L 164.96 156.61
L 167.41 156.61
L 167.41 57.11
L 167.41 156.61
L 169.16 156.61
L 169.16 156.50
L 169.16 156.61
L 171.62 156.61
L 171.62 60.54
L 171.62 156.61
L 173.49 156.61
L 173.49 156.53
L 173.49 156.61
L 176.06 156.61
L 176.06 65.27
L 176.06 156.61
L 178.05 156.61
L 178.05 156.56
L 178.05 156.61
L 180.74 156.61
L 180.74 71.05
L 180.74 156.61
L 182.73 156.61
L 182.73 156.57
L 182.73 156.61
L 185.42 156.61
L 185.42 77.57
L 185.42 156.61
L 187.52 156.61
L 187.52 156.59
L 187.52 156.61
L 190.45 156.61
L 190.45 84.58
L 190.45 156.61
L 192.55 156.61
L 192.55 156.59
L 192.55 156.61
L 195.47 156.61
L 195.47 91.82
L 195.47 156.61
L 197.70 156.61
L 197.70 156.60
L 197.70 156.61
L 200.74 156.61
L 200.74 99.06
L 200.74 156.61
L 202.96 156.61
"/>
<path style="stroke:black; fill:none; stroke-linecap:round; stroke-linejoin:round"
d="M 202.96 156.61
L 202.96 156.60
L 202.96 156.61
L 206.11 156.61
L 206.11 106.13
L 206.11 156.61
L 208.45 156.61
L 208.45 156.61
L 208.45 156.61
L 211.61 156.61
L 211.61 112.86
L 211.61 156.61
L 217.34 156.61
L 217.34 119.14
L 217.34 156.61
L 223.19 156.61
L 223.19 124.88
L 223.19 156.61
L 229.27 156.61
L 229.27 130.06
L 229.27 156.61
L 235.46 156.61
L 235.46 134.64
L 235.46 156.61
L 241.78 156.61
L 241.78 138.63
L 241.78 156.61
L 245.05 156.61
"/>
<path style="stroke:black; fill:none; stroke-linecap:round; stroke-linejoin:round"
d="M 11.31 156.61
L 11.31 8.96
"/>
<text x="11.07" y="157.61" style="font-size:2.65; fill:black; text-anchor:end
">0.000</text>
<path style="stroke:black; fill:none; stroke-linecap:round; stroke-linejoin:round"
d="M 11.31 156.61
L 13.08 156.61
"/>
<path style="stroke:black; fill:none; stroke-linecap:round; stroke-linejoin:round"
d="M 11.31 152.70
L 12.20 152.70
"/>
<path style="stroke:black; fill:none; stroke-linecap:round; stroke-linejoin:round"
d="M 11.31 148.78
L 12.20 148.78
"/>
<path style="stroke:black; fill:none; stroke-linecap:round; stroke-linejoin:round"
d="M 11.31 144.87
L 12.20 144.87
"/>
<path style="stroke:black; fill:none; stroke-linecap:round; stroke-linejoin:round"
d="M 11.31 140.95
L 12.20 140.95
"/>
<text x="11.07" y="138.04" style="font-size:2.65; fill:black; text-anchor:end
">0.002</text>
<path style="stroke:black; fill:none; stroke-linecap:round; stroke-linejoin:round"
d="M 11.31 137.04
L 13.08 137.04
"/>
<path style="stroke:black; fill:none; stroke-linecap:round; stroke-linejoin:round"
d="M 11.31 133.13
L 12.20 133.13
"/>
<path style="stroke:black; fill:none; stroke-linecap:round; stroke-linejoin:round"
d="M 11.31 129.21
L 12.20 129.21
"/>
<path style="stroke:black; fill:none; stroke-linecap:round; stroke-linejoin:round"
d="M 11.31 125.30
L 12.20 125.30
"/>
<path style="stroke:black; fill:none; stroke-linecap:round; stroke-linejoin:round"
d="M 11.31 121.39
L 12.20 121.39
"/>
<text x="11.07" y="118.47" style="font-size:2.65; fill:black; text-anchor:end
">0.004</text>
<path style="stroke:black; fill:none; stroke-linecap:round; stroke-linejoin:round"
d="M 11.31 117.47
L 13.08 117.47
"/>
<path style="stroke:black; fill:none; stroke-linecap:round; stroke-linejoin:round"
d="M 11.31 113.56
L 12.20 113.56
"/>
<path style="stroke:black; fill:none; stroke-linecap:round; stroke-linejoin:round"
d="M 11.31 109.65
L 12.20 109.65
"/>
<path style="stroke:black; fill:none; stroke-linecap:round; stroke-linejoin:round"
d="M 11.31 105.73
L 12.20 105.73
"/>
<path style="stroke:black; fill:none; stroke-linecap:round; stroke-linejoin:round"
d="M 11.31 101.82
L 12.20 101.82
"/>
<text x="11.07" y="98.91" style="font-size:2.65; fill:black; text-anchor:end
">0.006</text>
<path style="stroke:black; fill:none; stroke-linecap:round; stroke-linejoin:round"
d="M 11.31 97.90
L 13.08 97.90
"/>
<path style="stroke:black; fill:none; stroke-linecap:round; stroke-linejoin:round"
d="M 11.31 93.99
L 12.20 93.99
"/>
<path style="stroke:black; fill:none; stroke-linecap:round; stroke-linejoin:round"
d="M 11.31 90.08
L 12.20 90.08
"/>
<path style="stroke:black; fill:none; stroke-linecap:round; stroke-linejoin:round"
d="M 11.31 86.16
L 12.20 86.16
"/>
<path style="stroke:black; fill:none; stroke-linecap:round; stroke-linejoin:round"
d="M 11.31 82.25
L 12.20 82.25
"/>
<text x="11.07" y="79.34" style="font-size:2.65; fill:black; text-anchor:end
">0.008</text>
<path style="stroke:black; fill:none; stroke-linecap:round; stroke-linejoin:round"
d="M 11.31 78.34
L 13.08 78.34
"/>
<path style="stroke:black; fill:none; stroke-linecap:round; stroke-linejoin:round"
d="M 11.31 74.42
L 12.20 74.42
"/>
<path style="stroke:black; fill:none; stroke-linecap:round; stroke-linejoin:round"
d="M 11.31 70.51
L 12.20 70.51
"/>
<path style="stroke:black; fill:none; stroke-linecap:round; stroke-linejoin:round"
d="M 11.31 66.59
L 12.20 66.59
"/>
<path style="stroke:black; fill:none; stroke-linecap:round; stroke-linejoin:round"
d="M 11.31 62.68
L 12.20 62.68
"/>
<text x="11.07" y="59.77" style="font-size:2.65; fill:black; text-anchor:end
">0.010</text>
<path style="stroke:black; fill:none; stroke-linecap:round; stroke-linejoin:round"
d="M 11.31 58.77
L 13.08 58.77
"/>
<path style="stroke:black; fill:none; stroke-linecap:round; stroke-linejoin:round"
d="M 11.31 54.85
L 12.20 54.85
"/>
<path style="stroke:black; fill:none; stroke-linecap:round; stroke-linejoin:round"
d="M 11.31 50.94
L 12.20 50.94
"/>
<path style="stroke:black; fill:none; stroke-linecap:round; stroke-linejoin:round"
d="M 11.31 47.03
L 12.20 47.03
"/>
<path style="stroke:black; fill:none; stroke-linecap:round; stroke-linejoin:round"
d="M 11.31 43.11
L 12.20 43.11
"/>
<text x="11.07" y="40.20" style="font-size:2.65; fill:black; text-anchor:end
">0.012</text>
<path style="stroke:black; fill:none; stroke-linecap:round; stroke-linejoin:round"
d="M 11.31 39.20
L 13.08 39.20
"/>
<path style="stroke:black; fill:none; stroke-linecap:round; stroke-linejoin:round"
d="M 11.31 35.28
L 12.20 35.28
"/>
<path style="stroke:black; fill:none; stroke-linecap:round; stroke-linejoin:round"
d="M 11.31 31.37
L 12.20 31.37
"/>
<path style="stroke:black; fill:none; stroke-linecap:round; stroke-linejoin:round"
d="M 11.31 27.46
L 12.20 27.46
"/>
<path style="stroke:black; fill:none; stroke-linecap:round; stroke-linejoin:round"
d="M 11.31 23.54
L 12.20 23.54
"/>
<text x="11.07" y="20.63" style="font-size:2.65; fill:black; text-anchor:end
">0.014</text>
<path style="stroke:black; fill:none; stroke-linecap:round; stroke-linejoin:round"
d="M 11.31 19.63
L 13.08 19.63
"/>
<path style="stroke:black; fill:none; stroke-linecap:round; stroke-linejoin:round"
d="M 11.31 15.72
L 12.20 15.72
"/>
<path style="stroke:black; fill:none; stroke-linecap:round; stroke-linejoin:round"
d="M 11.31 11.80
L 12.20 11.80
"/>
<g transform="translate(2.84,82.79) rotate(270.0)">
<text x="0.00" y="0.00" style="font-size:2.65; fill:black; text-anchor:middle
">Normalized Intensity</text>
</g>
</svg>
