<?xml version="1.0" encoding="UTF-8" standalone="no"?>
<!DOCTYPE svg PUBLIC "-//W3C//DTD SVG 1.1//EN" "http://www.w3.org/Graphics/SVG/1.1/DTD/svg11.dtd">
<svg version="1.1" xmlns="http://www.w3.org/2000/svg" width="250.000 mm" height="170.000 mm">

<path style="stroke:black; fill:none; stroke-linecap:round; stroke-linejoin:round"
d="M 11.77 163.74
L 11.77 162.81
"/>
<path style="stroke:black; fill:none; stroke-linecap:round; stroke-linejoin:round"
d="M 11.77 163.74
L 244.85 163.74
"/>
<text x="16.26" y="166.87" style="font-size:2.76; fill:black; text-anchor:middle
">900</text>
<path style="stroke:black; fill:none; stroke-linecap:round; stroke-linejoin:round"
d="M 16.26 163.74
L 16.26 161.89
"/>
<path style="stroke:black; fill:none; stroke-linecap:round; stroke-linejoin:round"
d="M 20.74 163.74
L 20.74 162.81
"/>
<path style="stroke:black; fill:none; stroke-linecap:round; stroke-linejoin:round"
d="M 25.22 163.74
L 25.22 162.81
"/>
<path style="stroke:black; fill:none; stroke-linecap:round; stroke-linejoin:round"
d="M 29.70 163.74
L 29.70 162.81
"/>
<path style="stroke:black; fill:none; stroke-linecap:round; stroke-linejoin:round"
d="M 34.18 163.74
L 34.18 162.81
"/>
<text x="38.66" y="166.87" style="font-size:2.76; fill:black; text-anchor:middle
">920</text>
<path style="stroke:black; fill:none; stroke-linecap:round; stroke-linejoin:round"
d="M 38.66 163.74
L 38.66 161.89
"/>
<path style="stroke:black; fill:none; stroke-linecap:round; stroke-linejoin:round"
d="M 43.14 163.74
L 43.14 162.81
"/>
<path style="stroke:black; fill:none; stroke-linecap:round; stroke-linejoin:round"
d="M 47.62 163.74
L 47.62 162.81
"/>
<path style="stroke:black; fill:none; stroke-linecap:round; stroke-linejoin:round"
d="M 52.10 163.74
L 52.10 162.81
"/>
<path style="stroke:black; fill:none; stroke-linecap:round; stroke-linejoin:round"
d="M 56.58 163.74
L 56.58 162.81
"/>
<text x="61.06" y="166.87" style="font-size:2.76; fill:black; text-anchor:middle
">940</text>
<path style="stroke:black; fill:none; stroke-linecap:round; stroke-linejoin:round"
d="M 61.06 163.74
L 61.06 161.89
"/>
<path style="stroke:black; fill:none; stroke-linecap:round; stroke-linejoin:round"
d="M 65.54 163.74
L 65.54 162.81
"/>
<path style="stroke:black; fill:none; stroke-linecap:round; stroke-linejoin:round"
d="M 70.02 163.74
L 70.02 162.81
"/>
<path style="stroke:black; fill:none; stroke-linecap:round; stroke-linejoin:round"
d="M 74.50 163.74
L 74.50 162.81
"/>
<path style="stroke:black; fill:none; stroke-linecap:round; stroke-linejoin:round"
d="M 78.98 163.74
L 78.98 162.81
"/>
<text x="83.46" y="166.87" style="font-size:2.76; fill:black; text-anchor:middle
">960</text>
<path style="stroke:black; fill:none; stroke-linecap:round; stroke-linejoin:round"
d="M 83.46 163.74
L 83.46 161.89
"/>
<path style="stroke:black; fill:none; stroke-linecap:round; stroke-linejoin:round"
d="M 87.94 163.74
L 87.94 162.81
"/>
<path style="stroke:black; fill:none; stroke-linecap:round; stroke-linejoin:round"
d="M 92.42 163.74
L 92.42 162.81
"/>
<path style="stroke:black; fill:none; stroke-linecap:round; stroke-linejoin:round"
d="M 96.90 163.74
L 96.90 162.81
"/>
<path style="stroke:black; fill:none; stroke-linecap:round; stroke-linejoin:round"
d="M 101.38 163.74
L 101.38 162.81
"/>
<text x="105.86" y="166.87" style="font-size:2.76; fill:black; text-anchor:middle
">980</text>
<path style="stroke:black; fill:none; stroke-linecap:round; stroke-linejoin:round"
d="M 105.86 163.74
L 105.86 161.89
"/>
<path style="stroke:black; fill:none; stroke-linecap:round; stroke-linejoin:round"
d="M 110.35 163.74
L 110.35 162.81
"/>
<path style="stroke:black; fill:none; stroke-linecap:round; stroke-linejoin:round"
d="M 114.83 163.74
L 114.83 162.81
"/>
<path style="stroke:black; fill:none; stroke-linecap:round; stroke-linejoin:round"
d="M 119.31 163.74
L 119.31 162.81
"/>
<path style="stroke:black; fill:none; stroke-linecap:round; stroke-linejoin:round"
d="M 123.79 163.74
L 123.79 162.81
"/>
<text x="128.27" y="166.87" style="font-size:2.76; fill:black; text-anchor:middle
">1000</text>
<path style="stroke:black; fill:none; stroke-linecap:round; stroke-linejoin:round"
d="M 128.27 163.74
L 128.27 161.89
"/>
<path style="stroke:black; fill:none; stroke-linecap:round; stroke-linejoin:round"
d="M 132.75 163.74
L 132.75 162.81
"/>
<path style="stroke:black; fill:none; stroke-linecap:round; stroke-linejoin:round"
d="M 137.23 163.74
L 137.23 162.81
"/>
<path style="stroke:black; fill:none; stroke-linecap:round; stroke-linejoin:round"
d="M 141.71 163.74
L 141.71 162.81
"/>
<path style="stroke:black; fill:none; stroke-linecap:round; stroke-linejoin:round"
d="M 146.19 163.74
L 146.19 162.81
"/>
<text x="150.67" y="166.87" style="font-size:2.76; fill:black; text-anchor:middle
">1020</text>
<path style="stroke:black; fill:none; stroke-linecap:round; stroke-linejoin:round"
d="M 150.67 163.74
L 150.67 161.89
"/>
<path style="stroke:black; fill:none; stroke-linecap:round; stroke-linejoin:round"
d="M 155.15 163.74
L 155.15 162.81
"/>
<path style="stroke:black; fill:none; stroke-linecap:round; stroke-linejoin:round"
d="M 159.63 163.74
L 159.63 162.81
"/>
<path style="stroke:black; fill:none; stroke-linecap:round; stroke-linejoin:round"
d="M 164.11 163.74
L 164.11 162.81
"/>
<path style="stroke:black; fill:none; stroke-linecap:round; stroke-linejoin:round"
d="M 168.59 163.74
L 168.59 162.81
"/>
<text x="173.07" y="166.87" style="font-size:2.76; fill:black; text-anchor:middle
">1040</text>
<path style="stroke:black; fill:none; stroke-linecap:round; stroke-linejoin:round"
d="M 173.07 163.74
L 173.07 161.89
"/>
<path style="stroke:black; fill:none; stroke-linecap:round; stroke-linejoin:round"
d="M 177.55 163.74
L 177.55 162.81
"/>
<path style="stroke:black; fill:none; stroke-linecap:round; stroke-linejoin:round"
d="M 182.03 163.74
L 182.03 162.81
"/>
<path style="stroke:black; fill:none; stroke-linecap:round; stroke-linejoin:round"
d="M 186.51 163.74
L 186.51 162.81
"/>
<path style="stroke:black; fill:none; stroke-linecap:round; stroke-linejoin:round"
d="M 190.99 163.74
L 190.99 162.81
"/>
<text x="195.47" y="166.87" style="font-size:2.76; fill:black; text-anchor:middle
">1060</text>
<path style="stroke:black; fill:none; stroke-linecap:round; stroke-linejoin:round"
d="M 195.47 163.74
L 195.47 161.89
"/>
<path style="stroke:black; fill:none; stroke-linecap:round; stroke-linejoin:round"
d="M 199.95 163.74
L 199.95 162.81
"/>
<path style="stroke:black; fill:none; stroke-linecap:round; stroke-linejoin:round"
d="M 204.43 163.74
L 204.43 162.81
"/>
<path style="stroke:black; fill:none; stroke-linecap:round; stroke-linejoin:round"
d="M 208.92 163.74
L 208.92 162.81
"/>
<path style="stroke:black; fill:none; stroke-linecap:round; stroke-linejoin:round"
d="M 213.40 163.74
L 213.40 162.81
"/>
<text x="217.88" y="166.87" style="font-size:2.76; fill:black; text-anchor:middle
">1080</text>
<path style="stroke:black; fill:none; stroke-linecap:round; stroke-linejoin:round"
d="M 217.88 163.74
L 217.88 161.89
"/>
<path style="stroke:black; fill:none; stroke-linecap:round; stroke-linejoin:round"
d="M 222.36 163.74
L 222.36 162.81
"/>
<path style="stroke:black; fill:none; stroke-linecap:round; stroke-linejoin:round"
d="M 226.84 163.74
L 226.84 162.81
"/>
<path style="stroke:black; fill:none; stroke-linecap:round; stroke-linejoin:round"
d="M 231.32 163.74
L 231.32 162.81
"/>
<path style="stroke:black; fill:none; stroke-linecap:round; stroke-linejoin:round"
d="M 235.80 163.74
L 235.80 162.81
"/>
<text x="240.28" y="166.87" style="font-size:2.76; fill:black; text-anchor:middle
">1100</text>
<path style="stroke:black; fill:none; stroke-linecap:round; stroke-linejoin:round"
d="M 240.28 163.74
L 240.28 161.89
"/>
<path style="stroke:black; fill:none; stroke-linecap:round; stroke-linejoin:round"
d="M 244.76 163.74
L 244.76 162.81
"/>
<text x="128.31" y="169.69" style="font-size:2.76; fill:black; text-anchor:middle
">Wavenumber/cm-1</text>
<path style="stroke:black; fill:none; stroke-linecap:round; stroke-linejoin:round"
d="M 11.77 156.39
L 11.89 156.39
L 12.01 156.39
L 12.12 156.39
L 12.24 156.39
L 12.36 156.39
L 12.47 156.39
L 12.59 156.39
L 12.71 156.39
L 12.82 156.39
L 12.94 156.39
L 13.06 156.39
L 13.17 156.39
L 13.29 156.39
L 13.41 156.39
L 13.52 156.39
L 13.64 156.39
L 13.76 156.39
L 13.87 156.39
L 13.99 156.39
L 14.11 156.39
L 14.22 156.39
L 14.34 156.39
L 14.46 156.39
L 14.57 156.39
L 14.69 156.39
L 14.81 156.39
L 14.92 156.39
L 15.04 156.39
L 15.16 156.38
L 15.27 156.38
L 15.39 156.38
L 15.51 156.38
L 15.62 156.38
L 15.74 156.38
L 15.86 156.38
L 15.97 156.38
L 16.09 156.38
L 16.21 156.38
L 16.32 156.38
L 16.44 156.38
L 16.56 156.38
L 16.67 156.38
L 16.79 156.38
L 16.91 156.38
L 17.02 156.38
L 17.14 156.38
L 17.25 156.38
L 17.37 156.38
L 17.49 156.38
L 17.60 156.38
L 17.72 156.38
L 17.84 156.38
L 17.95 156.38
L 18.07 156.38
L 18.19 156.38
L 18.30 156.38
L 18.42 156.38
L 18.54 156.38
L 18.65 156.38
L 18.77 156.38
L 18.89 156.38
L 19.00 156.38
L 19.12 156.38
L 19.24 156.38
L 19.35 156.38
L 19.47 156.38
L 19.59 156.38
L 19.70 156.38
L 19.82 156.38
L 19.94 156.38
L 20.05 156.38
L 20.17 156.38
L 20.29 156.38
L 20.40 156.37
L 20.52 156.37
L 20.64 156.37
L 20.75 156.37
L 20.87 156.37
L 20.99 156.37
L 21.10 156.37
L 21.22 156.38
L 21.34 156.38
L 21.45 156.38
L 21.57 156.38
L 21.69 156.38
L 21.80 156.38
L 21.92 156.38
L 22.04 156.38
L 22.15 156.38
L 22.27 156.38
L 22.39 156.38
L 22.50 156.37
L 22.62 156.37
L 22.73 156.37
L 22.85 156.36
L 22.97 156.36
L 23.08 156.36
L 23.20 156.37
L 23.32 156.37
L 23.43 156.37
L 23.55 156.38
L 23.67 156.38
L 23.78 156.38
L 23.90 156.38
L 24.02 156.38
L 24.13 156.38
L 24.25 156.38
L 24.37 156.38
L 24.48 156.37
L 24.60 156.37
L 24.72 156.37
L 24.83 156.36
L 24.95 156.36
L 25.07 156.35
L 25.18 156.35
L 25.30 156.35
L 25.42 156.36
L 25.53 156.36
L 25.65 156.36
L 25.77 156.37
L 25.88 156.37
L 26.00 156.38
L 26.12 156.38
L 26.23 156.38
L 26.35 156.38
L 26.47 156.38
L 26.58 156.37
L 26.70 156.37
L 26.82 156.36
L 26.93 156.35
L 27.05 156.35
L 27.17 156.34
L 27.28 156.34
L 27.40 156.34
L 27.52 156.34
L 27.63 156.34
L 27.75 156.35
L 27.87 156.35
L 27.98 156.36
L 28.10 156.37
L 28.21 156.37
L 28.33 156.38
L 28.45 156.38
L 28.56 156.38
L 28.68 156.38
L 28.80 156.37
L 28.91 156.37
L 29.03 156.36
L 29.15 156.35
L 29.26 156.34
L 29.38 156.33
L 29.50 156.32
L 29.61 156.31
L 29.73 156.31
L 29.85 156.31
L 29.96 156.32
L 30.08 156.33
L 30.20 156.34
L 30.31 156.35
L 30.43 156.36
L 30.55 156.37
L 30.66 156.37
L 30.78 156.37
L 30.90 156.37
L 31.01 156.37
L 31.13 156.36
L 31.25 156.35
L 31.36 156.33
L 31.48 156.32
L 31.60 156.30
L 31.71 156.29
L 31.83 156.28
L 31.95 156.27
L 32.06 156.28
L 32.18 156.29
L 32.30 156.30
L 32.41 156.32
L 32.53 156.33
L 32.65 156.35
L 32.76 156.36
L 32.88 156.36
L 33.00 156.37
L 33.11 156.37
L 33.23 156.36
L 33.34 156.35
L 33.46 156.33
L 33.58 156.31
L 33.69 156.28
L 33.81 156.26
L 33.93 156.24
L 34.04 156.23
L 34.16 156.22
L 34.28 156.23
L 34.39 156.24
L 34.51 156.26
L 34.63 156.28
L 34.74 156.31
L 34.86 156.33
L 34.98 156.34
"/>
<path style="stroke:black; fill:none; stroke-linecap:round; stroke-linejoin:round"
d="M 34.98 156.34
L 35.09 156.35
L 35.21 156.36
L 35.33 156.36
L 35.44 156.35
L 35.56 156.33
L 35.68 156.30
L 35.79 156.27
L 35.91 156.24
L 36.03 156.20
L 36.14 156.17
L 36.26 156.15
L 36.38 156.14
L 36.49 156.15
L 36.61 156.17
L 36.73 156.20
L 36.84 156.24
L 36.96 156.27
L 37.08 156.30
L 37.19 156.33
L 37.31 156.35
L 37.43 156.35
L 37.54 156.36
L 37.66 156.35
L 37.78 156.33
L 37.89 156.30
L 38.01 156.27
L 38.13 156.22
L 38.24 156.17
L 38.36 156.12
L 38.48 156.08
L 38.59 156.05
L 38.71 156.04
L 38.82 156.05
L 38.94 156.08
L 39.06 156.12
L 39.17 156.17
L 39.29 156.22
L 39.41 156.26
L 39.52 156.30
L 39.64 156.32
L 39.76 156.33
L 39.87 156.32
L 39.99 156.30
L 40.11 156.27
L 40.22 156.21
L 40.34 156.15
L 40.46 156.08
L 40.57 156.01
L 40.69 155.94
L 40.81 155.90
L 40.92 155.89
L 41.04 155.90
L 41.16 155.94
L 41.27 156.01
L 41.39 156.08
L 41.51 156.15
L 41.62 156.21
L 41.74 156.26
L 41.86 156.29
L 41.97 156.31
L 42.09 156.30
L 42.21 156.27
L 42.32 156.22
L 42.44 156.14
L 42.56 156.05
L 42.67 155.95
L 42.79 155.85
L 42.91 155.76
L 43.02 155.70
L 43.14 155.68
L 43.26 155.70
L 43.37 155.76
L 43.49 155.85
L 43.61 155.95
L 43.72 156.05
L 43.84 156.14
L 43.96 156.21
L 44.07 156.26
L 44.19 156.27
L 44.30 156.26
L 44.42 156.22
L 44.54 156.15
L 44.65 156.05
L 44.77 155.92
L 44.89 155.77
L 45.00 155.63
L 45.12 155.51
L 45.24 155.43
L 45.35 155.40
L 45.47 155.43
L 45.59 155.51
L 45.70 155.63
L 45.82 155.77
L 45.94 155.91
L 46.05 156.04
L 46.17 156.14
L 46.29 156.20
L 46.40 156.23
L 46.52 156.22
L 46.64 156.16
L 46.75 156.06
L 46.87 155.91
L 46.99 155.74
L 47.10 155.54
L 47.22 155.34
L 47.34 155.17
L 47.45 155.05
L 47.57 155.01
L 47.69 155.05
L 47.80 155.17
L 47.92 155.34
L 48.04 155.54
L 48.15 155.74
L 48.27 155.91
L 48.39 156.06
L 48.50 156.16
L 48.62 156.22
L 48.74 156.22
L 48.85 156.18
L 48.97 156.09
L 49.09 155.94
L 49.20 155.74
L 49.32 155.49
L 49.44 155.22
L 49.55 154.95
L 49.67 154.71
L 49.78 154.56
L 49.90 154.50
L 50.02 154.56
L 50.13 154.71
L 50.25 154.95
L 50.37 155.22
L 50.48 155.49
L 50.60 155.73
L 50.72 155.92
L 50.83 156.04
L 50.95 156.09
L 51.07 156.07
L 51.18 155.96
L 51.30 155.77
L 51.42 155.51
L 51.53 155.17
L 51.65 154.80
L 51.77 154.43
L 51.88 154.12
L 52.00 153.90
L 52.12 153.83
L 52.23 153.90
L 52.35 154.11
L 52.47 154.43
L 52.58 154.80
L 52.70 155.17
L 52.82 155.50
L 52.93 155.75
L 53.05 155.92
L 53.17 155.99
L 53.28 155.96
L 53.40 155.81
L 53.52 155.56
L 53.63 155.20
L 53.75 154.75
L 53.87 154.25
L 53.98 153.76
L 54.10 153.33
L 54.22 153.04
L 54.33 152.94
L 54.45 153.04
L 54.57 153.33
L 54.68 153.76
L 54.80 154.25
L 54.92 154.75
L 55.03 155.19
L 55.15 155.53
L 55.26 155.76
L 55.38 155.86
L 55.50 155.81
L 55.61 155.62
L 55.73 155.29
L 55.85 154.81
L 55.96 154.21
L 56.08 153.55
L 56.20 152.89
L 56.31 152.32
L 56.43 151.94
L 56.55 151.80
L 56.66 151.94
L 56.78 152.32
L 56.90 152.89
L 57.01 153.55
L 57.13 154.21
L 57.25 154.79
L 57.36 155.25
L 57.48 155.56
L 57.60 155.68
L 57.71 155.63
L 57.83 155.38
L 57.95 154.94
L 58.06 154.31
L 58.18 153.53
"/>
<path style="stroke:black; fill:none; stroke-linecap:round; stroke-linejoin:round"
d="M 58.18 153.53
L 58.30 152.65
L 58.41 151.78
L 58.53 151.04
L 58.65 150.53
L 58.76 150.35
L 58.88 150.53
L 59.00 151.04
L 59.11 151.78
L 59.23 152.65
L 59.35 153.53
L 59.46 154.32
L 59.58 154.95
L 59.70 155.40
L 59.81 155.65
L 59.93 155.70
L 60.05 155.54
L 60.16 155.16
L 60.28 154.54
L 60.40 153.70
L 60.51 152.67
L 60.63 151.52
L 60.74 150.39
L 60.86 149.42
L 60.98 148.76
L 61.09 148.53
L 61.21 148.76
L 61.33 149.41
L 61.44 150.38
L 61.56 151.51
L 61.68 152.65
L 61.79 153.66
L 61.91 154.45
L 62.03 154.97
L 62.14 155.19
L 62.26 155.11
L 62.38 154.70
L 62.49 153.96
L 62.61 152.90
L 62.73 151.58
L 62.84 150.11
L 62.96 148.65
L 63.08 147.40
L 63.19 146.55
L 63.31 146.25
L 63.43 146.55
L 63.54 147.40
L 63.66 148.65
L 63.78 150.11
L 63.89 151.57
L 64.01 152.87
L 64.13 153.89
L 64.24 154.56
L 64.36 154.86
L 64.48 154.75
L 64.59 154.23
L 64.71 153.29
L 64.83 151.94
L 64.94 150.26
L 65.06 148.39
L 65.18 146.52
L 65.29 144.93
L 65.41 143.85
L 65.53 143.47
L 65.64 143.85
L 65.76 144.93
L 65.88 146.52
L 65.99 148.38
L 66.11 150.24
L 66.22 151.90
L 66.34 153.21
L 66.46 154.07
L 66.57 154.44
L 66.69 154.32
L 66.81 153.66
L 66.92 152.48
L 67.04 150.78
L 67.16 148.66
L 67.27 146.29
L 67.39 143.95
L 67.51 141.93
L 67.62 140.57
L 67.74 140.09
L 67.86 140.57
L 67.97 141.93
L 68.09 143.95
L 68.21 146.30
L 68.32 148.67
L 68.44 150.80
L 68.56 152.52
L 68.67 153.73
L 68.79 154.42
L 68.91 154.57
L 69.02 154.17
L 69.14 153.20
L 69.26 151.62
L 69.37 149.45
L 69.49 146.77
L 69.61 143.81
L 69.72 140.87
L 69.84 138.36
L 69.96 136.66
L 70.07 136.06
L 70.19 136.66
L 70.31 138.35
L 70.42 140.86
L 70.54 143.79
L 70.66 146.72
L 70.77 149.34
L 70.89 151.39
L 71.01 152.75
L 71.12 153.36
L 71.24 153.18
L 71.35 152.18
L 71.47 150.36
L 71.59 147.75
L 71.70 144.49
L 71.82 140.85
L 71.94 137.23
L 72.05 134.14
L 72.17 132.04
L 72.29 131.30
L 72.40 132.04
L 72.52 134.14
L 72.64 137.23
L 72.75 140.84
L 72.87 144.46
L 72.99 147.69
L 73.10 150.22
L 73.22 151.91
L 73.34 152.67
L 73.45 152.46
L 73.57 151.25
L 73.69 149.03
L 73.80 145.85
L 73.92 141.87
L 74.04 137.43
L 74.15 133.02
L 74.27 129.24
L 74.39 126.68
L 74.50 125.78
L 74.62 126.68
L 74.74 129.24
L 74.85 133.01
L 74.97 137.42
L 75.09 141.84
L 75.20 145.78
L 75.32 148.87
L 75.44 150.94
L 75.55 151.87
L 75.67 151.63
L 75.79 150.18
L 75.90 147.51
L 76.02 143.67
L 76.14 138.88
L 76.25 133.52
L 76.37 128.20
L 76.49 123.64
L 76.60 120.55
L 76.72 119.46
L 76.83 120.55
L 76.95 123.63
L 77.07 128.19
L 77.18 133.50
L 77.30 138.84
L 77.42 143.59
L 77.53 147.33
L 77.65 149.82
L 77.77 150.96
L 77.88 150.69
L 78.00 148.97
L 78.12 145.79
L 78.23 141.22
L 78.35 135.50
L 78.47 129.11
L 78.58 122.76
L 78.70 117.33
L 78.82 113.65
L 78.93 112.35
L 79.05 113.65
L 79.17 117.33
L 79.28 122.77
L 79.40 129.13
L 79.52 135.55
L 79.63 141.31
L 79.75 145.96
L 79.87 149.26
L 79.98 151.15
L 80.10 151.63
L 80.22 150.67
L 80.33 148.21
L 80.45 144.20
L 80.57 138.66
L 80.68 131.84
L 80.80 124.27
L 80.92 116.77
L 81.03 110.35
L 81.15 106.01
L 81.27 104.47
L 81.38 106.01
"/>
<path style="stroke:black; fill:none; stroke-linecap:round; stroke-linejoin:round"
d="M 81.38 106.01
L 81.50 110.34
L 81.62 116.75
L 81.73 124.22
L 81.85 131.72
L 81.97 138.41
L 82.08 143.67
L 82.20 147.20
L 82.31 148.83
L 82.43 148.51
L 82.55 146.17
L 82.66 141.82
L 82.78 135.56
L 82.90 127.71
L 83.01 118.93
L 83.13 110.22
L 83.25 102.75
L 83.36 97.70
L 83.48 95.91
L 83.60 97.70
L 83.71 102.75
L 83.83 110.21
L 83.95 118.91
L 84.06 127.66
L 84.18 135.45
L 84.30 141.59
L 84.41 145.71
L 84.53 147.63
L 84.65 147.28
L 84.76 144.61
L 84.88 139.62
L 85.00 132.41
L 85.11 123.38
L 85.23 113.28
L 85.35 103.25
L 85.46 94.66
L 85.58 88.85
L 85.70 86.79
L 85.81 88.84
L 85.93 94.66
L 86.05 103.24
L 86.16 113.26
L 86.28 123.33
L 86.40 132.29
L 86.51 139.37
L 86.63 144.12
L 86.75 146.36
L 86.86 145.99
L 86.98 142.98
L 87.10 137.31
L 87.21 129.12
L 87.33 118.86
L 87.45 107.38
L 87.56 95.98
L 87.68 86.22
L 87.79 79.61
L 87.91 77.27
L 88.03 79.61
L 88.14 86.22
L 88.26 95.97
L 88.38 107.36
L 88.49 118.81
L 88.61 129.01
L 88.73 137.06
L 88.84 142.47
L 88.96 145.04
L 89.08 144.67
L 89.19 141.31
L 89.31 134.96
L 89.43 125.78
L 89.54 114.26
L 89.66 101.38
L 89.78 88.59
L 89.89 77.63
L 90.01 70.21
L 90.13 67.58
L 90.24 70.21
L 90.36 77.64
L 90.48 88.61
L 90.59 101.43
L 90.71 114.37
L 90.83 126.00
L 90.94 135.40
L 91.06 142.10
L 91.18 146.00
L 91.29 147.10
L 91.41 145.41
L 91.53 140.83
L 91.64 133.26
L 91.76 122.78
L 91.88 109.86
L 91.99 95.51
L 92.11 81.30
L 92.23 69.14
L 92.34 60.92
L 92.46 58.01
L 92.58 60.91
L 92.69 69.13
L 92.81 81.27
L 92.93 95.43
L 93.04 109.67
L 93.16 122.36
L 93.27 132.39
L 93.39 139.16
L 93.51 142.42
L 93.62 142.07
L 93.74 138.07
L 93.86 130.41
L 93.97 119.31
L 94.09 105.37
L 94.21 89.78
L 94.32 74.29
L 94.44 61.02
L 94.56 52.03
L 94.67 48.85
L 94.79 52.03
L 94.91 61.01
L 95.02 74.28
L 95.14 89.76
L 95.26 105.32
L 95.37 119.20
L 95.49 130.18
L 95.61 137.61
L 95.72 141.20
L 95.84 140.89
L 95.96 136.60
L 96.07 128.37
L 96.19 116.42
L 96.31 101.40
L 96.42 84.60
L 96.54 67.90
L 96.66 53.60
L 96.77 43.92
L 96.89 40.49
L 97.01 43.92
L 97.12 53.60
L 97.24 67.90
L 97.36 84.58
L 97.47 101.36
L 97.59 116.32
L 97.71 128.17
L 97.82 136.19
L 97.94 140.11
L 98.06 139.84
L 98.17 135.33
L 98.29 126.61
L 98.41 113.93
L 98.52 97.99
L 98.64 80.14
L 98.75 62.41
L 98.87 47.23
L 98.99 36.94
L 99.10 33.31
L 99.22 36.95
L 99.34 47.24
L 99.45 62.45
L 99.57 80.22
L 99.69 98.16
L 99.80 114.29
L 99.92 127.34
L 100.04 136.69
L 100.15 142.19
L 100.27 143.90
L 100.39 141.85
L 100.50 135.94
L 100.62 126.09
L 100.74 112.40
L 100.85 95.51
L 100.97 76.75
L 101.09 58.16
L 101.20 42.25
L 101.32 31.50
L 101.44 27.69
L 101.55 31.49
L 101.67 42.24
L 101.79 58.12
L 101.90 76.65
L 102.02 95.29
L 102.14 111.92
L 102.25 125.10
L 102.37 134.08
L 102.49 138.53
L 102.60 138.39
L 102.72 133.64
L 102.84 124.31
L 102.95 110.70
L 103.07 93.57
L 103.19 74.39
L 103.30 55.32
L 103.42 38.99
L 103.54 27.93
L 103.65 24.02
L 103.77 27.93
L 103.89 38.99
L 104.00 55.32
L 104.12 74.38
L 104.23 93.56
L 104.35 110.67
L 104.47 124.25
L 104.58 133.50
"/>
<path style="stroke:black; fill:none; stroke-linecap:round; stroke-linejoin:round"
d="M 104.58 133.50
L 104.70 138.14
L 104.82 138.09
L 104.93 133.34
L 105.05 123.95
L 105.17 110.22
L 105.28 92.92
L 105.40 73.54
L 105.52 54.28
L 105.63 37.78
L 105.75 26.61
L 105.87 22.66
L 105.98 26.61
L 106.10 37.78
L 106.22 54.28
L 106.33 73.54
L 106.45 92.92
L 106.57 110.22
L 106.68 123.95
L 106.80 133.34
L 106.92 138.08
L 107.03 138.13
L 107.15 133.49
L 107.27 124.22
L 107.38 110.63
L 107.50 93.51
L 107.62 74.32
L 107.73 55.24
L 107.85 38.90
L 107.97 27.83
L 108.08 23.92
L 108.20 27.83
L 108.32 38.90
L 108.43 55.25
L 108.55 74.33
L 108.67 93.52
L 108.78 110.67
L 108.90 124.29
L 109.02 133.63
L 109.13 138.40
L 109.25 138.56
L 109.36 134.12
L 109.48 125.18
L 109.60 112.03
L 109.71 95.45
L 109.83 76.86
L 109.95 58.37
L 110.06 42.54
L 110.18 31.82
L 110.30 28.02
L 110.41 31.82
L 110.53 42.55
L 110.65 58.41
L 110.76 76.96
L 110.88 95.67
L 111.00 112.52
L 111.11 126.18
L 111.23 136.01
L 111.35 141.92
L 111.46 144.01
L 111.58 142.36
L 111.70 136.96
L 111.81 127.76
L 111.93 114.91
L 112.05 99.01
L 112.16 81.33
L 112.28 63.82
L 112.40 48.84
L 112.51 38.70
L 112.63 35.11
L 112.75 38.69
L 112.86 48.82
L 112.98 63.79
L 113.10 81.26
L 113.21 98.85
L 113.33 114.57
L 113.45 127.09
L 113.56 135.72
L 113.68 140.23
L 113.80 140.62
L 113.91 136.93
L 114.03 129.27
L 114.15 117.93
L 114.26 103.59
L 114.38 87.50
L 114.50 71.50
L 114.61 57.78
L 114.73 48.50
L 114.84 45.21
L 114.96 48.50
L 115.08 57.79
L 115.19 71.51
L 115.31 87.53
L 115.43 103.66
L 115.54 118.08
L 115.66 129.58
L 115.78 137.54
L 115.89 141.77
L 116.01 142.26
L 116.13 139.10
L 116.24 132.40
L 116.36 122.42
L 116.48 109.77
L 116.59 95.58
L 116.71 81.45
L 116.83 69.35
L 116.94 61.15
L 117.06 58.25
L 117.18 61.16
L 117.29 69.35
L 117.41 81.47
L 117.53 95.61
L 117.64 109.85
L 117.76 122.60
L 117.88 132.78
L 117.99 139.86
L 118.11 143.69
L 118.23 144.29
L 118.34 141.75
L 118.46 136.19
L 118.58 127.85
L 118.69 117.25
L 118.81 105.34
L 118.93 93.49
L 119.04 83.34
L 119.16 76.46
L 119.28 74.02
L 119.39 76.46
L 119.51 83.34
L 119.63 93.51
L 119.74 105.38
L 119.86 117.34
L 119.98 128.06
L 120.09 136.64
L 120.21 142.65
L 120.32 145.98
L 120.44 146.67
L 120.56 144.83
L 120.67 140.57
L 120.79 134.11
L 120.91 125.87
L 121.02 116.60
L 121.14 107.37
L 121.26 99.45
L 121.37 94.09
L 121.49 92.20
L 121.61 94.10
L 121.72 99.47
L 121.84 107.40
L 121.96 116.67
L 122.07 126.05
L 122.19 134.50
L 122.31 141.38
L 122.42 146.42
L 122.54 149.59
L 122.66 151.02
L 122.77 150.83
L 122.89 149.10
L 123.01 145.88
L 123.12 141.27
L 123.24 135.53
L 123.36 129.12
L 123.47 122.77
L 123.59 117.33
L 123.71 113.65
L 123.82 112.35
L 123.94 113.65
L 124.06 117.33
L 124.17 122.77
L 124.29 129.13
L 124.41 135.54
L 124.52 141.31
L 124.64 145.98
L 124.76 149.35
L 124.87 151.41
L 124.99 152.23
L 125.11 151.94
L 125.22 150.65
L 125.34 148.50
L 125.46 145.67
L 125.57 142.45
L 125.69 139.24
L 125.80 136.47
L 125.92 134.60
L 126.04 133.94
L 126.15 134.60
L 126.27 136.48
L 126.39 139.26
L 126.50 142.51
L 126.62 145.79
L 126.74 148.77
L 126.85 151.23
L 126.97 153.10
L 127.09 154.42
L 127.20 155.27
L 127.32 155.79
L 127.44 156.09
L 127.55 156.25
L 127.67 156.32
L 127.79 156.36
"/>
<path style="stroke:black; fill:none; stroke-linecap:round; stroke-linejoin:round"
d="M 127.79 156.36
L 127.90 156.38
L 128.02 156.38
L 128.14 156.38
L 128.25 156.38
L 128.37 156.38
L 128.49 156.38
L 128.60 156.37
L 128.72 156.36
L 128.84 156.32
L 128.95 156.24
L 129.07 156.09
L 129.19 155.79
L 129.30 155.26
L 129.42 154.40
L 129.54 153.07
L 129.65 151.19
L 129.77 148.70
L 129.89 145.69
L 130.00 142.37
L 130.12 139.09
L 130.24 136.29
L 130.35 134.39
L 130.47 133.72
L 130.59 134.39
L 130.70 136.29
L 130.82 139.08
L 130.94 142.35
L 131.05 145.64
L 131.17 148.58
L 131.28 150.91
L 131.40 152.48
L 131.52 153.21
L 131.63 153.04
L 131.75 151.85
L 131.87 149.52
L 131.98 145.94
L 132.10 141.10
L 132.22 135.18
L 132.33 128.61
L 132.45 122.12
L 132.57 116.57
L 132.68 112.82
L 132.80 111.49
L 132.92 112.82
L 133.03 116.56
L 133.15 122.10
L 133.27 128.55
L 133.38 135.02
L 133.50 140.75
L 133.62 145.21
L 133.73 148.08
L 133.85 149.17
L 133.97 148.36
L 134.08 145.54
L 134.20 140.63
L 134.32 133.71
L 134.43 125.09
L 134.55 115.48
L 134.67 105.96
L 134.78 97.80
L 134.90 92.28
L 135.02 90.32
L 135.13 92.28
L 135.25 97.79
L 135.37 105.94
L 135.48 115.44
L 135.60 124.98
L 135.72 133.45
L 135.83 140.10
L 135.95 144.47
L 136.07 146.35
L 136.18 145.60
L 136.30 142.13
L 136.42 135.87
L 136.53 126.95
L 136.65 115.82
L 136.76 103.39
L 136.88 91.05
L 137.00 80.48
L 137.11 73.33
L 137.23 70.80
L 137.35 73.33
L 137.46 80.48
L 137.58 91.03
L 137.70 103.35
L 137.81 115.72
L 137.93 126.72
L 138.05 135.39
L 138.16 141.16
L 138.28 143.77
L 138.40 143.11
L 138.51 139.07
L 138.63 131.63
L 138.75 120.94
L 138.86 107.57
L 138.98 92.63
L 139.10 77.79
L 139.21 65.08
L 139.33 56.48
L 139.45 53.43
L 139.56 56.48
L 139.68 65.07
L 139.80 77.77
L 139.91 92.59
L 140.03 107.48
L 140.15 120.74
L 140.26 131.21
L 140.38 138.23
L 140.50 141.51
L 140.61 140.95
L 140.73 136.45
L 140.85 128.00
L 140.96 115.81
L 141.08 100.53
L 141.20 83.45
L 141.31 66.48
L 141.43 51.95
L 141.55 42.11
L 141.66 38.63
L 141.78 42.11
L 141.90 51.96
L 142.01 66.51
L 142.13 83.51
L 142.24 100.67
L 142.36 116.10
L 142.48 128.56
L 142.59 137.45
L 142.71 142.63
L 142.83 144.12
L 142.94 141.90
L 143.06 135.86
L 143.18 125.89
L 143.29 112.08
L 143.41 95.05
L 143.53 76.13
L 143.64 57.40
L 143.76 41.37
L 143.88 30.53
L 143.99 26.69
L 144.11 30.52
L 144.23 41.35
L 144.34 57.35
L 144.46 76.02
L 144.58 94.80
L 144.69 111.54
L 144.81 124.79
L 144.93 133.76
L 145.04 138.13
L 145.16 137.79
L 145.28 132.70
L 145.39 122.87
L 145.51 108.58
L 145.63 90.62
L 145.74 70.53
L 145.86 50.56
L 145.98 33.46
L 146.09 21.88
L 146.21 17.78
L 146.33 21.88
L 146.44 33.46
L 146.56 50.56
L 146.68 70.51
L 146.79 90.58
L 146.91 108.49
L 147.03 122.67
L 147.14 132.31
L 147.26 137.06
L 147.37 136.84
L 147.49 131.61
L 147.61 121.42
L 147.72 106.55
L 147.84 87.86
L 147.96 66.93
L 148.07 46.13
L 148.19 28.31
L 148.31 16.24
L 148.42 11.97
L 148.54 16.24
L 148.66 28.31
L 148.77 46.12
L 148.89 66.92
L 149.01 87.84
L 149.12 106.50
L 149.24 121.30
L 149.36 131.39
L 149.47 136.42
L 149.59 136.31
L 149.71 131.05
L 149.82 120.70
L 149.94 105.58
L 150.06 86.53
L 150.17 65.21
L 150.29 44.01
L 150.41 25.84
L 150.52 13.55
L 150.64 9.20
L 150.76 13.55
L 150.87 25.84
L 150.99 44.01
"/>
<path style="stroke:black; fill:none; stroke-linecap:round; stroke-linejoin:round"
d="M 150.99 44.01
L 151.11 65.20
L 151.22 86.53
L 151.34 105.56
L 151.46 120.67
L 151.57 130.98
L 151.69 136.18
L 151.81 136.18
L 151.92 130.99
L 152.04 120.69
L 152.16 105.59
L 152.27 86.57
L 152.39 65.26
L 152.51 44.07
L 152.62 25.92
L 152.74 13.64
L 152.85 9.29
L 152.97 13.64
L 153.09 25.94
L 153.20 44.12
L 153.32 65.36
L 153.44 86.81
L 153.55 106.11
L 153.67 121.73
L 153.79 132.97
L 153.90 139.67
L 154.02 141.93
L 154.14 139.84
L 154.25 133.33
L 154.37 122.33
L 154.49 107.01
L 154.60 88.08
L 154.72 67.03
L 154.84 46.17
L 154.95 28.33
L 155.07 16.26
L 155.19 11.99
L 155.30 16.26
L 155.42 28.32
L 155.54 46.13
L 155.65 66.93
L 155.77 87.86
L 155.89 106.55
L 156.00 121.41
L 156.12 131.59
L 156.24 136.80
L 156.35 136.99
L 156.47 132.19
L 156.59 122.49
L 156.70 108.21
L 156.82 90.20
L 156.94 70.00
L 157.05 49.93
L 157.17 32.73
L 157.29 21.08
L 157.40 16.96
L 157.52 21.08
L 157.64 32.73
L 157.75 49.93
L 157.87 70.02
L 157.99 90.23
L 158.10 108.28
L 158.22 122.64
L 158.33 132.50
L 158.45 137.58
L 158.57 137.84
L 158.68 133.33
L 158.80 124.13
L 158.92 110.57
L 159.03 93.45
L 159.15 74.26
L 159.27 55.18
L 159.38 38.83
L 159.50 27.76
L 159.62 23.84
L 159.73 27.76
L 159.85 38.83
L 159.97 55.19
L 160.08 74.28
L 160.20 93.50
L 160.32 110.67
L 160.43 124.33
L 160.55 133.73
L 160.67 138.60
L 160.78 138.92
L 160.90 134.73
L 161.02 126.14
L 161.13 113.46
L 161.25 97.43
L 161.37 79.45
L 161.48 61.57
L 161.60 46.26
L 161.72 35.89
L 161.83 32.22
L 161.95 35.89
L 162.07 46.27
L 162.18 61.62
L 162.30 79.55
L 162.42 97.66
L 162.53 113.96
L 162.65 127.18
L 162.77 136.71
L 162.88 142.46
L 163.00 144.54
L 163.12 143.05
L 163.23 137.97
L 163.35 129.29
L 163.47 117.15
L 163.58 102.12
L 163.70 85.40
L 163.81 68.84
L 163.93 54.67
L 164.05 45.08
L 164.16 41.69
L 164.28 45.08
L 164.40 54.66
L 164.51 68.81
L 164.63 85.34
L 164.75 101.97
L 164.86 116.84
L 164.98 128.69
L 165.10 136.86
L 165.21 141.14
L 165.33 141.53
L 165.45 138.08
L 165.56 130.88
L 165.68 120.23
L 165.80 106.74
L 165.91 91.62
L 166.03 76.57
L 166.15 63.68
L 166.26 54.95
L 166.38 51.86
L 166.50 54.95
L 166.61 63.68
L 166.73 76.58
L 166.85 91.64
L 166.96 106.80
L 167.08 120.36
L 167.20 131.16
L 167.31 138.62
L 167.43 142.55
L 167.55 142.95
L 167.66 139.88
L 167.78 133.43
L 167.90 123.85
L 168.01 111.73
L 168.13 98.12
L 168.25 84.59
L 168.36 72.99
L 168.48 65.14
L 168.60 62.36
L 168.71 65.14
L 168.83 72.99
L 168.95 84.60
L 169.06 98.15
L 169.18 111.79
L 169.29 123.98
L 169.41 133.71
L 169.53 140.43
L 169.64 144.00
L 169.76 144.40
L 169.88 141.69
L 169.99 135.98
L 170.11 127.48
L 170.23 116.72
L 170.34 104.64
L 170.46 92.62
L 170.58 82.32
L 170.69 75.34
L 170.81 72.87
L 170.93 75.34
L 171.04 82.32
L 171.16 92.63
L 171.28 104.66
L 171.39 116.78
L 171.51 127.61
L 171.63 136.26
L 171.74 142.24
L 171.86 145.43
L 171.98 145.82
L 172.09 143.47
L 172.21 138.47
L 172.33 131.02
L 172.44 121.58
L 172.56 110.99
L 172.68 100.44
L 172.79 91.41
L 172.91 85.29
L 173.03 83.13
L 173.14 85.29
L 173.26 91.42
L 173.38 100.47
L 173.49 111.06
L 173.61 121.74
L 173.73 131.37
L 173.84 139.18
L 173.96 144.83
L 174.08 148.28
L 174.19 149.60
"/>
<path style="stroke:black; fill:none; stroke-linecap:round; stroke-linejoin:round"
d="M 174.19 149.60
L 174.31 148.88
L 174.43 146.13
L 174.54 141.36
L 174.66 134.65
L 174.77 126.34
L 174.89 117.09
L 175.01 107.92
L 175.12 100.08
L 175.24 94.77
L 175.36 92.89
L 175.47 94.77
L 175.59 100.07
L 175.71 107.91
L 175.82 117.06
L 175.94 126.27
L 176.06 134.52
L 176.17 141.10
L 176.29 145.67
L 176.41 148.12
L 176.52 148.47
L 176.64 146.76
L 176.76 143.07
L 176.87 137.55
L 176.99 130.55
L 177.11 122.68
L 177.22 114.86
L 177.34 108.15
L 177.46 103.61
L 177.57 102.00
L 177.69 103.61
L 177.81 108.15
L 177.92 114.87
L 178.04 122.70
L 178.16 130.60
L 178.27 137.66
L 178.39 143.30
L 178.51 147.22
L 178.62 149.33
L 178.74 149.65
L 178.86 148.22
L 178.97 145.10
L 179.09 140.44
L 179.21 134.51
L 179.32 127.85
L 179.44 121.23
L 179.56 115.55
L 179.67 111.71
L 179.79 110.35
L 179.91 111.71
L 180.02 115.55
L 180.14 121.24
L 180.25 127.87
L 180.37 134.55
L 180.49 140.53
L 180.60 145.31
L 180.72 148.64
L 180.84 150.44
L 180.95 150.72
L 181.07 149.54
L 181.19 146.94
L 181.30 143.03
L 181.42 138.08
L 181.54 132.51
L 181.65 126.96
L 181.77 122.21
L 181.89 118.99
L 182.00 117.85
L 182.12 118.99
L 182.24 122.21
L 182.35 126.97
L 182.47 132.52
L 182.59 138.12
L 182.70 143.12
L 182.82 147.12
L 182.94 149.91
L 183.05 151.42
L 183.17 151.68
L 183.29 150.71
L 183.40 148.56
L 183.52 145.33
L 183.64 141.23
L 183.75 136.63
L 183.87 132.04
L 183.99 128.11
L 184.10 125.44
L 184.22 124.50
L 184.34 125.45
L 184.45 128.11
L 184.57 132.05
L 184.69 136.66
L 184.80 141.31
L 184.92 145.50
L 185.04 148.91
L 185.15 151.38
L 185.27 152.90
L 185.38 153.51
L 185.50 153.26
L 185.62 152.15
L 185.73 150.20
L 185.85 147.45
L 185.97 144.04
L 186.08 140.24
L 186.20 136.47
L 186.32 133.25
L 186.43 131.07
L 186.55 130.30
L 186.67 131.07
L 186.78 133.25
L 186.90 136.47
L 187.02 140.23
L 187.13 144.02
L 187.25 147.41
L 187.37 150.12
L 187.48 152.01
L 187.60 153.05
L 187.72 153.24
L 187.83 152.61
L 187.95 151.20
L 188.07 149.06
L 188.18 146.35
L 188.30 143.30
L 188.42 140.26
L 188.53 137.66
L 188.65 135.90
L 188.77 135.27
L 188.88 135.90
L 189.00 137.66
L 189.12 140.27
L 189.23 143.31
L 189.35 146.38
L 189.47 149.12
L 189.58 151.32
L 189.70 152.85
L 189.82 153.70
L 189.93 153.86
L 190.05 153.36
L 190.17 152.23
L 190.28 150.52
L 190.40 148.35
L 190.52 145.91
L 190.63 143.48
L 190.75 141.40
L 190.86 139.99
L 190.98 139.49
L 191.10 139.99
L 191.21 141.40
L 191.33 143.48
L 191.45 145.92
L 191.56 148.37
L 191.68 150.57
L 191.80 152.33
L 191.91 153.56
L 192.03 154.24
L 192.15 154.37
L 192.26 153.98
L 192.38 153.09
L 192.50 151.74
L 192.61 150.03
L 192.73 148.09
L 192.85 146.17
L 192.96 144.52
L 193.08 143.40
L 193.20 143.01
L 193.31 143.40
L 193.43 144.52
L 193.55 146.17
L 193.66 148.11
L 193.78 150.06
L 193.90 151.82
L 194.01 153.25
L 194.13 154.29
L 194.25 154.93
L 194.36 155.20
L 194.48 155.11
L 194.60 154.68
L 194.71 153.90
L 194.83 152.79
L 194.95 151.42
L 195.06 149.90
L 195.18 148.39
L 195.30 147.09
L 195.41 146.22
L 195.53 145.91
L 195.65 146.22
L 195.76 147.09
L 195.88 148.38
L 196.00 149.90
L 196.11 151.42
L 196.23 152.78
L 196.34 153.87
L 196.46 154.64
L 196.58 155.06
L 196.69 155.15
L 196.81 154.92
L 196.93 154.38
L 197.04 153.57
L 197.16 152.52
L 197.28 151.35
L 197.39 150.18
"/>
<path style="stroke:black; fill:none; stroke-linecap:round; stroke-linejoin:round"
d="M 197.39 150.18
L 197.51 149.18
L 197.63 148.50
L 197.74 148.26
L 197.86 148.50
L 197.98 149.18
L 198.09 150.19
L 198.21 151.36
L 198.33 152.54
L 198.44 153.59
L 198.56 154.44
L 198.68 155.03
L 198.79 155.36
L 198.91 155.44
L 199.03 155.26
L 199.14 154.85
L 199.26 154.22
L 199.38 153.42
L 199.49 152.53
L 199.61 151.63
L 199.73 150.86
L 199.84 150.34
L 199.96 150.16
L 200.08 150.34
L 200.19 150.86
L 200.31 151.63
L 200.43 152.53
L 200.54 153.43
L 200.66 154.24
L 200.78 154.89
L 200.89 155.35
L 201.01 155.60
L 201.13 155.66
L 201.24 155.53
L 201.36 155.22
L 201.48 154.74
L 201.59 154.14
L 201.71 153.46
L 201.82 152.78
L 201.94 152.19
L 202.06 151.80
L 202.17 151.66
L 202.29 151.80
L 202.41 152.20
L 202.52 152.78
L 202.64 153.46
L 202.76 154.15
L 202.87 154.76
L 202.99 155.25
L 203.11 155.60
L 203.22 155.79
L 203.34 155.84
L 203.46 155.74
L 203.57 155.51
L 203.69 155.15
L 203.81 154.70
L 203.92 154.19
L 204.04 153.68
L 204.16 153.24
L 204.27 152.94
L 204.39 152.84
L 204.51 152.94
L 204.62 153.24
L 204.74 153.68
L 204.86 154.19
L 204.97 154.71
L 205.09 155.18
L 205.21 155.56
L 205.32 155.83
L 205.44 156.00
L 205.56 156.08
L 205.67 156.06
L 205.79 155.95
L 205.91 155.76
L 206.02 155.48
L 206.14 155.14
L 206.26 154.75
L 206.37 154.37
L 206.49 154.05
L 206.61 153.83
L 206.72 153.75
L 206.84 153.83
L 206.96 154.05
L 207.07 154.37
L 207.19 154.75
L 207.30 155.14
L 207.42 155.48
L 207.54 155.76
L 207.65 155.95
L 207.77 156.06
L 207.89 156.08
L 208.00 156.03
L 208.12 155.91
L 208.24 155.71
L 208.35 155.46
L 208.47 155.18
L 208.59 154.91
L 208.70 154.67
L 208.82 154.51
L 208.94 154.45
L 209.05 154.51
L 209.17 154.67
L 209.29 154.91
L 209.40 155.19
L 209.52 155.47
L 209.64 155.72
L 209.75 155.92
L 209.87 156.06
L 209.99 156.15
L 210.10 156.17
L 210.22 156.13
L 210.34 156.04
L 210.45 155.90
L 210.57 155.71
L 210.69 155.51
L 210.80 155.31
L 210.92 155.13
L 211.04 155.02
L 211.15 154.98
L 211.27 155.02
L 211.39 155.13
L 211.50 155.31
L 211.62 155.51
L 211.74 155.72
L 211.85 155.90
L 211.97 156.05
L 212.09 156.15
L 212.20 156.21
L 212.32 156.23
L 212.44 156.20
L 212.55 156.13
L 212.67 156.03
L 212.78 155.90
L 212.90 155.76
L 213.02 155.61
L 213.13 155.48
L 213.25 155.40
L 213.37 155.37
L 213.48 155.40
L 213.60 155.48
L 213.72 155.61
L 213.83 155.76
L 213.95 155.90
L 214.07 156.04
L 214.18 156.14
L 214.30 156.22
L 214.42 156.26
L 214.53 156.27
L 214.65 156.25
L 214.77 156.21
L 214.88 156.13
L 215.00 156.04
L 215.12 155.94
L 215.23 155.83
L 215.35 155.74
L 215.47 155.68
L 215.58 155.66
L 215.70 155.68
L 215.82 155.74
L 215.93 155.83
L 216.05 155.94
L 216.17 156.04
L 216.28 156.14
L 216.40 156.22
L 216.52 156.27
L 216.63 156.31
L 216.75 156.32
L 216.87 156.32
L 216.98 156.30
L 217.10 156.26
L 217.22 156.21
L 217.33 156.14
L 217.45 156.07
L 217.57 156.00
L 217.68 155.93
L 217.80 155.89
L 217.92 155.87
L 218.03 155.89
L 218.15 155.93
L 218.26 156.00
L 218.38 156.07
L 218.50 156.14
L 218.61 156.21
L 218.73 156.26
L 218.85 156.30
L 218.96 156.32
L 219.08 156.33
L 219.20 156.32
L 219.31 156.30
L 219.43 156.26
L 219.55 156.22
L 219.66 156.16
L 219.78 156.11
L 219.90 156.07
L 220.01 156.04
L 220.13 156.03
L 220.25 156.04
L 220.36 156.07
L 220.48 156.11
L 220.60 156.16
"/>
<path style="stroke:black; fill:none; stroke-linecap:round; stroke-linejoin:round"
d="M 220.60 156.16
L 220.71 156.22
L 220.83 156.26
L 220.95 156.30
L 221.06 156.33
L 221.18 156.34
L 221.30 156.35
L 221.41 156.34
L 221.53 156.32
L 221.65 156.30
L 221.76 156.27
L 221.88 156.23
L 222.00 156.20
L 222.11 156.17
L 222.23 156.15
L 222.35 156.14
L 222.46 156.15
L 222.58 156.17
L 222.70 156.20
L 222.81 156.23
L 222.93 156.27
L 223.05 156.30
L 223.16 156.33
L 223.28 156.34
L 223.39 156.36
L 223.51 156.36
L 223.63 156.35
L 223.74 156.34
L 223.86 156.33
L 223.98 156.30
L 224.09 156.28
L 224.21 156.26
L 224.33 156.24
L 224.44 156.22
L 224.56 156.22
L 224.68 156.22
L 224.79 156.24
L 224.91 156.26
L 225.03 156.28
L 225.14 156.31
L 225.26 156.33
L 225.38 156.35
L 225.49 156.36
L 225.61 156.37
L 225.73 156.37
L 225.84 156.37
L 225.96 156.37
L 226.08 156.36
L 226.19 156.35
L 226.31 156.33
L 226.43 156.31
L 226.54 156.30
L 226.66 156.28
L 226.78 156.27
L 226.89 156.27
L 227.01 156.27
L 227.13 156.28
L 227.24 156.30
L 227.36 156.31
L 227.48 156.33
L 227.59 156.35
L 227.71 156.36
L 227.83 156.37
L 227.94 156.37
L 228.06 156.37
L 228.18 156.37
L 228.29 156.37
L 228.41 156.36
L 228.53 156.35
L 228.64 156.34
L 228.76 156.33
L 228.87 156.32
L 228.99 156.31
L 229.11 156.31
L 229.22 156.31
L 229.34 156.32
L 229.46 156.33
L 229.57 156.34
L 229.69 156.35
L 229.81 156.36
L 229.92 156.37
L 230.04 156.37
L 230.16 156.38
L 230.27 156.38
L 230.39 156.38
L 230.51 156.37
L 230.62 156.37
L 230.74 156.36
L 230.86 156.35
L 230.97 156.35
L 231.09 156.34
L 231.21 156.34
L 231.32 156.33
L 231.44 156.34
L 231.56 156.34
L 231.67 156.35
L 231.79 156.35
L 231.91 156.36
L 232.02 156.37
L 232.14 156.37
L 232.26 156.38
L 232.37 156.38
L 232.49 156.38
L 232.61 156.38
L 232.72 156.38
L 232.84 156.37
L 232.96 156.37
L 233.07 156.36
L 233.19 156.36
L 233.31 156.36
L 233.42 156.35
L 233.54 156.35
L 233.66 156.35
L 233.77 156.36
L 233.89 156.36
L 234.01 156.36
L 234.12 156.37
L 234.24 156.37
L 234.35 156.38
L 234.47 156.38
L 234.59 156.38
L 234.70 156.38
L 234.82 156.38
L 234.94 156.38
L 235.05 156.38
L 235.17 156.37
L 235.29 156.37
L 235.40 156.37
L 235.52 156.37
L 235.64 156.36
L 235.75 156.36
L 235.87 156.36
L 235.99 156.37
L 236.10 156.37
L 236.22 156.37
L 236.34 156.37
L 236.45 156.38
L 236.57 156.38
L 236.69 156.38
L 236.80 156.38
L 236.92 156.38
L 237.04 156.38
L 237.15 156.38
L 237.27 156.38
L 237.39 156.38
L 237.50 156.38
L 237.62 156.38
L 237.74 156.37
L 237.85 156.37
L 237.97 156.37
L 238.09 156.37
L 238.20 156.37
L 238.32 156.37
L 238.44 156.37
L 238.55 156.38
L 238.67 156.38
L 238.79 156.38
L 238.90 156.38
L 239.02 156.38
L 239.14 156.38
L 239.25 156.38
L 239.37 156.38
L 239.49 156.38
L 239.60 156.38
L 239.72 156.38
L 239.83 156.38
L 239.95 156.38
L 240.07 156.38
L 240.18 156.38
L 240.30 156.38
L 240.42 156.38
L 240.53 156.38
L 240.65 156.38
L 240.77 156.38
L 240.88 156.38
L 241.00 156.38
L 241.12 156.38
L 241.23 156.38
L 241.35 156.38
L 241.47 156.38
L 241.58 156.39
L 241.70 156.39
L 241.82 156.39
L 241.93 156.39
L 242.05 156.39
L 242.17 156.39
L 242.28 156.39
L 242.40 156.39
L 242.52 156.39
L 242.63 156.39
L 242.75 156.39
L 242.87 156.39
L 242.98 156.39
L 243.10 156.39
L 243.22 156.39
L 243.33 156.39
L 243.45 156.39
L 243.57 156.39
L 243.68 156.39
L 243.80 156.39
"/>
<path style="stroke:black; fill:none; stroke-linecap:round; stroke-linejoin:round"
d="M 243.80 156.39
L 243.92 156.39
L 244.03 156.39
L 244.15 156.39
L 244.27 156.39
L 244.38 156.39
L 244.50 156.39
L 244.62 156.39
L 244.73 156.39
L 244.85 156.39
"/>
<path style="stroke:black; fill:none; stroke-linecap:round; stroke-linejoin:round"
d="M 11.77 153.36
L 12.70 153.36
"/>
<path style="stroke:black; fill:none; stroke-linecap:round; stroke-linejoin:round"
d="M 11.77 150.34
L 12.70 150.34
"/>
<path style="stroke:black; fill:none; stroke-linecap:round; stroke-linejoin:round"
d="M 11.77 147.32
L 12.70 147.32
"/>
<path style="stroke:black; fill:none; stroke-linecap:round; stroke-linejoin:round"
d="M 11.77 144.29
L 12.70 144.29
"/>
<path style="stroke:black; fill:none; stroke-linecap:round; stroke-linejoin:round"
d="M 11.77 156.39
L 11.77 9.20
"/>
<text x="11.53" y="142.31" style="font-size:2.76; fill:black; text-anchor:end
">0.001</text>
<path style="stroke:black; fill:none; stroke-linecap:round; stroke-linejoin:round"
d="M 11.77 141.27
L 13.62 141.27
"/>
<path style="stroke:black; fill:none; stroke-linecap:round; stroke-linejoin:round"
d="M 11.77 138.25
L 12.70 138.25
"/>
<path style="stroke:black; fill:none; stroke-linecap:round; stroke-linejoin:round"
d="M 11.77 135.23
L 12.70 135.23
"/>
<path style="stroke:black; fill:none; stroke-linecap:round; stroke-linejoin:round"
d="M 11.77 132.20
L 12.70 132.20
"/>
<path style="stroke:black; fill:none; stroke-linecap:round; stroke-linejoin:round"
d="M 11.77 129.18
L 12.70 129.18
"/>
<text x="11.53" y="127.20" style="font-size:2.76; fill:black; text-anchor:end
">0.002</text>
<path style="stroke:black; fill:none; stroke-linecap:round; stroke-linejoin:round"
d="M 11.77 126.16
L 13.62 126.16
"/>
<path style="stroke:black; fill:none; stroke-linecap:round; stroke-linejoin:round"
d="M 11.77 123.13
L 12.70 123.13
"/>
<path style="stroke:black; fill:none; stroke-linecap:round; stroke-linejoin:round"
d="M 11.77 120.11
L 12.70 120.11
"/>
<path style="stroke:black; fill:none; stroke-linecap:round; stroke-linejoin:round"
d="M 11.77 117.09
L 12.70 117.09
"/>
<path style="stroke:black; fill:none; stroke-linecap:round; stroke-linejoin:round"
d="M 11.77 114.07
L 12.70 114.07
"/>
<text x="11.53" y="112.09" style="font-size:2.76; fill:black; text-anchor:end
">0.003</text>
<path style="stroke:black; fill:none; stroke-linecap:round; stroke-linejoin:round"
d="M 11.77 111.04
L 13.62 111.04
"/>
<path style="stroke:black; fill:none; stroke-linecap:round; stroke-linejoin:round"
d="M 11.77 108.02
L 12.70 108.02
"/>
<path style="stroke:black; fill:none; stroke-linecap:round; stroke-linejoin:round"
d="M 11.77 105.00
L 12.70 105.00
"/>
<path style="stroke:black; fill:none; stroke-linecap:round; stroke-linejoin:round"
d="M 11.77 101.97
L 12.70 101.97
"/>
<path style="stroke:black; fill:none; stroke-linecap:round; stroke-linejoin:round"
d="M 11.77 98.95
L 12.70 98.95
"/>
<text x="11.53" y="96.97" style="font-size:2.76; fill:black; text-anchor:end
">0.004</text>
<path style="stroke:black; fill:none; stroke-linecap:round; stroke-linejoin:round"
d="M 11.77 95.93
L 13.62 95.93
"/>
<path style="stroke:black; fill:none; stroke-linecap:round; stroke-linejoin:round"
d="M 11.77 92.91
L 12.70 92.91
"/>
<path style="stroke:black; fill:none; stroke-linecap:round; stroke-linejoin:round"
d="M 11.77 89.88
L 12.70 89.88
"/>
<path style="stroke:black; fill:none; stroke-linecap:round; stroke-linejoin:round"
d="M 11.77 86.86
L 12.70 86.86
"/>
<path style="stroke:black; fill:none; stroke-linecap:round; stroke-linejoin:round"
d="M 11.77 83.84
L 12.70 83.84
"/>
<text x="11.53" y="81.86" style="font-size:2.76; fill:black; text-anchor:end
">0.005</text>
<path style="stroke:black; fill:none; stroke-linecap:round; stroke-linejoin:round"
d="M 11.77 80.82
L 13.62 80.82
"/>
<path style="stroke:black; fill:none; stroke-linecap:round; stroke-linejoin:round"
d="M 11.77 77.79
L 12.70 77.79
"/>
<path style="stroke:black; fill:none; stroke-linecap:round; stroke-linejoin:round"
d="M 11.77 74.77
L 12.70 74.77
"/>
<path style="stroke:black; fill:none; stroke-linecap:round; stroke-linejoin:round"
d="M 11.77 71.75
L 12.70 71.75
"/>
<path style="stroke:black; fill:none; stroke-linecap:round; stroke-linejoin:round"
d="M 11.77 68.72
L 12.70 68.72
"/>
<text x="11.53" y="66.74" style="font-size:2.76; fill:black; text-anchor:end
">0.006</text>
<path style="stroke:black; fill:none; stroke-linecap:round; stroke-linejoin:round"
d="M 11.77 65.70
L 13.62 65.70
"/>
<path style="stroke:black; fill:none; stroke-linecap:round; stroke-linejoin:round"
d="M 11.77 62.68
L 12.70 62.68
"/>
<path style="stroke:black; fill:none; stroke-linecap:round; stroke-linejoin:round"
d="M 11.77 59.66
L 12.70 59.66
"/>
<path style="stroke:black; fill:none; stroke-linecap:round; stroke-linejoin:round"
d="M 11.77 56.63
L 12.70 56.63
"/>
<path style="stroke:black; fill:none; stroke-linecap:round; stroke-linejoin:round"
d="M 11.77 53.61
L 12.70 53.61
"/>
<text x="11.53" y="51.63" style="font-size:2.76; fill:black; text-anchor:end
">0.007</text>
<path style="stroke:black; fill:none; stroke-linecap:round; stroke-linejoin:round"
d="M 11.77 50.59
L 13.62 50.59
"/>
<path style="stroke:black; fill:none; stroke-linecap:round; stroke-linejoin:round"
d="M 11.77 47.56
L 12.70 47.56
"/>
<path style="stroke:black; fill:none; stroke-linecap:round; stroke-linejoin:round"
d="M 11.77 44.54
L 12.70 44.54
"/>
<path style="stroke:black; fill:none; stroke-linecap:round; stroke-linejoin:round"
d="M 11.77 41.52
L 12.70 41.52
"/>
<path style="stroke:black; fill:none; stroke-linecap:round; stroke-linejoin:round"
d="M 11.77 38.50
L 12.70 38.50
"/>
<text x="11.53" y="36.52" style="font-size:2.76; fill:black; text-anchor:end
">0.008</text>
<path style="stroke:black; fill:none; stroke-linecap:round; stroke-linejoin:round"
d="M 11.77 35.47
L 13.62 35.47
"/>
<path style="stroke:black; fill:none; stroke-linecap:round; stroke-linejoin:round"
d="M 11.77 32.45
L 12.70 32.45
"/>
<path style="stroke:black; fill:none; stroke-linecap:round; stroke-linejoin:round"
d="M 11.77 29.43
L 12.70 29.43
"/>
<path style="stroke:black; fill:none; stroke-linecap:round; stroke-linejoin:round"
d="M 11.77 26.40
L 12.70 26.40
"/>
<path style="stroke:black; fill:none; stroke-linecap:round; stroke-linejoin:round"
d="M 11.77 23.38
L 12.70 23.38
"/>
<text x="11.53" y="21.40" style="font-size:2.76; fill:black; text-anchor:end
">0.009</text>
<path style="stroke:black; fill:none; stroke-linecap:round; stroke-linejoin:round"
d="M 11.77 20.36
L 13.62 20.36
"/>
<path style="stroke:black; fill:none; stroke-linecap:round; stroke-linejoin:round"
d="M 11.77 17.34
L 12.70 17.34
"/>
<path style="stroke:black; fill:none; stroke-linecap:round; stroke-linejoin:round"
d="M 11.77 14.31
L 12.70 14.31
"/>
<path style="stroke:black; fill:none; stroke-linecap:round; stroke-linejoin:round"
d="M 11.77 11.29
L 12.70 11.29
"/>
<g transform="translate(2.96,82.79) rotate(270.0)">
<text x="0.00" y="0.00" style="font-size:2.76; fill:black; text-anchor:middle
">Normalized Intensity / cm-1</text>
</g>
</svg>
